<svg xmlns="http://www.w3.org/2000/svg" viewBox="0 0 686.51 717"><g id="Layer_2" data-name="Layer 2"><g id="Layer_1-2" data-name="Layer 1"><path d="M613.37,717H73.14A73.22,73.22,0,0,1,0,643.87V73.13A73.22,73.22,0,0,1,73.14,0H613.37a73.22,73.22,0,0,1,73.14,73.13V643.87A73.22,73.22,0,0,1,613.37,717ZM73.14,10.41A62.8,62.8,0,0,0,10.41,73.13V643.87a62.8,62.8,0,0,0,62.73,62.72H613.37a62.8,62.8,0,0,0,62.73-62.72V73.13a62.8,62.8,0,0,0-62.73-62.72Z" fill="#fff"/><rect x="92.55" y="45.59" width="501.42" height="562.89" rx="33.97" fill="#f1f1f1" opacity="0.2"/><polygon points="208.88 337.2 366.48 337.2 366.48 378.98 482.17 323.94 366.48 268.92 366.48 310.67 208.88 310.67 208.88 337.2" fill="#fff"/></g></g></svg>