<svg xmlns="http://www.w3.org/2000/svg" viewBox="0 0 722.9 755"><g id="Layer_2" data-name="Layer 2"><g id="Layer_1-2" data-name="Layer 1"><path d="M645.88,755H77A77.1,77.1,0,0,1,0,678V77A77.1,77.1,0,0,1,77,0H645.88a77.1,77.1,0,0,1,77,77V678A77.1,77.1,0,0,1,645.88,755ZM77,11A66.12,66.12,0,0,0,11,77V678A66.12,66.12,0,0,0,77,744H645.88a66.13,66.13,0,0,0,66.06-66V77A66.13,66.13,0,0,0,645.88,11Z" fill="#fff"/><rect x="97.45" y="48.01" width="527.99" height="592.72" rx="35.77" fill="#f1f1f1" opacity="0.2"/><polygon points="506.25 327.15 340.3 327.15 340.3 283.17 218.47 341.12 340.3 399.06 340.3 355.1 506.25 355.1 506.25 327.15" fill="#fff"/></g></g></svg>