<svg xmlns="http://www.w3.org/2000/svg" viewBox="0 0 747.56 669"><g id="Layer_2" data-name="Layer 2"><g id="Layer_1-2" data-name="Layer 1"><path d="M430.58,89.72a8.63,8.63,0,0,0,12.05,1.56A112.86,112.86,0,0,1,612,232.19l-4.29-19.12a8.59,8.59,0,1,0-16.76,3.75l8.86,39.53.1.37a8,8,0,0,0,.41,1.06,6.58,6.58,0,0,0,.36.82l.13.24a8.4,8.4,0,0,0,5.4,4,5.25,5.25,0,0,0,1.09.15,10.64,10.64,0,0,0,1.6,0l.38,0,40.32-9a8.59,8.59,0,0,0-3.76-16.77l-19.34,4.34c31.24-58.8,12.86-133-44-170a130.19,130.19,0,0,0-150.33,6.07,8.62,8.62,0,0,0-1.57,12Z" fill="#fff"/><path d="M745.05,330.27a8.51,8.51,0,0,0-6.08-2.52H90.83a8.59,8.59,0,0,0-8.59,8.59V660.4a8.6,8.6,0,0,0,8.6,8.6H739a8.6,8.6,0,0,0,8.59-8.59V336.35A8.54,8.54,0,0,0,745.05,330.27ZM99.43,651.81V344.93h631V651.81Z" fill="#fff"/><path d="M52.78,651.81H17.19V17.19H324.07v281.1a8.59,8.59,0,1,0,17.18,0V8.6A8.59,8.59,0,0,0,332.66,0H8.59A8.59,8.59,0,0,0,0,8.59V660.4A8.59,8.59,0,0,0,8.59,669H52.78a8.6,8.6,0,0,0,8.59-8.59A8.42,8.42,0,0,0,52.78,651.81Z" fill="#fff"/></g></g></svg>