<svg xmlns="http://www.w3.org/2000/svg" viewBox="0 0 239.89 703.2"><g id="Layer_2" data-name="Layer 2"><g id="Layer_1-2" data-name="Layer 1"><path d="M119.94,563.32A120.08,120.08,0,0,1,0,443.38V258.82a119.95,119.95,0,1,1,239.89,0V443.38A120.08,120.08,0,0,1,119.94,563.32Zm0-409.68A105.3,105.3,0,0,0,14.76,258.82V443.38a105.18,105.18,0,0,0,210.36,0V258.82A105.29,105.29,0,0,0,119.94,153.64Z" fill="#fff"/><rect x="105.59" y="196.32" width="28.71" height="64.32" rx="3.89" fill="#fff"/><path d="M53.61,80.09a7.39,7.39,0,0,1-5.22-12.6L113.72,2.16a7.39,7.39,0,0,1,10.44,0l64.32,64.32A7.38,7.38,0,0,1,178,76.92l-59.1-59.1L58.83,77.92A7.33,7.33,0,0,1,53.61,80.09Z" fill="#fff"/><path d="M117.93,703.2a7.37,7.37,0,0,1-5.22-2.17L48.39,636.71a7.38,7.38,0,0,1,10.44-10.43l59.1,59.1L178,625.27a7.38,7.38,0,0,1,10.44,10.44L123.15,701A7.37,7.37,0,0,1,117.93,703.2Z" fill="#fff"/></g></g></svg>