<svg xmlns="http://www.w3.org/2000/svg" viewBox="0 0 646.96 709"><g id="Layer_2" data-name="Layer 2"><g id="Layer_1-2" data-name="Layer 1"><path d="M213.35,709c-1.71,0-3.41,0-5.13-.06C90.65,706.14-2.73,608.21.06,490.63L2.53,386.57A71.72,71.72,0,0,1,39.78,325.8L177.5,250.19a71.52,71.52,0,0,1,41.55-12.28,70.43,70.43,0,0,1,40,13.64l2.85-120.11a71.88,71.88,0,0,1,71.64-70l1.73,0a71.77,71.77,0,0,1,70,73.36l-6.68,280.83,8.25-7.88a134.25,134.25,0,0,1,167.56-14.86,28.52,28.52,0,0,1,5.37,4.58h0a31.38,31.38,0,0,1-1,44.43L344.26,665.49l-.15-1.55A211.75,211.75,0,0,1,213.35,709Zm4-454.34a54.24,54.24,0,0,0-30.73,9.61l-.7.43L47.85,340.5A54.15,54.15,0,0,0,19.3,387L16.83,491c-2.58,108.34,83.46,198.57,191.8,201.14A195.33,195.33,0,0,0,345.31,641l7.18-6.53L567.13,429.8a14.62,14.62,0,0,0,.48-20.69h0a14.3,14.3,0,0,0-2.3-2.05c-46.47-30.78-106.8-25.43-146.94,12.86l-37.56,35.86,7.64-321.33a55,55,0,0,0-53.59-56.2,55.07,55.07,0,0,0-56.21,53.59l-3.87,162.79L260.33,276a54.33,54.33,0,0,0-41.69-21.32C218.21,254.66,217.79,254.66,217.35,254.66Z" fill="#fff"/><polygon points="131.32 74.71 131.32 0 25.15 106.2 131.32 212.41 131.32 138.01 226.55 138.01 226.55 74.71 131.32 74.71" fill="#fff"/><polygon points="539.51 74.71 539.51 0 646.96 106.2 539.51 212.41 539.51 138.01 443.13 138.01 443.13 74.71 539.51 74.71" fill="#fff"/></g></g></svg>