<?xml version="1.0" encoding="UTF-8"?>
<svg id="a" data-name="Layer 1" xmlns="http://www.w3.org/2000/svg" viewBox="0 0 2710.18 1833.85">
  <defs>
    <style>
      .l {
        stroke-width: 5.9px;
      }

      .l, .m, .n, .o, .p, .q, .r, .s, .t, .u {
        fill: none;
        stroke: #ffcb06;
        stroke-miterlimit: 10;
      }

      .m {
        stroke-width: 7.3px;
      }

      .n {
        stroke-width: 4.5px;
      }

      .o {
        stroke-width: 1.7px;
      }

      .p {
        stroke-width: 3.1px;
      }

      .q {
        stroke-width: 6.6px;
      }

      .r {
        stroke-width: 3.8px;
      }

      .s {
        stroke-width: 5.2px;
      }

      .t {
        stroke-width: 8px;
      }

      .u {
        stroke-width: 2.4px;
      }
    </style>
  </defs>
  <path id="b" data-name="Path 13" class="t" d="m1383.9,428.58c375.81,0,680.46,304.51,680.46,680.14s-304.65,680.14-680.46,680.14H1.82"/>
  <path id="c" data-name="Path 14" class="m" d="m1379.59,428.84c362.89-1.18,652.89,291.2,653.33,651.41.44,322.12-233.35,588.25-540.16,642.88-26.51,4.72-59.63,8.16-87.19,9.51-10.08.49-22.49.79-32.69.79L3.94,1723.13"/>
  <path id="d" data-name="Path 15" class="q" d="m1375.29,429.1c349.96-2.35,625.31,277.9,626.2,622.68.89,310.93-226.8,565.88-523.81,616.89-23.59,4.05-59.74,7.39-84.24,8.59-8.96.44-22.5.75-31.57.75l-1360.05-.75"/>
  <path id="e" data-name="Path 16" class="l" d="m1370.98,429.35c337.04-3.53,597.73,264.59,599.06,593.96,1.33,299.74-220.2,543.49-507.47,590.89-20.67,3.41-59.85,6.62-81.28,7.67-7.84.38-22.51.71-30.44.71H6.06"/>
  <path id="f" data-name="Path 17" class="s" d="m1366.68,429.61c324.11-4.7,570.16,251.29,571.93,565.23,1.77,288.55-213.57,521.1-491.12,564.9-17.73,2.8-59.95,5.85-78.33,6.75-6.72.33-22.51.68-29.32.68H3.94"/>
  <path id="g" data-name="Path 18" class="n" d="m1362.37,429.87c311.19-5.88,542.58,237.99,544.8,536.51,2.22,277.36-206.89,498.7-474.78,538.9-14.8,2.22-60.06,5.07-75.37,5.82-5.6.27-22.52.64-28.19.64H0"/>
  <path id="h" data-name="Path 19" class="r" d="m1358.07,430.13c298.27-7.05,515,224.68,517.66,507.78,2.66,266.17-200.17,476.3-458.44,512.91-11.85,1.68-60.17,4.3-72.42,4.9-4.48.22-22.53.6-27.07.6H3.94"/>
  <path id="i" data-name="Path 20" class="p" d="m1353.76,430.38c285.34-8.23,487.42,211.38,490.53,479.05,3.1,254.98-193.39,453.88-442.1,486.91-8.9,1.18-60.28,3.53-69.46,3.98-3.36.16-22.54.56-25.94.56H3.34"/>
  <path id="j" data-name="Path 21" class="u" d="m1349.46,430.64c272.42-9.4,459.84,198.07,463.39,450.33,3.55,243.79-186.54,431.46-425.75,460.92-5.94.73-60.38,2.76-66.51,3.06-2.24.11-22.55.53-24.82.53l-1291.23-.53"/>
  <path id="k" data-name="Path 22" class="o" d="m1345.15,430.9c259.49-10.58,432.27,184.77,436.26,421.6,3.99,232.6-179.63,409.03-409.41,434.92-2.97.33-60.49,1.98-63.55,2.14-1.12.06-22.56.49-23.69.49H9.94"/>
</svg>