<svg fill="currentColor" xmlns="http://www.w3.org/2000/svg" viewBox="0 0 2544.65 2544.71"><path d="M1274.47,2544.71l-.59-400h1.71l1.17,400Zm-23.51-.17-2.59-.05,7.62-399.93,1.41,0Zm49.66-.14-8.87-399.9,1.71,0,9.4,399.88Zm-75.75-.56-2.29-.08,15.23-399.71,1.7.06Zm101.48-.25-16.51-399.66,1.41-.07,17.66,399.62Zm-127.55-1-2.29-.14,23.43-399.31,1.71.1Zm153.53-.39L1327.78,2143l1.37-.09,25.79,399.17Zm-179.57-1.37-2.3-.18,31.64-398.74,1.69.13Zm205.62-.51-32.78-398.66,1.39-.11,34,398.55Zm-231.64-1.77-2.28-.23,39.83-398,1.7.17Zm257.63-.65-41-397.9,1.67-.17,41.6,397.83Zm-283.6-2.17-2.29-.28,48.06-397.1,1.68.2Zm309.53-.78-49.11-397,1.63-.2,49.83,396.88Zm-335.16-2.53-2.56-.36,56.24-396,1.41.2Zm361.06-.95-57.31-395.87,1.61-.24,58,395.77Zm-386.91-2.93-2.55-.41,64.43-394.78,1.4.23Zm412.78-1.09-65.57-394.59,1.64-.27,66.23,394.48Zm-438.57-3.33-2.25-.41,72.07-393.45,1.68.31Zm464.35-1.22L1434,2129.8l1.68-.32,74.39,393Zm-490-3.72-2.27-.46,80.3-391.86,1.65.34Zm515.39-1.3-81.37-391.64,1.34-.28,82.61,391.38Zm-541-4.18-2.23-.5,88.44-390.1,1.67.37Zm566.58-1.43-89.56-389.85,1.61-.37,90.24,389.69ZM967,2507.79l-2.49-.62,96.6-388.16,1.39.34Zm617.05-1.58-97.29-388,1.39-.35,98.39,387.71Zm-642.44-5-2.25-.61,104.31-386.16,1.62.44Zm667.77-1.7L1504,2113.68l1.31-.36,106.63,385.53Zm-693.06-5.38-2.27-.66,112.59-383.83,1.57.46Zm718.31-1.82L1521,2108.81l1.57-.46,114.29,383.32Zm-743.2-5.7-2.53-.8,120.79-381.32,1.3.41Zm768.29-2L1538,2103.6l1.56-.5L1662,2483.9Zm-793.37-6.12-2.21-.74L992.45,2098.9l1.59.54Zm817.86-2-129-378.64,1.28-.44,130.18,378.22Zm-842.55-6.61-2.19-.79,136-376.17,1.59.57Zm867.4-2.17L1571.87,2092l1.36-.5,138.2,375.37Zm-891.9-6.93-2.43-.94,144.12-373.13,1.31.51Zm916.3-2.28-144.81-372.86,1.35-.53,145.83,372.47Zm-940.66-7.34-2.46-1,151.88-370,1.25.51Zm964.92-2.39L1605.2,2079l1.48-.62,153.22,369.5Zm-989.06-7.74-2.44-1,159.47-366.84,1.24.54Zm1013-2.43-160.05-366.58,1.47-.65,160.76,366.28Zm-1037-8.21-2.36-1.08,167-363.48,1.29.59Zm1060.82-2.5-167.73-363.13,1.45-.68,168.45,362.81ZM720.9,2419.28l-2.16-1,174.19-360.08,1.46.7Zm1108.18-2.57-175.34-359.52,1.55-.75,175.82,359.28Zm-1131.75-9.08-2.08-1.06,181.68-356.36,1.5.76Zm1154.9-2.49-182.41-356,1.54-.79,182.87,355.75Zm-1178-9.53-2.11-1.13L861,2041.88l1.42.76ZM1875.36,2393,1685.51,2040.9l1.41-.76,190.55,351.7Zm-1224-9.89-2.31-1.3,196.43-348.44,1.18.66Zm1246.81-2.69-197-348.13,1.51-.86,197.45,347.88ZM628.41,2369.94l-2-1.18,203.47-344.39,1.44.86Zm1292.25-2.59-204.07-344,1.5-.88,204.5,343.77ZM606.27,2356.62l-2.26-1.39,210.55-340.1,1.15.71Zm1336.64-2.78-211-339.8,1.48-.92,211.47,339.53ZM584.12,2342.68l-2.22-1.45,217.54-335.67,1.14.74ZM1964.68,2340l-217.52-335.69,1.12-.73,218.62,335ZM562.21,2328.24l-2.13-1.44,224.44-331.1,1.19.8Zm1424.29-2.72-224.59-331,1.25-.85,225.39,330.45Zm-1445.71-12-2.16-1.53,231.11-326.48,1.11.79Zm1467.09-2.82L1776.6,1984.31l1.3-.92,231.94,325.89ZM519.43,2298.12l-1.81-1.33L755,1974.87l1.43,1.05Zm1509.79-2.93L1790.82,1974l1.42-1L2031,2293.86ZM498.57,2282.46l-1.59-1.22,243.55-317.31,1.58,1.22Zm1551.35-2.93-244.76-316.38,1.4-1.08,245.12,316.09ZM478,2266.38l-1.71-1.37L726.57,1953l1.42,1.14Zm1592.26-2.94-251-311.43,1.23-1,251.66,310.91ZM457.94,2250l-1.78-1.49L712.7,1941.57l1.29,1.08Zm1632.54-3.14L1833,1940.7l1.21-1,258.09,305.6ZM438,2233l-1.89-1.65,263.15-301.24,1.12,1Zm1672.31-3.19L1846.55,1929.1l1.36-1.19L2112,2228.36ZM418.54,2215.72l-1.79-1.62,269-296,1.18,1.06Zm1711.26-3.32-269.94-295.18,1.31-1.21,270.27,294.89ZM399.42,2198.05l-1.76-1.66,275-290.5,1.15,1.08Zm1749.51-3.47-276-289.51,1.45-1.37,276,289.5ZM380.59,2179.92l-1.72-1.7L659.8,1893.48l1.13,1.11Zm1787.1-3.54-282-283.72,1.42-1.41,282,283.72ZM362.2,2161.48l-1.75-1.8,286.77-278.86,1,1.06Zm1823.58-3.39-287.2-278.41,1.1-1.14,287.78,277.82ZM344.06,2142.53l-1.44-1.54,292.07-273.3,1.3,1.38Zm1859.72-3.39-292.91-272.4,1.22-1.31,293.2,272.09Zm-1877.26-15.7-1.69-1.88,298-266.87,1,1.09Zm1894.88-3.61-298.48-266.29,1.18-1.33,298.77,266ZM309.3,2103.91l-1.65-1.91L611,1841.23l1,1.11Zm1929.2-3.62L1934.8,1840l1.18-1.38,303.95,260ZM292.4,2084l-1.46-1.77,308.39-254.74,1.08,1.31Zm1962.91-3.67-309-254,1.13-1.37,309.29,253.64ZM276,2063.75l-1.46-1.84,313.55-248.37,1,1.29Zm1995.61-3.7-314-247.8,1-1.25,314.51,247.15ZM260,2043.17l-1.39-1.82,318.52-242,1,1.36Zm2027.64-3.83-319.09-241.22,1-1.27,319.58,240.57Zm-2043.17-17-1.32-1.8,323.22-235.66,1,1.42Zm2058.64-3.92-323.82-234.82.93-1.29,324.3,234.15ZM229.28,2001.16l-1.38-2,328.19-228.68.91,1.3Zm2089-4.06-328.63-228,1-1.45,328.89,227.65ZM214.55,1979.65l-1.33-2L546,1755.77l.88,1.32ZM2333,1975.39l-333.36-221.07,1-1.46,333.63,220.66ZM200.36,1958l-1.36-2.13,337.27-215,.79,1.23ZM2347,1953.72l-337.51-214.67.72-1.14,338.21,213.57ZM186.46,1935.79l-1.24-2,341.59-208.13.84,1.39Zm2174.42-4.36-342-207.52.91-1.5,342.22,207.09Zm-2187.78-18-1.2-2,345.77-201.11.81,1.39ZM2374.19,1909l-346.11-200.53.81-1.39,346.5,199.84Zm-2214-18.12-1.1-2,349.67-194.23.84,1.5Zm2226.82-4.6-350.11-193.47.66-1.18,350.73,192.32ZM147.78,1868l-1.18-2.22,353.81-186.61.68,1.3Zm2251.74-5-354.2-185.86.75-1.43,354.56,185.16Zm-2263.7-18.14-1.13-2.25L492.23,1663.3l.66,1.31Zm2275.53-5-357.77-178.89.6-1.21,358.36,177.72ZM124.29,1821.45l-1-2,361-172.27.75,1.56Zm2298.59-5.22-361.54-171.14.74-1.57,361.77,170.66ZM113.3,1797.89l-.93-2.06L476.82,1631l.71,1.56Zm2320.56-5.49-365-163.54.71-1.59,365.26,163ZM102.79,1774.1l-.88-2.07,367.73-157.39.69,1.6Zm2341.55-5.75L2076,1612.47l.67-1.6,368.59,155.38ZM92.76,1750.06l-.9-2.23,371-149.47.6,1.48Zm2361.49-5.78-371.39-148.55.56-1.42L2455.17,1742Zm-2371-18.49-.8-2.12,373.9-142.12.61,1.61Zm2380.43-5.72-374.22-141.28.47-1.28,374.68,140.07ZM74.12,1701.21l-.76-2.15,376.82-134.2.58,1.63Zm2398.55-6-377.19-133.13.54-1.55L2473.46,1693Zm-2407-18.59-.79-2.38,379.56-126.23.47,1.42Zm2415.57-6.42-380-124.92.51-1.55L2481.93,1668ZM57.56,1651.72l-.72-2.31L438.92,1531l.47,1.51Zm2431.55-6.4-382.45-117.18.5-1.66,382.61,116.65ZM50,1626.71l-.67-2.33,384.45-110.47.43,1.52Zm2446.51-6.61-384.87-109,.47-1.65,385,108.42ZM43,1601.48l-.6-2.28,386.64-102.51.42,1.58Zm2460.34-6.37-386.93-101.42.35-1.32L2504,1592.56ZM36.53,1576.18l-.59-2.43,388.74-94.25L425,1481Zm2473.2-6.54-389-93.15.4-1.67,389.13,92.6ZM30.59,1550.82l-.55-2.5,390.59-86.24.31,1.41Zm2485-6.72-390.87-85,.36-1.67,391,84.41ZM25.15,1525.2l-.49-2.44L417,1444.59l.29,1.48Zm2495.67-6.46-392.45-77.32.27-1.4,392.68,76.19ZM20.23,1499.47l-.4-2.25L413.6,1426.9l.3,1.69Zm2505.36-6.38-394-69.28.23-1.3L2526,1490.45ZM15.88,1473.85l-.39-2.45,395.16-62.06.24,1.51Zm2514-6.6-395.32-61,.25-1.65,395.42,60.34ZM12,1448l-.33-2.45,396.35-53.86.21,1.51Zm2521.52-6.62-396.5-52.79.21-1.66,396.59,52.14ZM8.72,1422.06l-.27-2.31,397.35-45.94.2,1.67Zm2528-6.64-397.51-44.56.18-1.66L2537,1413.11ZM5.94,1396.11l-.22-2.31L403.93,1356l.16,1.68Zm2533.43-6.67L2141,1353.07l.15-1.67,398.4,35.74ZM3.7,1370.22l-.18-2.44,398.9-29.58.12,1.56Zm2537.78-6.82-399-28.13.12-1.7,399,27.54ZM2,1344.18l-.13-2.43,399.43-21.41.08,1.56Zm2541.07-6.55-399.48-20.5.07-1.41,399.54,19.33ZM.79,1318.12l-.07-2.28,399.77-13.54.06,1.71Zm2543.31-6.57-399.81-12.29,0-1.42L2544.18,1309ZM.14,1292.2l0-2.44,400-5.29,0,1.56Zm2544.49-6.74-400-4.1,0-1.71,400,3.52ZM400,1268.14,0,1266.09v-2.29l400,2.64Zm1744.66-4.68v-1.7l400-4.69,0,2.29ZM400.26,1250.11l-399.87-10,.06-2.44,399.85,10.84Zm1744-4.78,0-1.41L2544,1231l.08,2.58Zm-1743.4-13.11L1.3,1214.06l.11-2.29L401,1230.52Zm1742.68-4.79-.08-1.4,399.45-21.1.13,2.58ZM401.88,1214.21,2.73,1188.15l.17-2.44,399.09,27Zm1740.6-4.63-.12-1.69,399-28.73.16,2.29Zm-1739.24-13.2L4.71,1162.12l.21-2.44,398.45,35.15Zm1737.8-4.63-.16-1.68,398.29-36.93.21,2.29ZM405,1178.59,7.21,1136.12l.25-2.29,397.67,43.07ZM2139.23,1174l-.19-1.68,397.45-45.14.25,2.3ZM407,1160.83,10.24,1110.18l.3-2.29,396.7,51.27Zm1730-4.58-.22-1.69,396.43-53.33.3,2.27ZM409.48,1143,13.79,1084.43l.37-2.43,395.55,59.48Zm1725.05-4.44-.26-1.67,395.24-61.53.35,2.29ZM412.28,1125.39,17.9,1058.59l.41-2.42,394.23,67.7Zm1719.31-4.71-.24-1.38,393.87-69.75.45,2.57ZM415.44,1107.85l-392.91-75,.43-2.25,392.8,75.58Zm1712.9-4.7-.27-1.37,392.33-77.94.5,2.55ZM419,1090.23l-391.31-82.9.51-2.4,391.12,83.79Zm1705.75-4.51-.36-1.65,390.74-85.59.49,2.26ZM422.85,1072.88,33.37,981.74l.52-2.22,389.35,91.69Zm1697.86-4.76-.34-1.39L2509.22,973l.6,2.5Zm-1693.6-12.67-387.55-99,.65-2.52L427.46,1054.1Zm1689.34-4.33-.43-1.62,386.79-102,.59,2.24Zm-1684.72-13L46.28,931.24l.66-2.37,385.2,107.79Zm1680-4.43-.46-1.62,384.69-109.58.64,2.24ZM436.65,1021.14,53.58,906l.67-2.23,382.88,115.77Zm1670-4.44-.49-1.61,382.27-117.76.68,2.23ZM442,1004,61.39,880.93l.71-2.21L442.5,1002.4Zm1659.26-4.48-.51-1.55,379.82-125.44.75,2.25ZM447.71,986.87l-378-130.68.81-2.34L448.22,985.41Zm1647.74-4.35-.45-1.28,377-133.58.88,2.5ZM453.73,970,78.51,831.45l.86-2.32,374.9,139.46ZM2089.44,966l-.59-1.56,374.23-141.25.82,2.17ZM460.08,953.39,87.89,806.85l.81-2L460.75,951.7ZM2082.85,949l-.5-1.25,371.27-148.86,1,2.47Zm-1616-12.21L97.73,782.58l.84-2,369,154.53Zm1609.4-3.92-.63-1.47,368.06-156.65.93,2.19ZM473.9,920.27,108.06,758.52l.89-2L474.63,918.62Zm1595.12-4-.57-1.27,364.77-164.15,1.06,2.37ZM481.34,903.88,118.86,734.76l1-2.24,362.1,170Zm1580.26-3.71L2061,899l361.23-171.8,1.13,2.4ZM489,887.82,130.22,711l1-2L489.84,886.2ZM2053.75,884l-.6-1.2,357.77-178.88,1.18,2.37ZM497.12,871.82,142,687.69l1-2L498,870.21Zm1548.59-3.54-.65-1.25L2399,680.66l1.2,2.29ZM505.59,855.87,154.23,664.7l1.12-2.05,351,191.75Zm1531.77-3.16-.8-1.46,350.12-193.43,1.12,2ZM514.29,840.28,167,641.8l1.16-2,347,199.06Zm1514.27-3.19-.84-1.44,346.17-200.41,1.17,2ZM523.33,824.83,180.23,619.21l1.2-2L524.19,823.4Zm1496.14-3.12-.86-1.42,342-207.44,1.2,2ZM532.68,809.58,193.91,596.9l1.18-1.87,338.55,213Zm1477.39-3.06-.85-1.34,337.62-214.51,1.28,2ZM542.41,794.42,208,575l1.35-2.05L543.27,793.12Zm1458-2.84-.88-1.33,333.09-221.47,1.33,2Zm-1448-12L222.54,553.29l1.33-1.95L553.33,778.19Zm1437.92-2.84-.81-1.17,328.42-228.34,1.46,2.1ZM562.69,764.87l-325.16-233,1.36-1.89L563.67,763.5ZM1980,762l-.84-1.16L2302.91,526l1.5,2.07ZM573.22,750.48,253,510.76l1.27-1.69L574.35,749ZM1969.61,748l-1.2-1.59,319-241.27,1.2,1.6ZM584.12,736.22,268.85,490l1.36-1.74,315,246.51Zm1374.53-2.45-1.18-1.49,314.06-247.73,1.29,1.64ZM595.31,722.18,285.09,469.66l1.54-1.88L596.3,721Zm1352.19-2.29-1.27-1.54,308.95-254.08,1.26,1.54ZM606.72,708.45,301.82,449.54l1.49-1.76L607.82,707.16Zm1329.09-2.53-1-1.21,303.58-260.46,1.56,1.83ZM618.54,694.8,318.8,429.93l1.68-1.89,299,265.65Zm1305.56-2.31-1.06-1.18,298.09-266.73,1.61,1.8ZM630.5,681.55l-294.18-271,1.64-1.77L631.58,680.38Zm1281.61-2.25-1.16-1.24,292.64-272.7,1.5,1.61ZM642.8,668.46,354.16,391.54l1.67-1.74L643.9,667.32Zm1256.82-2.35-1-1.06,287.06-278.56,1.75,1.81ZM655.29,655.71,372.45,372.87l1.56-1.56L656.56,654.44Zm1231.8-2.3-1.13-1.12L2167.33,368l1.72,1.7Zm-1219-10.26L391,354.64l1.66-1.59L669.32,642Zm1206.12-2.26-1.07-1,275.42-290.08,1.82,1.74Zm-1193.05-10L410,336.8l1.86-1.7L682.26,629.85Zm1180.08-2.08-1.32-1.21,269.65-295.44,1.64,1.49ZM694.47,618.83,429.31,319.35l1.88-1.66,264.4,300.16Zm1153.33-2.12-1.11-1L2110,314.63l1.9,1.66ZM708,607.09,449,302.29l1.84-1.56L709.23,606.06ZM1834.19,605l-1.13-1,257.17-306.38,1.93,1.63ZM721.71,595.7,469.08,285.57l1.71-1.39L723.1,594.57Zm1098.87-2-1.38-1.11,250.91-311.52,1.73,1.4ZM735.69,584.54,489.45,269.32l1.73-1.36L737.1,583.44Zm1070.66-2.06-1.17-.9,244.38-316.67,2,1.55ZM749.9,573.66,510.13,253.49l1.79-1.34L751.31,572.61ZM1792,571.58l-1.19-.88,238-321.47,2,1.5ZM764.39,563,531.06,238.14l2-1.42,232.6,325.41Zm1013.34-1.83-1.53-1.09L2007.78,234l1.73,1.23ZM779,552.78,552.4,223.15l2-1.38L780.28,551.9ZM1763,551l-1.42-1,224.57-331,1.89,1.29Zm-969.25-8.12L574.07,208.58l1.84-1.2L795.27,541.86ZM1748.11,541l-1.57-1,218-335.37,1.79,1.16Zm-939.26-7.86L595.93,194.53l2.07-1.3,212.16,339.1Zm924-1.86-1.36-.85,210.9-339.88,2,1.27ZM824.07,523.8l-206-342.9,2.1-1.26L825.39,523ZM1717.54,522l-1.4-.83L1920.08,177l2.05,1.21Zm-878.06-7.2-198.93-347,2.13-1.21L840.82,514ZM1702.1,513l-1.39-.79,196.65-348.32,2.1,1.19ZM855,506.07,663.31,155l2.1-1.15,191,351.45Zm831.47-1.73-1.42-.76L1874.4,151.22l2.11,1.14ZM870.72,497.7l-184.4-355,1.95-1,184,355.15Zm800-1.69-1.67-.86,182.39-356,1.9,1Zm-784.05-6.38L709.52,131l2-1L888.19,488.87Zm768-1.69-1.46-.7,174.67-359.85,2.15,1Zm-751.89-6.05L733,119.71l2.1-1L904.23,481.19Zm735.63-1.68-1.47-.68,167.35-363.31,2.17,1Zm-719.46-5.69L756.68,108.89l2.05-.91L920.47,473.82Zm703.17-1.65-1.49-.65,159.71-366.73,2.2,1Zm-686.87-5.39L780.61,98.56l2-.84L936.85,466.79Zm670.41-1.62-1.5-.62,152-370,2.21.91Zm-653.89-5.11-147-372,2.16-.85L953.27,460.14Zm637.19-1.6-1.52-.59,144.47-373,2.23.86Zm-620.46-4.81L829,79.42l2.31-.86L969.88,453.8Zm603.71-1.51-1.63-.6L1707.39,76.38l2.14.78ZM985.21,448.3,853.63,70.56l2.25-.78,130.87,378Zm569.87-1.52-1.42-.48L1682.6,67.65l2.38.81Zm-553-4.17L878.43,62.21l2.21-.72,123.06,380.6ZM1538,441.14l-1.35-.43,121-381.27,2.48.79Zm-518.9-3.87L903.4,54.37l2.22-.67,115.1,383.08Zm501.82-1.39-1.35-.4L1632.65,51.79l2.48.73Zm-484.63-3.63L928.44,47.07l2.23-.62L1037.93,431.8ZM1503.84,431l-1.44-.4L1607.52,44.66l2.41.66Zm-450.27-3.39L953.66,40.29l2.35-.61,99.08,387.54Zm433.12-1.13-1.66-.42,97.29-388,2.22.55ZM1071,423.31,979,34l2.5-.59L1072.35,423Zm398.15-1.07-1.33-.31,89-390,2.57.59Zm-380.79-2.84L1004.53,28.28l2.24-.48L1090,419Zm363.54-.95-1.61-.34,81.09-391.69,2.29.48Zm-345.95-2.63L1030.05,23.08l2.39-.46,75,392.9Zm328.35-.86-1.54-.28,73-393.29,2.39.44Zm-310.81-2.34L1055.79,18.39l2.4-.41L1125,412.36Zm293.18-.77-1.45-.24L1479.9,16.88l2.49.41Zm-275.55-2.07L1081.6,14.23l2.28-.34,58.87,395.64ZM1399,409.1l-1.61-.23,56.82-395.94,2.34.33Zm-240.24-1.8L1107.48,10.6l2.28-.29,50.69,396.78Zm222.45-.59-1.52-.19,48.6-397,2.46.31Zm-204.56-1.54L1133.28,7.53l2.44-.26L1178.18,405Zm186.82-.48-1.55-.16L1402.35,6.58l2.43.25Zm-169-1.27L1159.27,5l2.44-.22L1196,403.28Zm151.23-.39-1.53-.13,32.2-398.7,2.45.2Zm-133.4-1-27-399.09,2.29-.15L1214,401.92Zm115.57-.3-1.69-.11,24.3-399.26,2.3.15Zm-97.57-.74-19-399.54,2.44-.12,18.16,399.59Zm79.56-.2-1.56-.07L1324.38,1.05l2.44.1Zm-61.66-.46L1237.29.47l2.43-.06,10,399.88Zm43.78-.11-1.56,0L1298.29.26l2.44,0Zm-25.78-.2L1263.23,0h2.44l2,400Zm7.74,0h-1.56V0h2.44Z"/></svg>