<svg fill="currentColor" xmlns="http://www.w3.org/2000/svg" viewBox="0 0 1426.27 1426.29"><path d="M717.79,1426.29l-1.46-200h1.85l1.76,200Zm-17.48-.1-2.3,0,4.11-200,1.7,0Zm37.11-.3L730.66,1226l1.69-.06,7.36,199.86Zm-56.88-.32-2.15-.1,9.38-199.78,1.85.08ZM757,1425l-12-199.64,1.55-.1,12.89,199.59Zm-96.08-.56-2.29-.17,15-199.44,1.7.13Zm116-.93L759,1224.28l1.85-.16L779,1423.29Zm-135.67-.77-2.44-.25,20.82-198.91,1.54.15Zm155.36-1.25-23.43-198.62,1.84-.22,23.73,198.59Zm-175-1-2.29-.3,26.08-198.29,1.68.22Zm194.51-1.54L787.37,1221l1.67-.25,29.31,197.84Zm-214.13-1.25-2.12-.34,31.34-197.53,1.83.29Zm233.55-1.84-34-197.09,1.52-.27,34.87,196.94Zm-252.94-1.48-2.26-.42,36.91-196.57,1.67.32Zm272.58-2.2-39.84-196,1.82-.38,40.12,195.94Zm-292-1.68-2.24-.49,42.46-195.44,1.67.36ZM874.38,1408l-45.12-194.85,1.64-.38,45.74,194.7ZM543.76,1406l-2.12-.52,47.79-194.21,1.77.43Zm349.89-2.8L843,1209.75l1.76-.46,51,193.39Zm-369-2.14-2.21-.61,53.31-192.76,1.64.45ZM912.57,1398l-55.72-192.08,1.52-.45,56.52,191.85Zm-406.89-2.39-2.36-.73,58.9-191.13,1.48.46Zm425.94-3.44-61.31-190.37,1.64-.53,61.83,190.2Zm-445-2.64-2.1-.7,63.95-189.5,1.7.57Zm463.65-3.66-66.48-188.63,1.57-.56,67.1,188.41ZM467.91,1383l-2-.75L535,1194.58l1.73.63Zm501-3.93-71.7-186.7,1.51-.59,72.41,186.44Zm-519.52-3.16-2-.81,74.43-185.63,1.72.69Zm537.9-4.2-77-184.58,1.61-.67,77.46,184.39Zm-556.15-3.37-2.14-.92L508.69,1184l1.54.67Zm574.05-4.37L923.43,1181.4l1.34-.6,82.67,182.11ZM413,1360.24l-2.23-1,85-181,1.4.65Zm610.15-4.7-87.09-180,1.5-.72,87.67,179.75Zm-628.12-4-2-1,89.74-178.74,1.62.81Zm645.56-4.78L949,1169.05l1.31-.67,92.6,177.27Zm-663.08-4.27-2.19-1.18,95-176,1.33.71Zm680.58-5.1-96.78-175,1.34-.75,97.58,174.59Zm-698-4.51-2-1.16,99.7-173.38,1.46.84Zm715.14-5.32L973.62,1155.39l1.43-.85,102.25,171.89Zm-732.16-4.7-2.12-1.3,104.65-170.43,1.3.79Zm748.95-5.52L985.8,1148l1.35-.85,107,169Zm-765.74-5L324.3,1311l109.31-167.48,1.31.85Zm782.3-5.72L997.72,1140.25l1.31-.89,111.62,166Zm-798.79-5.27-1.95-1.35L421.74,1135.6l1.35.92Zm815-5.89-115.44-163.32,1.26-.9,116.17,162.8ZM293.75,1290l-2-1.47,118.45-161.15,1.23.9Zm847.15-6.17-120-160,1.33-1,120.57,159.57Zm-863-5.69-1.92-1.49,122.78-157.87,1.24,1Zm878.49-6.29-124.18-156.77,1.14-.92,125,156.12Zm-894-6-1.83-1.5,127.07-154.44,1.26,1Zm909.43-6.57L1043.1,1106.18l1.37-1.16,129,152.8Zm-924.52-6.1-1.79-1.55,131.19-151,1.24,1.07Zm939.41-6.77-132.81-149.53,1.18-1.06,133.43,149ZM232.5,1240l-1.74-1.6,135.36-147.23,1.21,1.1Zm968.83-7-136.95-145.75,1.23-1.16L1203,1231.43Zm-983.26-6.57-1.52-1.47,139.1-143.71,1.33,1.29Zm997.65-7.33-141.28-141.56,1.42-1.42,141.27,141.57Zm-1011.63-6.53-1.62-1.65,143.17-139.66,1.18,1.21Zm1025.26-7.38-144.75-138,1.09-1.15L1231,1203.46Zm-1038.93-6.94-1.53-1.66,147-135.66,1.18,1.28Zm1052.39-7.58-148.55-133.9,1.2-1.34,148.83,133.6Zm-1065.59-7-1.55-1.77,150.7-131.5,1.08,1.23Zm1078.58-7.76L1103.7,1046l1.09-1.29,152.51,129.39Zm-1091.4-7.26-1.5-1.81,154.26-127.28,1,1.26Zm1104.05-8L1112.76,1035.1l1.06-1.31,156.09,125ZM152,1153.29l-1.39-1.78,157.61-123.13,1.06,1.37Zm1128.57-8.07-158.91-121.45.89-1.18,159.54,120.61ZM140,1137.62l-1.43-1.93,161.09-118.54.94,1.27Zm1152.32-8.33L1130.1,1012.35l.91-1.27,162.77,116.23Zm-1163.87-7.7-1.29-1.86,164.16-114.24,1,1.42Zm1175.31-8.67-165.64-112.09,1-1.49L1305,1111.09Zm-1186.41-7.68-1.28-1.94L283.46,993.79l.91,1.39Zm1197.22-8.74L1146.06,988.82l.86-1.35,169,107Zm-1207.86-7.88-1.22-2L275.85,981.81l.87,1.42ZM1325,1079.68l-171.45-103,.83-1.37,171.85,102.29Zm-1228.43-8-1.13-2L268.53,969.56l.87,1.49ZM1335,1062.46l-174.35-98,.88-1.58,174.54,97.65ZM86.89,1054.54l-1.07-2L261.6,957.17l.83,1.52Zm1257.56-9.39-176.92-93.28.75-1.43L1345.56,1043Zm-1266.76-8L76.6,1035l178.48-90.27.72,1.43Zm1275.76-9.64L1174,939.2l.74-1.51,179.76,87.68ZM69,1019.44l-1-2.16L248.84,932l.68,1.44Zm1293-10L1180.05,926.4l.73-1.59,182.14,82.61ZM60.74,1001.53l-1-2.18L243,919.08l.65,1.47Zm1309.17-10-184-78.29.58-1.37,184.44,77.33C1370.57,989.94,1370.24,990.72,1369.91,991.49ZM53,983.38l-.91-2.22,185.36-75.11.61,1.49Zm1324.47-10.47L1191.17,900.2l.66-1.69,186.45,72.36Zm-1331.73-8L45,962.8l187.32-70.06.61,1.61Zm1338.73-10.66-188.32-67.35.63-1.76,188.41,67.08ZM39,946.33l-.72-2.09,189.16-65L228,881Zm1351.9-10.81-190.11-62.11.58-1.78,190.2,61.85Zm-1358.1-8-.68-2.17,190.93-59.54.52,1.64Zm1364-10.88-191.74-56.88.51-1.74,191.85,56.53ZM27.14,908.58l-.62-2.16L219,852.21l.47,1.68Zm1375-10.94-193.25-51.53.44-1.66,193.4,51ZM22,889.53l-.58-2.32,194-48.65.4,1.56Zm1385-11.16-194.65-46,.43-1.81,194.71,45.68ZM17.39,870.27l-.5-2.23,195.24-43.39.37,1.67Zm1393.93-11.09-195.81-40.75.34-1.65,195.93,40.13Zm-1398-8.33-.42-2.17,196.37-38,.34,1.76Zm1401.76-11L1218.23,804.4l.27-1.55,197,34.59C1415.35,838.24,1415.21,839,1415.06,839.84ZM9.78,831.43l-.38-2.28,197.37-32.36.27,1.66Zm1408.53-11.28-197.79-29.6.27-1.81L1418.63,818ZM6.79,811.84l-.31-2.22,198.18-26.93.24,1.75ZM1421,800.68l-198.51-24.34.2-1.68,198.59,23.73ZM4.35,792.27,4.1,790,203,768.6l.19,1.68ZM1423.11,781,1224,762.23l.16-1.69,199.17,18.16ZM2.45,772.56l-.19-2.29,199.37-15.81.14,1.69Zm1422.24-11.15-199.55-13.48.1-1.55L1424.85,759C1424.8,759.78,1424.74,760.6,1424.69,761.41ZM1.09,752.9,1,750.53,200.7,740.28l.09,1.62Zm1424.66-11.39-199.86-7.62L1226,732l199.87,7.32ZM.28,733.21l-.06-2.29,199.94-5,0,1.69Zm1426-11.33-200-2.35,0-1.7,200,1.76ZM200,713.68v-.29l-200,0v-2.26l200,.51Zm1026.24-8.36,0-1.84,200-3.53,0,2.15Zm-1026-6.18L.26,693.72l.07-2.29,199.91,6ZM1225.83,691l-.07-1.7,199.79-9.09.1,2.3ZM200.76,684.87,1.06,674l.13-2.37,199.66,11.58ZM1225,676.67l-.11-1.55,199.46-14.66c.06.81.12,1.63.17,2.44Zm-1023.3-6L2.39,654.37l.21-2.44,199.26,17.14Zm1022.12-8-.16-1.69,199-20.22.23,2.28ZM203.08,656.49,4.28,634.66l.24-2.21,198.76,22.28Zm1019.2-7.94-.23-1.83,198.37-25.49.27,2.13ZM204.84,642.33,6.7,615.09,7,612.81l198,27.83Zm1015.46-8-.26-1.67,197.57-31.07.36,2.29ZM207,628.31,9.67,595.5l.38-2.26,197.2,33.38Zm1011-8.07-.28-1.53,196.61-36.63.45,2.41ZM209.49,614.3,13.18,576.06l.46-2.33,196.17,39Zm1005.73-7.82-.38-1.79,195.56-41.92.45,2.12Zm-1002.81-6.1L17.24,556.71l.5-2.25,195,44.26Zm999.66-7.83-.4-1.65L1406,543.43l.54,2.24ZM215.7,586.61,21.84,537.41l.56-2.19,193.72,49.71Zm992.87-7.77-.47-1.74L1401,524.33l.58,2.12Zm-989.18-6L27,518.36l.63-2.24,192.26,55.1ZM1204.62,565l-.44-1.47,191.31-58.31c.24.79.48,1.58.71,2.36Zm-981.17-5.75L32.63,499.35l.7-2.22L224,557.66Zm976.92-7.7-.52-1.57,189.62-63.59.74,2.22Zm-972.46-5.85L38.84,480.5l.78-2.25,188.83,65.91Zm967.81-7.56-.58-1.57,187.78-68.84.8,2.18Zm-963-5.86L45.57,461.83c.29-.76.58-1.51.86-2.27l186.88,71.25Zm957.89-7.54-.56-1.41,185.76-74.12.92,2.31Zm-952.7-5.68L52.85,443.31l.85-2.07,184.92,76.19Zm947.36-7.32-.66-1.52,183.66-79.18.92,2.13ZM243.53,506,60.61,425.07l.92-2.07,182.7,81.35Zm936.06-7.06-.75-1.63,181.43-84.16.92,2ZM249.47,493,68.87,407.06l1-2.13L250.18,491.5Zm924-6.89-.79-1.61,179-89.14,1,2Zm-917.7-5.9L77.63,389.29l1.08-2.1,177.82,91.54ZM1167,473.46l-.83-1.55,176.48-94.12,1,2Zm-904.6-5.84L86.9,371.75,88,369.67l175.17,96.51ZM1160.18,461l-.81-1.41,173.74-99.07,1.16,2Zm-890.76-5.74L96.63,354.49l1.2-2L270.25,453.8Zm883.64-6.43-.92-1.53,171-103.72,1.14,1.87ZM276.78,443,106.83,337.54l1.29-2.06L277.61,441.65Zm868.77-6.3-1-1.47L1312.67,326.8l1.21,1.88ZM284.44,431,117.52,320.85l1.25-1.89L285.4,429.56Zm853.24-6.23-.94-1.38,165-113,1.31,1.91Zm-845.21-5.57L128.62,304.51l1.33-1.89,163.49,115.2Zm837-6.13-.89-1.22L1290.3,294.17l1.46,2Zm-828.71-5.39L140.22,288.42l1.36-1.81L301.81,406.3Zm820.21-6-.92-1.2,158.44-122,1.5,2Zm-811.53-5.32L152.19,272.75l1.47-1.85,156.8,124.15Zm802.74-5.84-1-1.18,155-126.4,1.56,1.93Zm-793.78-5.24L164.62,257.39l1.52-1.82L319.46,384Zm784.82-5.52-1.16-1.36,151.52-130.54,1.43,1.67Zm-775.59-5.27L177.49,242.33l1.5-1.69,149.8,132.52ZM1093.77,369l-1.14-1.25L1240.5,233.05l1.54,1.71Zm-756.54-5.12L190.7,227.73l1.62-1.73,146,136.65Zm746.87-5.27-1.2-1.26L1227,218.64l1.56,1.63Zm-737-5L204.34,213.45l1.7-1.72L348.19,352.42Zm727-5.2-1.13-1.12,140.17-142.66,1.72,1.7Zm-716.88-4.79-138.76-144,1.71-1.64L358.34,342.43Zm706.65-5.06-1.2-1.12,136.2-146.45,1.73,1.61Zm-696.26-4.68L232.81,186l1.71-1.56L368.8,332.69Zm685.72-4.92-1.26-1.11,132.2-150.08,1.73,1.53ZM378.2,324.38,247.58,172.93l1.75-1.51L379.48,323.28Zm664.35-4.72-1.33-1.11,128-153.72,1.74,1.45ZM389.1,315.24l-126.4-155,1.8-1.46,125.9,155.4Zm642.41-4.58-1.37-1.08L1153.81,152.4l1.78,1.4Zm-631.28-4.25L278.18,148l1.79-1.38L401.61,305.35Zm619.95-4.47-1.39-1,119.34-160.49,1.82,1.36Zm-608.54-4.07L294,136.16l1.91-1.39L413,296.91Zm597-4.33-1.36-1,114.79-163.78,1.92,1.36Zm-585.37-3.88L310.06,124.78l1.95-1.33L424.6,288.74Zm573.62-4.16-1.4-.93,110.23-166.88,1.94,1.28ZM435,281.81l-108.52-168,1.84-1.2L436.55,280.84Zm549.93-4-1.48-.92L1089,107l1.93,1.2ZM447.1,274.25,343.21,103.35l2-1.22L448.49,273.41Zm525.55-3.91-1.33-.78L1072,96.77l2.13,1.25ZM459.3,267.07,360.23,93.33l2-1.17,98.44,174.1Zm501-3.76-1.42-.77,95.94-175.49,2.1,1.15ZM471.72,260.2,377.49,83.79l2.05-1.09,93.65,176.72Zm476-3.57-1.49-.77L1037.34,77.8l2.08,1.07ZM484.3,253.71,395,74.73l2-1,88.86,179.18ZM935,250.26l-1.46-.7,86-180.54,2.16,1Zm-437.9-2.71L412.79,66.18l2.07-1,83.75,181.62Zm425-3.27-1.47-.66,80.93-182.89,2.19,1ZM510,241.77,430.8,58.1l2.1-.9,78.63,183.9Zm398.95-3.13-1.44-.59L983.24,53l2.27.94Zm-385.83-2.32L449,50.56l2.17-.85,73.52,186Zm372.72-2.89-1.63-.62L964.82,45.7l2.11.81Zm-359.47-2.19L467.46,43.48l2.14-.78,68.36,188Zm346.1-2.69-1.66-.57L946.13,39l2.13.74Zm-332.7-2L486.14,36.92l2.14-.71L551.39,226ZM868.93,224l-1.65-.52,60-190.8,2.18.69Zm-305.65-1.83L505,30.89l2.21-.67L564.9,221.71Zm292-2.3-1.62-.46,54.62-192.4,2.23.64ZM576.9,218.26,524,25.38l2.2-.59,52.38,193Zm264.69-2.08-1.63-.42L889.15,21.91l2.25.57Zm-251-1.49L543.16,20.41l2.17-.53,47,194.39Zm237.16-1.86-1.68-.38L869.93,17.31l2.23.5ZM604.5,211.5,562.43,16l2.2-.47,41.58,195.63Zm209.43-1.63-1.73-.34L850.58,13.25l2.2.43ZM618.44,208.7,581.81,12.09l2.27-.42,36,196.73Zm181.5-1.41-1.66-.28L831.06,9.72l2.28.38Zm-167.45-1L601.27,8.74l2.29-.36L634.15,206Zm153.37-1.19-1.7-.24L811.57,6.75l2.26.31Zm-139.34-.82L620.88,5.92l2.28-.29,25.05,198.43Zm125.25-1-1.68-.19L791.91,4.31l2.29.25Zm-111.07-.66-20.22-199,2.28-.23,19.63,199Zm96.8-.76-1.61-.13L772.28,2.42l2.37.2Zm-82.66-.48L660.19,1.94l2.37-.17,13.91,199.52Zm68.49-.53-1.62-.09L752.54,1.07l2.37.14Zm-54.23-.32L679.87.77l2.44-.11,8.34,199.82Zm40-.31-1.63-.05L732.85.27l2.37.07Zm-25.72-.15L699.53.13l2.37,0,3.08,200Zm11.43-.09h-1.63V0h2.37Z"/></svg>