<svg xmlns="http://www.w3.org/2000/svg" viewBox="0 0 338.04 59.99"><path class="blink" d="M34.61,0,25.7,8.91H8.91L0,0Zm0,60H0l8.91-8.91H25.7ZM26.82,25.53,31.27,30l-4.45,4.45H7.8L3.34,30,7.8,25.53Zm.51-2.85V10.55l8.91-8.78V24.94L32.9,28.36ZM36.24,35V58.2l-8.91-8.9V37.24l5.57-5.55Z" fill="#ee584a"/><path  d="M69.56,18.94V10h8.91v8.92Zm0,41V51.05h8.91V60Z" fill="#ee584a"/><path class="blink" d="M148,0l-8.9,8.91H122.34L113.42,0Zm0,60H113.42l8.91-8.91h16.79Zm-7.8-34.44L144.69,30l-4.46,4.45h-19L116.77,30l4.45-4.46Zm.52-2.85V10.55l8.91-8.78V24.94l-3.34,3.42ZM149.66,35V58.2l-8.91-8.9V37.24l5.57-5.55Z" fill="#ee584a"/><path class="blink" d="M159.68,24.93V1.68l8.92,8.79V22.66L163,28.35Zm8.92,12.35v12.1l-8.92,8.9V35L163,31.7ZM196,0,187.1,8.91H170.31L161.4,0Zm0,60H161.4l8.91-8.91H187.1Zm-7.28-37.29V10.55l8.9-8.78V24.94l-3.34,3.42ZM197.63,35V58.2l-8.9-8.9V37.24l5.56-5.55Z" fill="#ee584a"/><path class="blink" d="M252.2,24.93V1.68l8.92,8.79V22.66l-5.57,5.69Zm8.92,12.34v13.8L252.2,60V35l3.35-3.34Zm23-32.86-4.46,4.5H262.84L253.92,0h25.7Zm-3.34,21.12L285.19,30l-4.45,4.45h-19L257.26,30l4.46-4.46Zm9.42-.6-3.34,3.43-5.57-5.66V10.62l4.45-4.45,4.46,4.45Z" fill="#ee584a"/><path class="blink" d="M300.18,24.93V1.68l8.91,8.79V22.66l-5.57,5.69Zm8.91,12.34v13.8L300.18,60V35l3.34-3.34ZM336.5,0l-8.91,8.91H310.8L301.89,0ZM315,15.44,319.5,11l4.41,4.48V33.05l-4.41,4.56L315,33.05Zm14.14,7.27V10.64L338,1.85V25l-3.34,3.41ZM338,35V60l-8.9-8.91V37.27l5.56-5.57Z" fill="#ee584a"/></svg>