<svg fill="currentColor" xmlns="http://www.w3.org/2000/svg" viewBox="0 0 134.12 134.41"><path d="M61.72,134.41c-.72-.06-1.43-.12-2.14-.2l7.1-64.87Zm24.66-2.69L67,67.83l21.34,63.25C87.72,131.3,87.05,131.52,86.38,131.72ZM35.8,127c-.62-.33-1.24-.66-1.85-1L66.42,68.19l.28-.67L64.85,69.1l.38-.37L14.94,110.12c-.45-.54-.88-1.08-1.31-1.63L66.22,67.78l.37-.35.17-.07h0l0,0-.07,0h0l0,0-2.47-.17,2.37.11-.1,0h.06L8.39,34c.34-.61.7-1.2,1.06-1.79L65.73,66.64l.9.43-.14-.18-1.37-1.64.87,1L26.08,13.76c.54-.41,1.1-.82,1.65-1.22L66.78,67.13h0l0,0,.06.08L66.78,67l.08-67c.7,0,1.39,0,2.08,0l-2,66.57,0,.57h0l0,0v0l0,0,0-.15L93.26,5.38c.62.27,1.24.54,1.85.83L67,67l.06-.06-.12.24h0v0h0v0l2-1.56-2,1.6h0v0h0l.09,0,67,2.63c0,.7-.07,1.4-.12,2.09L67.93,67.39l-.82-.1.09,0h0L127.73,96c-.3.64-.61,1.26-.93,1.88L67,67.32l.15.16,2,1.25-1.89-1.08,44.38,49.89c-.52.47-1,.92-1.58,1.37L67.3,67.85l1.16,1.62-1.56-2v0h0v0l0,0h0v0l0,0h0l0,.1h0l-.14.29.08-.15-1,2.11.59-1.39ZM66.88,67.37v0h0Zm0,0v0h0Zm0,0h0v0Zm0,0h0Zm0,0h0Zm0,0h0Zm0,0Zm0,0h0Zm0,0Zm.07,0v0h0Zm-.07,0h0Zm0,0h0Zm.13,0Zm-.26,0,0,0v0Zm0,0h.06l0,0-.53-.27ZM2.31,86.37q-.3-1-.57-2L66.06,67.52ZM66.78,70V68.38l.07-.62Zm0-2,0-.49Zm-.6-.76L0,59.6c.08-.7.17-1.4.27-2.09Zm.81,0,.14-.25,48.24-46.26c.48.5,1,1,1.43,1.53Zm.91-.23,61.86-23.6c.25.66.49,1.33.72,2Zm-1.23-.3,0-.07L50.33,2.05c.68-.17,1.36-.33,2.05-.48Z" /></svg>