<svg fill="currentColor" xmlns="http://www.w3.org/2000/svg" viewBox="0 0 493.94 494.2"><path d="M261.5,494.2l-14-244.74,0,.22,20.87,244C266.13,493.9,263.8,494.07,261.5,494.2Zm-50.76-2.3c-2.13-.32-4.3-.67-6.45-1L246.4,251.4l.64-2.69ZM318.86,484,247.39,247.6v.11l-.07-.11,0-.08h0v0l.06.18v0l.12.19.18.46-.22-.38L325.36,482C323.22,482.69,321,483.39,318.86,484Zm-164.3-7.46c-2.2-.89-4.4-1.82-6.53-2.76l98.08-223.44Zm217.71-15.86L247.91,248.58l-.26-.59L378,457.26C376.12,458.43,374.19,459.59,372.27,460.72ZM103.65,448.61c-1.82-1.3-3.65-2.64-5.45-4L246.9,247.9l-.21.38Zm314.67-22.67L247.68,247.71l.47.66-.73-.91.11.1-.07-.08,0,0-.07-.1h0v0l.17.16-.07,0,.11.08.48.47-.46-.39.66.59,174.79,173C421.53,422.82,419.92,424.41,418.32,425.94ZM60.86,409.78c-1.48-1.7-3-3.45-4.39-5.18L246.23,248.14h0l0,0,.86-.7h0l.08,0h0v0h0l0,0h0l-.07,0v-.05h0l0,0h0l-.05,0,.05,0H247l-.28,0h0l-.4,0H247l-.07,0,.07,0h.12l0,0h0l-.38-.12.11,0-.35-.14.1,0-221-109.32c1-2.05,2.07-4.11,3.13-6.12L246.64,247l.39.11-.38-.32.18.11.24.21L247,247l.08.06L246,245.91l.92.91-.4-.68L99.09,49.33c1.8-1.35,3.63-2.68,5.45-4L246,245.32l.12.19-.08-.13,1.12,1.59,0-.22L149.22,20.26c2.08-.9,4.21-1.78,6.32-2.63l91.58,229.11v-.05l0,.15v0l0,.17v-.06h0l.09.22h0v.06h0v0h0l0-.08v.09l.06,0h0l.19-.19.07-.16.42-.49,0,0,.05-.05L407.65,59c1.69,1.44,3.39,2.93,5.05,4.42L247.64,247l0,.06.16-.13-.2.19v0l-.08.08,0,0,0,0h0l0,0,.09-.07,0,.06h0l-.08.09h0l.27-.2-.2.1,0-.05.33-.17L447,101.4c1.32,1.81,2.63,3.66,3.9,5.5L248.22,246.77l.67-.33-.8.42-.4.27.18,0,227.62-95.19c.86,2.08,1.72,4.2,2.53,6.31L248,247.09l1.07-.18-1.51.35h0l-.07,0h-.13l0,0h0l0,0,0,0h0v0l0,0h0v0h0v0h0v0h0v0h0l0,0h0v0h0l0,0,0,.15-.25.61.09-.5-.18.26.27-.53-.05.05h0L246,248.77l1-1.16-.36.26ZM247.09,247.46l-.34.3Zm.14,0v0h0Zm0,0Zm0,0v0Zm-.13,0h0l0,0h0l0,0h0Zm.12,0h0v0h0l0,0h0v0h0l0,0h0Zm0,0Zm0,0v0h0l0,0Zm0,0Zm0,0h0Zm0,0Zm.1,0h0Zm-.15,0h0Zm.07,0Zm0,0h0l0,0h0l0,0h0Zm0,0h0v0Zm.19,0h0Zm.05,0h0Zm-.11,0Zm-.08,0h0Zm0,0Zm0,0h0l0,0Zm0,0Zm.13,0Zm-.26,0v0l-.05-.05Zm0-.07.05,0h0l-.07-.05Zm-.1-.16.16.16v0l-.55-.73Zm.58.08,0,0ZM455.13,381.36,248.86,248.22l.7.37,209.21,127C457.58,377.49,456.36,379.45,455.13,381.36Zm-427-19.43c-1-2-2-4-3-6L245.58,248.06l1.07-.45ZM480.7,329.12,248.33,247.65l234.57,74.9C482.2,324.74,481.46,327,480.7,329.12ZM7.44,307.59c-.55-2.22-1.09-4.48-1.58-6.72l240.56-53.3Zm485.89-35.2L249.08,247.52l244.86,17.94C493.77,267.76,493.57,270.1,493.33,272.39ZM0,250.27c0-1,0-2,0-3,0-1.27,0-2.55,0-3.82L245,247.22l1,.07Zm246.75-1,.13-.71.17-.39Zm.53-.72v-.72l0,.12Zm1.47-.46-.33-.16-.8-.52h0Zm-1.45-.19,0-.26,0-.06Zm-1.28-.08.66-.33.24,0-.2.1Zm-1.75-.16,2.18-.35.29,0Zm3-.09,0,0,0-.07Zm1.3,0-.44-.1h.07Zm-1.9-.05.27-.13h.11l-.11.06Zm1.38-.08H248l-.4-.09.06,0Zm-.58-.06,0,0Zm-.16,0Zm0,0Zm.06,0v0h0Zm-.06,0h0Zm.46,0h0Zm-.51-.1V247l0,.15-.09-.21.09-.54,0,.21V0c2.24,0,4.51,0,6.76.09l-6.68,245.77.61-3.48-.62,4.15v-.12l0,.43,0,.23Zm.11,0,0-.06Zm1.06,0,1.86-.41L491.47,208c.35,2.17.67,4.38,1,6.58Zm-1.95,0L6.1,192.65c.49-2.18,1-4.39,1.58-6.57l237.89,60.69Zm.2-.24-.24-.15L57.2,89.13c1.44-1.74,2.93-3.48,4.42-5.17Zm.43,0-.05-.18-42-243c2.22-.39,4.49-.75,6.73-1.07Zm.35,0v0l.3-.59-.08.22Zm.92-1.69.42-1L359.44,26.87c2,1,4.08,2.11,6.08,3.2Zm-.49-.15L304.72,6.74c2.26.54,4.55,1.12,6.79,1.72Z"/></svg>