<svg xmlns="http://www.w3.org/2000/svg" viewBox="0 0 575.07 575.12"><path d="M287.51,372.5h-1.38l1.23-80h.34l2.09,80Zm-16.42-1.59c-1.27-.25-2.53-.53-3.76-.83l19-77.7.14,0Zm33.7-.18L288.56,292.4l.19,0,19.76,77.52C307.28,370.19,306,370.48,304.79,370.73Zm-51.74-5.52c-1.18-.52-2.35-1.07-3.49-1.64L285.39,292l.13.06Zm69.74-.37-33.27-72.76.19-.09,36.49,71.2C325.08,363.76,323.94,364.31,322.79,364.84Zm-86-9.14c-1-.77-2.05-1.57-3-2.38l50.7-61.88.12.09Zm102.15-.53L290.49,291.5l.17-.13,51.23,61.44C340.93,353.61,339.93,354.41,338.93,355.17ZM223,342.84c-.81-.94-1.61-1.92-2.38-2.9l63-49.36a1.46,1.46,0,0,0,.16.19Zm129.56-.68-61.28-51.42.16-.2,63.47,48.7C354.16,340.23,353.37,341.21,352.57,342.16ZM212.42,327.29c-.6-1.13-1.18-2.28-1.72-3.43L283,289.69l.07.14ZM363,326.45,291.9,289.84l.12-.25,72.64,33.51C364.15,324.22,363.6,325.35,363,326.45ZM205.48,309.69c-.32-1.23-.63-2.47-.9-3.7l78.1-17.3.05.19Zm164.28-.88-77.47-20,0-.2,78.28,16.48C370.36,306.34,370.07,307.58,369.76,308.81ZM202.64,291c0-1.15-.07-2.32-.07-3.47v-.14h80v.38Zm169.77-.89-80-2.39v-.19l80-1.19c0,.4,0,.8,0,1.19C372.45,288.42,372.43,289.28,372.41,290.14Zm-89.76-3.51-78.71-14.32c.22-1.24.48-2.49.76-3.71l78,17.82Zm9.71,0,0-.2,77.78-18.7c.29,1.22.56,2.46.8,3.71Zm-.29-.95-.12-.26L363.68,250c.54,1.1,1.07,2.22,1.56,3.35Zm-9.13,0-73.55-31.46c.49-1.15,1-2.31,1.56-3.44L283,285.43A2,2,0,0,0,282.94,285.64Zm.54-.95-64.79-46.93c.74-1,1.5-2,2.28-3l62.65,49.75Zm8,0-.15-.2,62.15-50.36c.79,1,1.56,2,2.3,3Zm-7.25-.81-52.91-60c.95-.84,1.92-1.66,2.9-2.44l50.17,62.31Zm6.49,0-.2-.16,49.56-62.8c1,.77,1.95,1.58,2.89,2.39Zm-5.58-.61L246.77,213c1.08-.59,2.19-1.17,3.31-1.72l35.31,71.79A1,1,0,0,0,285.16,283.21Zm4.66,0-.2-.11,34.46-72.19c1.13.54,2.26,1.11,3.38,1.7Zm-3.69-.38-21.87-77c1.21-.34,2.44-.66,3.66-.95l18.41,77.85Zm2.76,0-.26-.07,17.58-78c1.2.27,2.42.57,3.62.9Zm-1.68-.18-4.36-79.88c1.25-.07,2.52-.11,3.77-.12l.82,80Zm.56,0h-.26v-80c1.24,0,2.49,0,3.73.08Z" fill="#ffc000"/><g opacity="0.5" style="isolation:isolate"><path d="M289.9,575.12l-.17-20c1.93,0,3.86,0,5.78-.11l.59,20Q293,575.09,289.9,575.12ZM277.48,575c-2.07-.07-4.16-.16-6.21-.27l1.12-20q2.88.15,5.77.26Zm31-.58-1.45-20c1.93-.14,3.86-.3,5.77-.48l1.87,19.92C312.65,574.05,310.58,574.22,308.51,574.37Zm-49.63-.65c-2.08-.21-4.16-.44-6.18-.68l2.41-19.85q2.86.34,5.74.63Zm68.17-1.29-2.73-19.81q2.87-.4,5.72-.85l3.15,19.75C331.15,571.84,329.1,572.15,327.05,572.43Zm-86.65-1.14q-3.08-.51-6.12-1.08L238,550.55c1.89.35,3.79.69,5.7,1Zm105-2-4-19.59c1.89-.39,3.78-.8,5.65-1.22L351.5,568C349.49,568.43,347.45,568.88,345.42,569.29Zm-123.3-1.63c-2-.47-4-1-6-1.48L221,546.8c1.86.48,3.74.94,5.62,1.38ZM363.55,565l-5.27-19.29q2.79-.76,5.56-1.59l5.69,19.18C367.54,563.85,365.53,564.42,363.55,565ZM204.1,562.84c-2-.59-4-1.22-5.95-1.87l6.21-19q2.74.9,5.54,1.74Zm177.27-3.39-6.53-18.9c1.83-.63,3.64-1.28,5.45-1.95l6.93,18.76Q384.31,558.44,381.37,559.45Zm-195-2.61c-2-.73-3.91-1.49-5.82-2.26L188,536c1.77.71,3.58,1.42,5.4,2.1Zm212.37-4L391,534.37c1.77-.74,3.54-1.5,5.29-2.28l8.14,18.26C402.58,551.18,400.67,552,398.76,552.81ZM169.12,549.7c-1.9-.86-3.81-1.74-5.65-2.63l8.64-18c1.74.84,3.49,1.65,5.25,2.45Zm246.53-4.64-8.91-17.9c1.72-.86,3.43-1.73,5.12-2.63l9.31,17.7C419.34,543.2,417.48,544.15,415.65,545.06Zm-263.29-3.61c-1.83-1-3.66-2-5.46-3L156.69,521q2.52,1.43,5.08,2.78ZM432,536.22,422,518.94c1.67-1,3.32-2,5-3L437.36,533C435.61,534.11,433.81,535.19,432,536.22Zm-295.85-4.09c-1.77-1.09-3.54-2.22-5.26-3.33L141.83,512q2.43,1.58,4.89,3.11Zm311.62-5.79-11.16-16.6c1.6-1.07,3.18-2.16,4.76-3.27l11.51,16.35C451.23,524,449.51,525.19,447.8,526.34Zm-327.15-4.55c-1.71-1.22-3.4-2.45-5-3.67l12-16c1.51,1.13,3.08,2.28,4.66,3.41Zm342.26-6.34-12.22-15.83q2.3-1.77,4.55-3.58l12.54,15.57Q465.37,513.56,462.91,515.45Zm-357.09-5c-1.6-1.3-3.2-2.64-4.77-4l13-15.22q2.19,1.88,4.44,3.71Zm371.47-6.86-13.21-15q2.18-1.9,4.3-3.86l13.53,14.73C480.38,500.86,478.84,502.25,477.29,503.61ZM91.77,498.23c-1.53-1.43-3-2.87-4.51-4.29l13.93-14.34c1.36,1.32,2.77,2.65,4.19,4Zm399.11-7.36-14.15-14.14c1.37-1.36,2.71-2.74,4-4.13l14.44,13.83C493.79,487.92,492.33,489.42,490.88,490.87ZM78.53,485.1c-1.43-1.51-2.85-3-4.22-4.56l14.83-13.42q1.94,2.14,3.92,4.24Zm425.09-7.83-15-13.2q1.92-2.18,3.78-4.39l15.3,12.88Q505.67,474.93,503.62,477.27ZM66.17,471.16q-2-2.39-3.91-4.82L77.92,453.9c1.2,1.51,2.41,3,3.64,4.49Zm449.3-8.29-15.85-12.2q1.77-2.3,3.49-4.62l16.1,11.85C518,459.55,516.74,461.23,515.47,462.87ZM54.75,456.46c-1.21-1.66-2.42-3.37-3.6-5.06L67.58,440q1.65,2.37,3.34,4.71Zm471.62-8.73-16.6-11.15c1.07-1.6,2.13-3.22,3.17-4.84l16.84,10.79C528.66,444.27,527.53,446,526.37,447.73ZM44.29,441.05c-1.1-1.74-2.19-3.51-3.26-5.28l17.13-10.32q1.5,2.48,3,4.91Zm492-9.14L519,421.86q1.46-2.5,2.86-5l17.5,9.67C538.34,428.3,537.31,430.12,536.27,431.91ZM34.86,425c-1-1.8-2-3.64-2.91-5.47l17.76-9.19q1.34,2.55,2.71,5.09Zm510.26-9.54-17.9-8.91q1.29-2.6,2.52-5.21l18.1,8.51C547,411.75,546,413.64,545.12,415.47ZM26.49,408.4c-.86-1.87-1.72-3.77-2.55-5.65l18.33-8q1.15,2.64,2.36,5.25Zm526.41-9.92-18.45-7.72q1.11-2.67,2.18-5.37l18.61,7.31C554.48,394.62,553.7,396.57,552.9,398.48Zm-533.68-7.2c-.74-1.92-1.48-3.88-2.18-5.82l18.81-6.8c.65,1.81,1.33,3.61,2,5.41ZM559.54,381l-18.91-6.5c.63-1.83,1.23-3.67,1.82-5.51l19.06,6.08C560.87,377.07,560.21,379.06,559.54,381ZM13.07,373.69c-.63-2-1.23-4-1.8-6l19.21-5.56c.53,1.83,1.09,3.69,1.67,5.53Zm552-10.53-19.3-5.24c.5-1.86,1-3.73,1.45-5.6l19.41,4.83C566.09,359.14,565.57,361.16,565,363.16Zm-557-7.44c-.48-2-1-4-1.4-6.05l19.53-4.31c.42,1.89.85,3.77,1.31,5.64ZM569.33,345l-19.6-4q.57-2.84,1.08-5.68l19.69,3.55C570.13,341,569.73,343,569.33,345ZM4.26,337.47c-.35-2-.69-4.08-1-6.13l19.77-3q.43,2.87.93,5.7Zm568.17-10.83-19.81-2.7q.39-2.87.71-5.73l19.88,2.26C573,322.52,572.71,324.6,572.43,326.64ZM1.64,319q-.33-3.09-.6-6.19L21,311.09q.25,2.9.57,5.76ZM574.35,308.1l-20-1.41c.13-1.92.25-3.85.34-5.78l20,1C574.62,304,574.49,306,574.35,308.1ZM.23,300.43Q.1,297.34,0,294.24l20-.45c0,1.92.11,3.85.2,5.77Zm574.83-10.95-20-.13c0-.59,0-1.19,0-1.79,0-1.33,0-2.67,0-4l20-.29q0,2.14,0,4.29C575.07,288.2,575.07,288.84,575.06,289.48ZM20,282.21l-20-.39q.06-3.1.19-6.21l20,.82C20.09,278.35,20,280.28,20,282.21ZM554.63,272q-.18-2.89-.4-5.77l19.94-1.58q.24,3.09.42,6.2ZM20.89,264.88,1,263.21c.17-2.06.37-4.15.59-6.19l19.89,2.11Q21.13,262,20.89,264.88Zm532.19-10.16c-.24-1.92-.49-3.83-.77-5.73l19.8-2.86c.29,2.05.57,4.13.82,6.16ZM22.9,247.66l-19.78-3c.31-2.06.64-4.13,1-6.14L23.81,242C23.49,243.85,23.18,245.75,22.9,247.66Zm527.51-10.07c-.36-1.9-.73-3.79-1.13-5.67l19.56-4.14c.43,2,.84,4.06,1.23,6.09ZM26,230.6,6.47,226.36c.44-2,.91-4.07,1.39-6.06L27.3,225Q26.64,227.77,26,230.6Zm520.62-9.94q-.72-2.81-1.5-5.58l19.25-5.41c.56,2,1.1,4,1.62,6Zm-516.4-6.88L11,208.28c.57-2,1.17-4,1.78-6l19.1,5.92Q31,211,30.24,213.78ZM541.77,204c-.6-1.83-1.22-3.66-1.86-5.47l18.86-6.65c.69,1.95,1.35,3.91,2,5.88Zm-506.2-6.77L16.74,190.5c.7-1.95,1.43-3.92,2.17-5.85l18.67,7.16Q36.55,194.51,35.57,197.25Zm500.26-9.52c-.72-1.78-1.46-3.56-2.21-5.32L552,174.54c.81,1.89,1.61,3.82,2.38,5.72ZM42,181.08l-18.35-8c.82-1.89,1.68-3.8,2.55-5.69l18.16,8.36C43.53,177.54,42.74,179.31,42,181.08Zm486.88-9.17q-1.25-2.61-2.55-5.17l17.84-9.05c.93,1.84,1.85,3.71,2.74,5.56ZM49.41,165.38l-17.79-9.15c.95-1.84,1.92-3.69,2.91-5.51l17.58,9.53Q50.73,162.8,49.41,165.38Zm471.45-8.82c-.94-1.68-1.91-3.35-2.89-5l17.22-10.18q1.57,2.67,3.1,5.37Zm-463-6.36L40.69,139.91c1.07-1.77,2.16-3.55,3.26-5.3l16.93,10.65Q59.34,147.7,57.85,150.2Zm454-8.45c-1.05-1.61-2.11-3.21-3.2-4.8l16.52-11.28c1.17,1.71,2.31,3.43,3.44,5.16ZM67.25,135.6,50.8,124.23q1.77-2.57,3.6-5.08l16.2,11.72C69.47,132.44,68.35,134,67.25,135.6ZM502,127.54q-1.72-2.31-3.5-4.59l15.75-12.31c1.27,1.62,2.54,3.28,3.77,4.93ZM77.58,121.65,61.9,109.23q1.93-2.43,3.91-4.83l15.41,12.75C80,118.63,78.78,120.13,77.58,121.65ZM491.14,114q-1.87-2.2-3.79-4.36l14.93-13.3c1.37,1.54,2.75,3.12,4.08,4.68ZM88.79,108.39,73.94,95c1.39-1.53,2.79-3.06,4.21-4.56l14.56,13.71Q90.73,106.24,88.79,108.39Zm390.68-7.21q-2-2.09-4.08-4.11l14.05-14.24c1.47,1.46,2.93,2.92,4.37,4.41ZM100.82,95.89l-14-14.32c1.48-1.44,3-2.88,4.5-4.29L105,91.9C103.6,93.22,102.2,94.55,100.82,95.89ZM467,89.13q-2.14-1.95-4.33-3.84l13.1-15.11c1.56,1.35,3.11,2.73,4.65,4.12ZM113.63,84.2l-13-15.2q2.35-2,4.76-4l12.68,15.47C116.57,81.71,115.09,82.94,113.63,84.2Zm340.13-6.3c-1.52-1.2-3-2.38-4.58-3.55l12.1-15.93q2.48,1.89,4.9,3.81ZM127.15,73.35l-12-16q2.49-1.86,5-3.67l11.65,16.26C130.25,71.06,128.69,72.2,127.15,73.35Zm312.67-5.8q-2.38-1.65-4.8-3.25l11-16.67c1.73,1.14,3.46,2.31,5.15,3.49ZM141.34,63.41,130.4,46.67c1.73-1.13,3.49-2.25,5.23-3.34l10.58,17Q143.75,61.84,141.34,63.41Zm283.9-5.29c-1.66-1-3.32-2-5-2.93l9.93-17.36c1.79,1,3.59,2.08,5.37,3.15Zm-269.1-3.71L146.3,37c1.78-1,3.61-2,5.43-3l9.46,17.62C159.5,52.54,157.81,53.47,156.14,54.41Zm253.93-4.76c-1.72-.88-3.44-1.75-5.18-2.6l8.78-18c1.86.9,3.74,1.85,5.57,2.79ZM171.48,46.4l-8.69-18c1.86-.89,3.75-1.78,5.61-2.63L176.69,44C175,44.75,173.21,45.56,171.48,46.4Zm222.9-4.21Q391.71,41,389,39.93l7.6-18.5c1.91.78,3.84,1.6,5.74,2.43ZM187.29,39.4,179.8,20.86c1.91-.78,3.86-1.54,5.78-2.27l7.09,18.7C190.87,38,189.08,38.68,187.29,39.4Zm190.94-3.63c-1.82-.66-3.65-1.29-5.49-1.91l6.37-19c2,.66,3.94,1.35,5.89,2ZM203.57,33.43l-6.27-19c1.95-.65,3.95-1.28,5.93-1.89l5.85,19.13C207.23,32.24,205.4,32.82,203.57,33.43Zm158.14-3c-1.85-.53-3.71-1.05-5.58-1.54l5.12-19.33c2,.52,4,1.08,6,1.65Zm-141.5-1.89-5-19.36c2-.51,4-1,6-1.49l4.6,19.46Q223,27.82,220.21,28.53Zm124.68-2.36c-1.87-.41-3.76-.8-5.65-1.18l3.84-19.62c2,.39,4.07.82,6.09,1.26ZM237.12,24.73,233.38,5.09c2-.39,4.09-.76,6.12-1.1l3.31,19.72C240.91,24,239,24.38,237.12,24.73ZM327.84,23q-2.85-.43-5.72-.8l2.56-19.84c2.05.27,4.13.56,6.15.86Zm-73.58-1L251.79,2.2c2.05-.26,4.13-.49,6.18-.7l2,19.9C258.08,21.59,256.16,21.81,254.26,22ZM310.62,21q-2.88-.24-5.77-.43l1.28-20c2.07.14,4.15.29,6.19.47Zm-39.09-.51L270.35.5c2.07-.12,4.13-.22,6.21-.29l.75,20C275.38,20.26,273.45,20.36,271.53,20.47Zm21.76-.41c-1.92,0-3.85-.06-5.78-.06V0q3.11,0,6.21.07Z" fill="#ffc000"/></g><path d="M292.74,378.07l-1.8-31.19c1.22-.07,2.43-.18,3.63-.32l-7-58.76,16.85,88.84A89.74,89.74,0,0,1,292.74,378.07Zm-23-1.61a91.82,91.82,0,0,1-11.27-3l10-29.58q1.71.57,3.45,1.05L287.39,288l.1-.29h0Zm56.62-7L313,341.25c1.09-.51,2.16-1.06,3.21-1.64L287.62,287.8l0,0-.11-.2h0l0,0h0l0,.1v0l-.05,0,.07-.08h0v0h0l-.42.29-74.14,51.18a90.69,90.69,0,0,1-4.79-7.75c-.4-.73-.8-1.47-1.18-2.2l27.76-14.31c.25.5.52,1,.79,1.49l50.64-28,1.25-.69-.3.13.39-.19h0l0,0,0,0h0l.06-.07.55-.33-.61.4h0l0,0h0l13.6-7.51-12.12,6.75,51.26-26.43c-.25-.49-.51-1-.78-1.46s-.62-1.11-1-1.65l26.86-15.93c.43.73.86,1.47,1.27,2.21l.14.24c1.36,2.48,2.63,5,3.76,7.64L288,287.4l-.4.18.12,0h0l59-5.45c-.11-1.21-.26-2.42-.44-3.62l30.86-4.78a89.92,89.92,0,0,1,1,11.59l-90.47,2.26,0,0-.06,0h0l0,0h0l0,.05,0,0,.31.47-.2-.27,1.46,2.67,27.39,48.89c1-.57,2-1.18,3-1.81l16.83,26.31c-1.65,1.06-3.36,2.08-5.08,3l-.16.08C329.58,367.89,328,368.71,326.35,369.48Zm-42.21-80-48.51,27c.25.43.5.87.75,1.29Zm3.36-1.93Zm0,0Zm0,0Zm0,0h0Zm0,0Zm-49.78,75.78a91.52,91.52,0,0,1-9.3-7l20.35-23.69c.92.79,1.87,1.55,2.83,2.28l35.76-47.19Zm116.5-14.42L287.63,287.7l.22.15,46,36.89c.76-.95,1.5-1.93,2.21-2.93l25.54,18A91.89,91.89,0,0,1,354.25,348.92Zm18.12-29.51-84.76-31.8h0l56.76,17.07c.35-1.17.66-2.34.94-3.53l30.41,7.13A90.15,90.15,0,0,1,372.37,319.41Zm-173.3-11.94a92.17,92.17,0,0,1-1.82-11.55l31.1-2.88q.17,1.83.45,3.63l58.44-9.05Zm88.31-19.75.09-.1Zm.13-.07v0h0v0Zm-.08-.07h0Zm.08,0Zm0,0h0l0,0,0,0h0l0,0-53.9-72.76a90.88,90.88,0,0,1,9.68-6.26l15.26,27.26c-1,.56-2,1.16-3,1.78l31.71,49.54-.39-.71.44.78-43.52-78.95a92.63,92.63,0,0,1,10.38-4.89l33.36,84.2h0l0,0h0Zm0,0Zm0,0Zm0,0Zm0,0h0v0Zm0,0Zm0,0Zm0,0ZM262.06,233.9c-1.06.5-2.11,1-3.11,1.59l28.39,51.72Zm25.45,53.68Zm0,0h0Zm0,0Zm0,0h0Zm.07,0Zm-.09,0Zm0,0h0Zm-.1,0L198.08,272.8a89.74,89.74,0,0,1,2.63-11.32l29.9,9c-.35,1.18-.67,2.36-.94,3.55Zm.19,0h0Zm0,0v0l0-.08Zm0,0h0Zm.12,0,38.6-44.95c-.91-.78-1.85-1.54-2.81-2.27l18.86-24.9A91.89,91.89,0,0,1,351.1,223Zm-.05,0,19-56.15c-1.15-.39-2.32-.75-3.5-1.07l8.19-30.14a93.31,93.31,0,0,1,10.9,3.72Zm-.65-.27-76.83-46.75a90.55,90.55,0,0,1,6.72-9.58l24.37,19.55c-.78,1-1.53,2-2.24,3Zm.58-.25-3.37-58.67q-1.85.1-3.69.33l-3.71-31a91.09,91.09,0,0,1,10.71-.65h.94Z" fill="#ffc000"/></svg>