<svg xmlns="http://www.w3.org/2000/svg" viewBox="0 0 162.21 162.25"><path d="M76.29,162.25c-1.35-.08-2.7-.2-4-.34L81.11,82.4Zm19.52-1.17L81.47,82.37l18.24,77.9C98.43,160.57,97.11,160.84,95.81,161.08Zm-42.66-3.67c-1.23-.45-2.48-.95-3.68-1.46l31.3-73.62Zm65-3.91L81.74,82.27l39.9,69.35C120.5,152.27,119.33,152.91,118.17,153.5Zm-85.7-7.35c-1.07-.8-2.14-1.64-3.16-2.49L80.49,82.17Zm104.88-6.31L82,82.06l58.08,55C139.21,138,138.28,139,137.35,139.84ZM15.88,129.45c-.77-1-1.53-2.13-2.25-3.21L80.18,81.83Zm136-8.19L82.25,81.78l71.43,36C153.1,119,152.47,120.13,151.83,121.26Zm-147-12.59c-.45-1.23-.87-2.49-1.25-3.75L80,81.56Zm155.59-9.41-78-17.77,78.79,13.87C160.93,96.66,160.66,98,160.37,99.26ZM.11,85.54C0,84.24,0,82.92,0,81.62l80-.41Zm82.28-4.4V81l79.49-9.07c.14,1.26.26,2.55.34,3.84ZM80,80.84,2.26,62.13c.31-1.27.65-2.55,1-3.81Zm2.29-.06,73.45-31.7c.52,1.2,1,2.44,1.48,3.67Zm-2.17-.2L11.09,40.22c.66-1.13,1.36-2.26,2.08-3.36Zm2-.09,61.26-51.44c.85,1,1.67,2,2.46,3.07Zm-1.72-.23L25.78,21.85c.95-.88,1.93-1.76,2.92-2.6Zm1.44-.05,44-66.82c1.1.72,2.18,1.48,3.24,2.25Zm-1.17-.12L45.11,8.45c1.18-.58,2.38-1.15,3.59-1.68Zm.87,0L104.48,3.4c1.26.38,2.54.79,3.78,1.23ZM81,80,67.59,1.14c1.28-.22,2.6-.41,3.9-.56Zm.31,0H81.2V0c1.28,0,2.59,0,3.88.09Z" fill="#ffc000"/></svg>