<svg xmlns="http://www.w3.org/2000/svg" viewBox="0 0 459.72 459.7"><g opacity="0.75" style="isolation:isolate"><path d="M234.69,459.7l-.42-20,2.28-.06.64,20Zm-10,0-2.51-.07.66-20,2.29.07Zm22.54-.58-1.49-19.95L248,439l1.71,19.92C248.87,459,248,459,247.2,459.11Zm-35.06,0c-.83-.07-1.67-.13-2.5-.21L211.38,439l2.28.18Zm47.53-1.25L257.11,438l2.26-.31,2.79,19.81C261.33,457.61,260.5,457.73,259.67,457.83Zm-60-.05-2.48-.34,2.81-19.8,2.27.32Zm72.38-1.9-3.63-19.66,2.24-.43,3.87,19.62Zm-84.77-.07c-.82-.15-1.65-.31-2.47-.48l3.91-19.61,2.24.43Zm97-2.55-4.71-19.44,2.22-.55,4.93,19.38Zm-109.3-.1-2.44-.61,5-19.37,2.22.56ZM296.44,450l-5.8-19.14,2.2-.68,6,19.08Zm-133.51-.11-2.42-.75,6-19.07,2.19.68ZM308.34,446l-6.83-18.79,2.15-.8,7,18.72C309.91,445.43,309.13,445.72,308.34,446ZM151,445.86l-2.37-.88,7.08-18.71,2.15.8Zm169-4.45L312.14,423l2.09-.9,8,18.31Zm-180.69-.19-2.31-1,8.09-18.29,2.1.92Zm192-5-8.82-17.95,2-1,9,17.84ZM127.89,436c-.76-.38-1.51-.75-2.25-1.14L134.72,417l2.05,1Zm214.54-5.6-9.81-17.43,2-1.13,10,17.32Zm-225.64-.29-2.19-1.25,10.05-17.3,2,1.14Zm236.37-6.14L342.43,407l1.92-1.23,10.92,16.75ZM106,423.58l-2.11-1.37,11-16.72,1.92,1.25Zm257.51-6.67L351.9,400.64l1.86-1.34,11.81,16.14Zm-267.89-.39-2-1.48,11.88-16.1c.61.46,1.23.91,1.84,1.35Zm277.88-7.19L361,393.74l1.78-1.45,12.68,15.47Zm-287.86-.41-1.94-1.59,12.72-15.44,1.77,1.45Zm297.42-7.69-13.34-14.9,1.71-1.54L385,399.56Zm-307-.45-1.86-1.7,13.55-14.71,1.69,1.54Zm316.09-8.16-14.14-14.14,1.62-1.63,14.28,14C393.39,391.44,392.8,392,392.21,392.62ZM67,392.14c-.59-.59-1.17-1.19-1.76-1.79l14.32-14L81.2,378Zm333.8-8.6L386,370.16l1.52-1.71,15,13.21C402,382.29,401.4,382.92,400.83,383.54ZM58.43,383c-.56-.62-1.11-1.25-1.66-1.88L71.83,368l1.51,1.71ZM409,374l-15.58-12.55c.48-.6,1-1.19,1.43-1.79L410.54,372Zm-358.64-.53c-.52-.66-1-1.31-1.55-2l15.75-12.32L66,361ZM416.57,364l-16.23-11.68c.44-.62.89-1.24,1.33-1.87L418,362Zm-373.8-.53-1.44-2L57.71,350c.44.63.88,1.25,1.33,1.87Zm380.85-9.85-16.84-10.78c.41-.65.82-1.29,1.22-1.94l17,10.6C424.52,352.21,424.07,352.91,423.62,353.62Zm-387.85-.53c-.45-.71-.9-1.42-1.34-2.13l17-10.54c.4.65.8,1.29,1.21,1.93ZM430.1,342.86,412.69,333c.38-.66.75-1.33,1.12-2l17.52,9.65Zm-400.77-.52-1.21-2.19,17.54-9.6,1.11,2ZM436,331.76l-17.92-8.88c.34-.68.67-1.37,1-2.06l18,8.67ZM23.5,331.27c-.37-.75-.73-1.5-1.09-2.26l18-8.63c.33.69.66,1.37,1,2.05Zm417.75-10.94-18.39-7.85c.31-.71.6-1.42.9-2.13L442.23,318C441.91,318.79,441.58,319.57,441.25,320.33Zm-423-.44c-.33-.76-.65-1.53-1-2.3L35.8,310c.29.7.59,1.4.89,2.1Zm427.6-11.24-18.8-6.84.78-2.17,18.87,6.64Zm-432.2-.42-.84-2.36,18.87-6.62c.26.73.51,1.45.77,2.17Zm436.18-11.51-19.14-5.81c.22-.73.44-1.46.65-2.19l19.2,5.59C450.35,295.11,450.11,295.92,449.87,296.72Zm-440.13-.4c-.24-.79-.48-1.6-.71-2.4l19.21-5.57c.21.73.43,1.47.65,2.2Zm443.44-11.71-19.43-4.74c.18-.74.36-1.49.53-2.23l19.48,4.54C453.57,283,453.38,283.8,453.18,284.61ZM6.45,284.22c-.19-.81-.39-1.63-.58-2.44l19.49-4.5c.17.74.35,1.48.53,2.22Zm449.37-11.87-19.66-3.66c.14-.76.28-1.51.41-2.27l19.7,3.47Zm-452-.4c-.15-.82-.3-1.65-.44-2.48l19.71-3.41c.13.75.26,1.5.4,2.25Zm454-12L438,257.37c.09-.75.19-1.51.28-2.26l19.86,2.36C458,258.3,457.9,259.14,457.79,260Zm-455.9-.41c-.11-.83-.21-1.66-.31-2.49l19.86-2.34c.09.76.19,1.52.29,2.27Zm457.19-12.08L439.13,246c.06-.76.11-1.53.16-2.29l20,1.29C459.2,245.82,459.14,246.66,459.08,247.48ZM.62,247.09c-.06-.84-.11-1.67-.17-2.5l20-1.27c.05.76.1,1.53.16,2.29ZM459.68,235l-20-.44c0-.76,0-1.53,0-2.29l20,.22C459.72,233.31,459.7,234.14,459.68,235ZM0,234.57c0-.84,0-1.68,0-2.51l20-.18,0,2.28Zm439.59-11.49c0-.76-.05-1.52-.08-2.28l20-.86c0,.83.07,1.67.09,2.5Zm-419.52-.37L.12,222c0-.83.06-1.67.1-2.5l20,.88C20.16,221.18,20.13,221.94,20.11,222.71ZM439,211.65l-.21-2.28,19.91-1.93c.08.83.15,1.67.23,2.5ZM20.8,211.27.88,209.53c.07-.84.15-1.67.23-2.51L21,209Zm416.87-11-.33-2.27,19.77-3c.12.82.25,1.65.36,2.47ZM22.11,199.9l-19.8-2.83c.12-.83.25-1.66.37-2.48l19.77,3C22.33,198.38,22.22,199.14,22.11,199.9ZM435.76,189c-.15-.75-.3-1.5-.46-2.25l19.58-4.08c.17.81.34,1.63.5,2.45ZM24,188.61l-19.61-3.9c.16-.83.33-1.65.5-2.47l19.57,4.13C24.34,187.12,24.19,187.86,24,188.61Zm409.19-10.8c-.18-.73-.38-1.47-.57-2.2L452,170.45c.22.81.43,1.62.64,2.43Zm-406.64-.36-19.37-5c.2-.81.42-1.62.63-2.42l19.32,5.19C27,176,26.78,176.71,26.59,177.45Zm403.52-10.63c-.23-.73-.47-1.46-.71-2.19l19-6.21.76,2.38Zm-400.37-.37-19.07-6,.78-2.4,19,6.25C30.21,165,30,165.72,29.74,166.45ZM426.37,156c-.27-.71-.54-1.42-.82-2.13l18.64-7.26.9,2.36Zm-392.86-.38L14.8,148.53c.3-.79.6-1.58.91-2.36l18.62,7.3C34.05,154.18,33.78,154.89,33.51,155.61Zm388.54-10.2c-.3-.69-.61-1.39-.92-2.07l18.21-8.27c.35.77.69,1.53,1,2.3ZM37.86,145l-18.29-8.1,1-2.3L38.8,142.9C38.48,143.59,38.17,144.29,37.86,145Zm379.31-9.89c-.34-.68-.69-1.36-1-2l17.74-9.23L435,126Zm-374.38-.46L25,125.54c.38-.75.76-1.49,1.15-2.23l17.72,9.28C43.49,133.27,43.14,134,42.79,134.64Zm368.94-9.59c-.38-.66-.77-1.32-1.16-2l17.21-10.19c.43.72.85,1.44,1.27,2.16Zm-363.45-.48L31,114.51c.42-.72.84-1.44,1.27-2.16l17.19,10.24C49.05,123.24,48.67,123.9,48.28,124.57Zm357.45-9.27c-.41-.64-.83-1.27-1.25-1.9l16.63-11.11q.7,1,1.38,2.1Zm-351.42-.48-16.71-11c.45-.7.92-1.39,1.38-2.09l16.6,11.16C55.15,113.54,54.73,114.18,54.31,114.82Zm344.92-8.92-1.36-1.83,16-12c.51.67,1,1.34,1.5,2Zm-338.37-.49L44.77,93.53l1.5-2,16,12Zm331.36-8.55-1.47-1.76,15.33-12.85c.53.64,1.07,1.28,1.6,1.93Zm-324.3-.49L52.49,83.64l1.61-1.92L69.38,94.61C68.89,95.2,68.4,95.78,67.92,96.37Zm316.8-8.16-1.56-1.68,14.61-13.66,1.7,1.83ZM75.44,87.74,60.73,74.19l1.71-1.84L77,86.06ZM376.76,80c-.54-.54-1.09-1.07-1.65-1.6L389,64l1.8,1.74ZM83.43,79.53l-14-14.33,1.81-1.74,13.8,14.48C84.52,78.47,84,79,83.43,79.53Zm284.94-7.34-1.74-1.51,13.05-15.16,1.88,1.64ZM91.84,71.76,78.69,56.7l1.89-1.64,13,15.21Zm267.72-6.91-1.81-1.4L369.94,47.6l2,1.54Zm-258.89-.38L88.34,48.72l2-1.54,12.14,15.89ZM350.36,58l-1.88-1.3,11.31-16.49c.7.47,1.39,1,2.07,1.43Zm-240.49-.35L98.41,41.27l2.06-1.42,11.28,16.52C111.12,56.79,110.49,57.23,109.87,57.66Zm230.94-6-2-1.21,10.4-17.08c.72.43,1.43.87,2.14,1.31Zm-221.39-.31-10.54-17L111,33.07l10.36,17.11Zm211.5-5.5-2-1.09,9.45-17.63,2.21,1.2Zm-201.63-.26-9.6-17.55,2.21-1.19,9.4,17.66Q130.29,45.07,129.29,45.62Zm191.43-5-2.08-1,8.48-18.11c.76.35,1.51.71,2.27,1.08Zm-181.26-.22-8.63-18,2.27-1.07,8.42,18.14Zm170.79-4.47-2.13-.87,7.47-18.55,2.32.95Zm-160.36-.17-7.62-18.49,2.31-.94L152,34.91Zm149.64-3.93c-.72-.26-1.45-.51-2.17-.75l6.43-18.94,2.38.82ZM160.59,31.7,154,12.82l2.37-.82,6.39,19Zm128-3.36c-.73-.22-1.47-.43-2.21-.63L291.8,8.44l2.41.69Zm-117.14-.12L165.94,9l2.41-.69L173.7,27.6Zm106.06-2.78-2.23-.51L279.63,5.4l2.45.56Zm-95-.09L178.09,5.86l2.44-.55,4.28,19.54Zm83.76-2.19c-.75-.14-1.5-.26-2.25-.39L267.31,3c.83.13,1.66.27,2.48.42Zm-72.54-.07L190.38,3.38,192.85,3l3.2,19.75ZM255,21.49l-2.28-.26,2.16-19.88,2.49.28Zm-49.89,0L202.79,1.58l2.5-.28,2.11,19.89Zm38.49-1-2.29-.13,1.07-20,2.5.14Zm-27.08,0-1.25-20c.83-.06,1.67-.1,2.5-.15l1,20ZM232.16,20H228L227.8,0h4.57Z" fill="#ffc000"/></g></svg>