<svg xmlns="http://www.w3.org/2000/svg" viewBox="0 0 482.46 103.5"><path d="M23.48,26,20.07,46.25l.25.26a21.29,21.29,0,0,1,7.54-5.28,25.08,25.08,0,0,1,28.52,7.31,28.88,28.88,0,0,1,5.11,9.6A38.45,38.45,0,0,1,63.25,69.9,31.88,31.88,0,0,1,60.7,82.68a32.65,32.65,0,0,1-6.87,10.23,30.31,30.31,0,0,1-22.2,8.9,40.45,40.45,0,0,1-11.87-1.72,29.27,29.27,0,0,1-10-5.27,26.27,26.27,0,0,1-7-8.84A28.27,28.27,0,0,1,0,73.71H17.27a15,15,0,0,0,4.38,9.73,13.31,13.31,0,0,0,9.61,3.62A12.84,12.84,0,0,0,37.4,85.6,14.82,14.82,0,0,0,42,81.79a17.38,17.38,0,0,0,2.91-5.47,20.31,20.31,0,0,0,1-6.42,21.56,21.56,0,0,0-1-6.48,15.39,15.39,0,0,0-2.92-5.34,13.66,13.66,0,0,0-4.63-3.56,14.21,14.21,0,0,0-6.2-1.27A14.77,14.77,0,0,0,23.72,55a17.84,17.84,0,0,0-5.47,5.4H2.68l8.39-49.2H58.63V26Z" fill="#3d3d3d"/><path d="M75.36,33.48A39.83,39.83,0,0,1,82.11,19.3,24.39,24.39,0,0,1,92,11.67a31.74,31.74,0,0,1,12-2.29,32.16,32.16,0,0,1,12.1,2.29,24.82,24.82,0,0,1,10,7.63,39.47,39.47,0,0,1,6.81,14.18q2.49,8.84,2.5,21.8,0,13.35-2.5,22.31t-6.81,14.3a24.74,24.74,0,0,1-10,7.63,31.89,31.89,0,0,1-12.1,2.29,31.46,31.46,0,0,1-12-2.29,24.18,24.18,0,0,1-9.92-7.63q-4.26-5.34-6.75-14.3t-2.5-22.31Q72.86,42.32,75.36,33.48Zm15,31A51.78,51.78,0,0,0,91.9,74.92,22.88,22.88,0,0,0,96,83.5a9.62,9.62,0,0,0,8,3.56q5.35,0,8.21-3.56a22.12,22.12,0,0,0,4.14-8.59,51.58,51.58,0,0,0,1.52-10.42q.24-5.4.24-9.22,0-2.28-.06-5.52a65,65,0,0,0-.48-6.68,68.71,68.71,0,0,0-1.22-6.8,21.47,21.47,0,0,0-2.37-6,13.32,13.32,0,0,0-4-4.33,10.38,10.38,0,0,0-6-1.65,10.12,10.12,0,0,0-5.9,1.65,13.14,13.14,0,0,0-3.89,4.33,23.73,23.73,0,0,0-2.37,6,49.19,49.19,0,0,0-1.22,6.8q-.36,3.43-.42,6.68c0,2.16-.07,4-.07,5.52Q90.15,59.1,90.38,64.49Z" fill="#3d3d3d"/><path d="M157.58,19a10,10,0,0,1,2.84-3.69,11.76,11.76,0,0,1,4.21-2.11,19.36,19.36,0,0,1,5.35-.69,22.08,22.08,0,0,1,4.44.45,10.31,10.31,0,0,1,4,1.67A8.87,8.87,0,0,1,181.27,18a12.87,12.87,0,0,1,1.11,5.77V42.5c0,1.73.81,2.6,2.42,2.6a3.12,3.12,0,0,0,1.31-.28v3.62c-.48.09-.9.16-1.28.2a13,13,0,0,1-1.4.07,6,6,0,0,1-2.51-.45A3.39,3.39,0,0,1,179.45,47a5,5,0,0,1-.69-1.94,18.93,18.93,0,0,1-.16-2.49h-.13a27.63,27.63,0,0,1-2.25,3,11,11,0,0,1-5.74,3.58,16.68,16.68,0,0,1-4.28.48,16,16,0,0,1-4.41-.58,9.66,9.66,0,0,1-3.59-1.84A8.86,8.86,0,0,1,155.79,44a11,11,0,0,1-.88-4.6,9.39,9.39,0,0,1,1.56-5.76,10,10,0,0,1,4.15-3.18A22.85,22.85,0,0,1,166.43,29c2.15-.3,4.34-.58,6.56-.86a21.6,21.6,0,0,0,2.28-.34,3.85,3.85,0,0,0,1.63-.71,3.37,3.37,0,0,0,1-1.4,6.55,6.55,0,0,0,.36-2.32,8.14,8.14,0,0,0-.69-3.58,5.57,5.57,0,0,0-1.89-2.22,7.38,7.38,0,0,0-2.81-1.12,17.17,17.17,0,0,0-3.43-.31A10,10,0,0,0,163.07,18q-2.49,2-2.62,6.24h-4.11A14.77,14.77,0,0,1,157.58,19Zm20.56,10.5a2.35,2.35,0,0,1-1.5,1.09,14.74,14.74,0,0,1-2,.48q-2.61.48-5.38.85A28.25,28.25,0,0,0,164.24,33a9.92,9.92,0,0,0-3.76,2.14,5.25,5.25,0,0,0-1.46,4,6.47,6.47,0,0,0,.62,2.9,6.94,6.94,0,0,0,1.66,2.18,7.17,7.17,0,0,0,2.42,1.4,8.37,8.37,0,0,0,2.8.48,13.75,13.75,0,0,0,4.5-.75,10.74,10.74,0,0,0,3.75-2.19,10.45,10.45,0,0,0,2.55-3.48,11,11,0,0,0,1-4.63V29.48Z" fill="#3d3d3d"/><path d="M194.65,13.51v6.07h.14A10.08,10.08,0,0,1,199,14.43a11.89,11.89,0,0,1,6.6-1.95,16,16,0,0,1,5.9,1,9.38,9.38,0,0,1,3.82,2.69,10.21,10.21,0,0,1,2,4.27,25.08,25.08,0,0,1,.59,5.66V48.71h-4.11v-22a21,21,0,0,0-.39-4.19A9.17,9.17,0,0,0,212,19.17a6.64,6.64,0,0,0-2.65-2.25,9.24,9.24,0,0,0-4.14-.82,10.08,10.08,0,0,0-4.4.92,9.61,9.61,0,0,0-3.27,2.52,11.92,11.92,0,0,0-2.09,3.83,16,16,0,0,0-.81,4.8V48.71h-4.11V13.51Z" fill="#3d3d3d"/><path d="M229.7,13.51v6.07h.13A10.15,10.15,0,0,1,234,14.43a11.89,11.89,0,0,1,6.6-1.95,16,16,0,0,1,5.9,1,9.38,9.38,0,0,1,3.82,2.69,10.21,10.21,0,0,1,2,4.27,25.08,25.08,0,0,1,.59,5.66V48.71h-4.11v-22a21,21,0,0,0-.39-4.19,9.17,9.17,0,0,0-1.37-3.38,6.64,6.64,0,0,0-2.65-2.25,9.24,9.24,0,0,0-4.14-.82,10.15,10.15,0,0,0-4.41.92,9.57,9.57,0,0,0-3.26,2.52,11.73,11.73,0,0,0-2.09,3.83,16.33,16.33,0,0,0-.82,4.8V48.71h-4.11V13.51Z" fill="#3d3d3d"/><path d="M264.89,0V6.89h-4.11V0Zm0,13.51v35.2h-4.11V13.51Z" fill="#3d3d3d"/><path d="M273.57,13.51l10.57,30.9h.13l10.45-30.9H299l-12.6,35.2H282l-13-35.2Z" fill="#3d3d3d"/><path d="M306,37.08a13.47,13.47,0,0,0,2,4.46,11.52,11.52,0,0,0,3.46,3.28,9.34,9.34,0,0,0,5,1.3,9.73,9.73,0,0,0,7-2.46,13,13,0,0,0,3.53-6.55h4.11a17.42,17.42,0,0,1-4.8,9.28q-3.5,3.27-9.88,3.28a15.32,15.32,0,0,1-6.89-1.47,12.8,12.8,0,0,1-4.73-4,17.75,17.75,0,0,1-2.71-5.93,27.69,27.69,0,0,1-.88-7.13,26.15,26.15,0,0,1,.88-6.82,18.45,18.45,0,0,1,2.71-6,13.63,13.63,0,0,1,4.73-4.23,14.09,14.09,0,0,1,6.89-1.6,13.28,13.28,0,0,1,6.91,1.71,14,14,0,0,1,4.67,4.46A18.94,18.94,0,0,1,330.68,25a29,29,0,0,1,.65,7.26H305.42A20,20,0,0,0,306,37.08ZM326.4,23.94a12.83,12.83,0,0,0-2.12-4A10.61,10.61,0,0,0,321,17.15a9.22,9.22,0,0,0-4.43-1,9.35,9.35,0,0,0-4.5,1A10.61,10.61,0,0,0,308.69,20a13.79,13.79,0,0,0-2.19,4,20.28,20.28,0,0,0-1.07,4.67h21.8a16.08,16.08,0,0,0-.83-4.71Z" fill="#3d3d3d"/><path d="M340.67,13.51v8.25h.12a13.55,13.55,0,0,1,4.87-6.62A12.32,12.32,0,0,1,353.52,13v4.3a12,12,0,0,0-5.08.78,11.36,11.36,0,0,0-3.95,2.63,11.8,11.8,0,0,0-2.58,4.06A13.93,13.93,0,0,0,341,30V48.71h-4.11V13.51Z" fill="#3d3d3d"/><path d="M376.82,20.36a7,7,0,0,0-1.92-2.42,7.88,7.88,0,0,0-2.77-1.4,12.14,12.14,0,0,0-3.33-.44,12.34,12.34,0,0,0-2.78.31,8.33,8.33,0,0,0-2.58,1,5.57,5.57,0,0,0-1.89,1.88,5.37,5.37,0,0,0-.72,2.86,4.24,4.24,0,0,0,.69,2.42,6.25,6.25,0,0,0,1.73,1.67,10.76,10.76,0,0,0,2.28,1.13c.83.29,1.59.53,2.29.71l5.48,1.3a15.12,15.12,0,0,1,3.49,1,11.09,11.09,0,0,1,3.07,1.87,9.18,9.18,0,0,1,2.19,2.87,9,9,0,0,1,.85,4A9.05,9.05,0,0,1,381.65,44a10.31,10.31,0,0,1-3.16,3.28,13.23,13.23,0,0,1-4.34,1.8,21.81,21.81,0,0,1-4.77.55,15,15,0,0,1-9.62-2.93c-2.46-2-3.87-5.09-4.21-9.42h4.11a8.62,8.62,0,0,0,3,6.59,10.71,10.71,0,0,0,6.89,2.21,14.72,14.72,0,0,0,3.1-.34,9.62,9.62,0,0,0,3-1.16,7.1,7.1,0,0,0,2.25-2.08,5.34,5.34,0,0,0,.89-3.1,5.14,5.14,0,0,0-.63-2.63A5.5,5.5,0,0,0,376.5,35a10.19,10.19,0,0,0-2.38-1.19,27.12,27.12,0,0,0-2.71-.82l-5.29-1.23a30.14,30.14,0,0,1-3.72-1.26,12.26,12.26,0,0,1-3-1.78,7.32,7.32,0,0,1-2-2.59,9,9,0,0,1-.72-3.79,8.71,8.71,0,0,1,1.15-4.57,9.08,9.08,0,0,1,3-3.07,13.37,13.37,0,0,1,4.07-1.7,18.82,18.82,0,0,1,4.48-.55,16.11,16.11,0,0,1,4.73.68A10.54,10.54,0,0,1,378,15.28a10.31,10.31,0,0,1,2.64,3.54,13.22,13.22,0,0,1,1.11,5h-4.11A8.21,8.21,0,0,0,376.82,20.36Z" fill="#3d3d3d"/><path d="M389.68,19a10.09,10.09,0,0,1,2.84-3.69,11.76,11.76,0,0,1,4.21-2.11,19.4,19.4,0,0,1,5.35-.69,22.08,22.08,0,0,1,4.44.45,10.42,10.42,0,0,1,4,1.67A9,9,0,0,1,413.38,18a13,13,0,0,1,1.11,5.77V42.5c0,1.73.8,2.6,2.41,2.6a3,3,0,0,0,1.3-.28v3.62c-.47.09-.9.16-1.27.2a13,13,0,0,1-1.4.07,6,6,0,0,1-2.51-.45A3.39,3.39,0,0,1,411.55,47a4.79,4.79,0,0,1-.68-1.94,17.37,17.37,0,0,1-.17-2.49h-.13a27.63,27.63,0,0,1-2.25,3,11,11,0,0,1-5.75,3.58,16.56,16.56,0,0,1-4.27.48,16,16,0,0,1-4.41-.58,9.69,9.69,0,0,1-3.58-1.84A8.7,8.7,0,0,1,387.89,44a11,11,0,0,1-.88-4.6,9.39,9.39,0,0,1,1.56-5.76,10,10,0,0,1,4.15-3.18A22.85,22.85,0,0,1,398.53,29c2.15-.3,4.34-.58,6.56-.86a22,22,0,0,0,2.28-.34,4,4,0,0,0,1.64-.71,3.43,3.43,0,0,0,1-1.4,6.32,6.32,0,0,0,.35-2.32,8,8,0,0,0-.68-3.58,5.57,5.57,0,0,0-1.89-2.22A7.38,7.38,0,0,0,405,16.41a17.17,17.17,0,0,0-3.43-.31,10.06,10.06,0,0,0-6.4,1.94q-2.48,2-2.61,6.24h-4.11A14.72,14.72,0,0,1,389.68,19Zm20.56,10.5a2.35,2.35,0,0,1-1.5,1.09,13.21,13.21,0,0,1-1.95.48c-1.75.32-3.54.6-5.39.85A28.25,28.25,0,0,0,396.34,33a9.76,9.76,0,0,0-3.75,2.14,5.3,5.3,0,0,0-1.47,4,6.47,6.47,0,0,0,.62,2.9,6.83,6.83,0,0,0,1.67,2.18,7,7,0,0,0,2.41,1.4,8.38,8.38,0,0,0,2.81.48,13.8,13.8,0,0,0,4.5-.75,10.83,10.83,0,0,0,3.75-2.19,10.45,10.45,0,0,0,2.55-3.48,10.85,10.85,0,0,0,.94-4.63V29.48Z" fill="#3d3d3d"/><path d="M426.5,13.51v8.25h.13a13.47,13.47,0,0,1,4.86-6.62A12.35,12.35,0,0,1,439.36,13v4.3a12.09,12.09,0,0,0-5.09.78,11.36,11.36,0,0,0-3.95,2.63,11.8,11.8,0,0,0-2.58,4.06,14.16,14.16,0,0,0-.91,5.15V48.71h-4.11V13.51Z" fill="#3d3d3d"/><path d="M443.86,13.51l11.1,30,10.38-30h4.11L454.83,54a40.14,40.14,0,0,1-1.7,3.72,8.68,8.68,0,0,1-1.73,2.31,5.53,5.53,0,0,1-2.22,1.23,11.75,11.75,0,0,1-3.23.38l-1.93-.1a4.19,4.19,0,0,1-1.21-.24V57.71l1.4.24a9.51,9.51,0,0,0,1.4.1,5.31,5.31,0,0,0,2.26-.41,4.84,4.84,0,0,0,1.53-1.12,6.77,6.77,0,0,0,1.11-1.74l1-2.25,1.44-4L439.48,13.51Z" fill="#3d3d3d"/><path d="M157.51,72.8a10.09,10.09,0,0,1,2.84-3.69A11.72,11.72,0,0,1,164.57,67a19.31,19.31,0,0,1,5.35-.69,22.83,22.83,0,0,1,4.44.45,10.37,10.37,0,0,1,4,1.67,9,9,0,0,1,2.87,3.44,12.87,12.87,0,0,1,1.11,5.77V96.33c0,1.73.8,2.59,2.41,2.59a3.11,3.11,0,0,0,1.31-.27v3.61a10.55,10.55,0,0,1-1.27.2,11,11,0,0,1-1.4.07,5.82,5.82,0,0,1-2.51-.44,3.34,3.34,0,0,1-1.47-1.26,4.85,4.85,0,0,1-.69-2,17.17,17.17,0,0,1-.16-2.49h-.13a29.2,29.2,0,0,1-2.26,3,11.45,11.45,0,0,1-2.54,2.22,11.6,11.6,0,0,1-3.2,1.36,17.14,17.14,0,0,1-4.28.48,16.31,16.31,0,0,1-4.4-.58,9.65,9.65,0,0,1-3.59-1.84,8.78,8.78,0,0,1-2.42-3.21,11,11,0,0,1-.88-4.6,9.38,9.38,0,0,1,1.57-5.77,10,10,0,0,1,4.14-3.17,22.85,22.85,0,0,1,5.81-1.53c2.15-.3,4.34-.58,6.56-.86a19.76,19.76,0,0,0,2.29-.34,4,4,0,0,0,1.63-.71,3.43,3.43,0,0,0,1-1.4,6.55,6.55,0,0,0,.36-2.32,8.17,8.17,0,0,0-.69-3.58,5.64,5.64,0,0,0-1.89-2.22,7.54,7.54,0,0,0-2.81-1.12,17.94,17.94,0,0,0-3.43-.31A10.09,10.09,0,0,0,163,71.87q-2.49,1.95-2.61,6.25h-4.12A14.77,14.77,0,0,1,157.51,72.8Zm20.57,10.5a2.4,2.4,0,0,1-1.5,1.09,13.66,13.66,0,0,1-2,.48q-2.61.48-5.39.85a28.25,28.25,0,0,0-5.06,1.13A9.78,9.78,0,0,0,160.42,89,5.26,5.26,0,0,0,159,93a6.47,6.47,0,0,0,.62,2.9,7.12,7.12,0,0,0,4.08,3.58,8.62,8.62,0,0,0,2.8.47,13.48,13.48,0,0,0,4.5-.74A11.19,11.19,0,0,0,174.71,97a10.67,10.67,0,0,0,2.54-3.48,11.05,11.05,0,0,0,.95-4.64V83.3Z" fill="#3d3d3d"/><path d="M194.59,67.34v6.07h.13a10.19,10.19,0,0,1,4.18-5.15,11.85,11.85,0,0,1,6.59-2,16.11,16.11,0,0,1,5.91,1A9.35,9.35,0,0,1,215.21,70a10.36,10.36,0,0,1,2,4.27,25.07,25.07,0,0,1,.58,5.66v22.65h-4.11v-22a21.18,21.18,0,0,0-.39-4.2A9,9,0,0,0,212,73a6.79,6.79,0,0,0-2.64-2.26,9.56,9.56,0,0,0-4.15-.82,10.19,10.19,0,0,0-4.41.93,9.55,9.55,0,0,0-3.26,2.52,11.87,11.87,0,0,0-2.09,3.82,16,16,0,0,0-.81,4.81v20.53h-4.11V67.33Z" fill="#3d3d3d"/><path d="M229.64,67.34v6.07h.13A10.15,10.15,0,0,1,234,68.26a11.88,11.88,0,0,1,6.59-2,16.08,16.08,0,0,1,5.91,1A9.45,9.45,0,0,1,250.27,70a10.34,10.34,0,0,1,2,4.27,25.08,25.08,0,0,1,.59,5.66v22.65h-4.11v-22a22,22,0,0,0-.39-4.2A9.21,9.21,0,0,0,247,73a6.72,6.72,0,0,0-2.64-2.26,9.52,9.52,0,0,0-4.14-.82,10.16,10.16,0,0,0-4.41.93,9.45,9.45,0,0,0-3.26,2.52,11.68,11.68,0,0,0-2.09,3.82,16,16,0,0,0-.82,4.81v20.53h-4.11V67.33Z" fill="#3d3d3d"/><path d="M264.82,53.83v6.89h-4.11V53.83Zm0,13.51v35.2h-4.11V67.34Z" fill="#3d3d3d"/><path d="M273.5,67.34l10.58,30.9h.13l10.44-30.9h4.24l-12.6,35.2h-4.37l-13-35.2Z" fill="#3d3d3d"/><path d="M306,90.9a13.55,13.55,0,0,0,2,4.47,11.52,11.52,0,0,0,3.46,3.28,9.32,9.32,0,0,0,5,1.29,9.75,9.75,0,0,0,7.05-2.45A13.16,13.16,0,0,0,327,90.94h4.11a17.42,17.42,0,0,1-4.8,9.28q-3.49,3.27-9.89,3.27a15,15,0,0,1-6.88-1.47,12.79,12.79,0,0,1-4.74-4,17.86,17.86,0,0,1-2.7-5.94,28,28,0,0,1-.89-7.12,26.67,26.67,0,0,1,.89-6.83,18.84,18.84,0,0,1,2.7-6,13.58,13.58,0,0,1,11.62-5.82,13.38,13.38,0,0,1,6.92,1.7A14.16,14.16,0,0,1,328,72.49a19.18,19.18,0,0,1,2.58,6.34,29.13,29.13,0,0,1,.65,7.27H305.35A19.93,19.93,0,0,0,306,90.9Zm20.37-13.13a13.21,13.21,0,0,0-2.12-4,10.71,10.71,0,0,0-3.33-2.8,9.14,9.14,0,0,0-4.44-1,9.4,9.4,0,0,0-4.5,1,10.82,10.82,0,0,0-3.33,2.8,14.19,14.19,0,0,0-2.18,4,20.3,20.3,0,0,0-1.08,4.67h21.8a16.41,16.41,0,0,0-.82-4.71Z" fill="#3d3d3d"/><path d="M340.6,67.34v8.25h.13A13.43,13.43,0,0,1,345.6,69a12.3,12.3,0,0,1,7.86-2.11v4.3a11.93,11.93,0,0,0-5.09.78,11.45,11.45,0,0,0-3.95,2.63,11.8,11.8,0,0,0-2.58,4.06,14.16,14.16,0,0,0-.91,5.15v18.76h-4.11V67.34Z" fill="#3d3d3d"/><path d="M376.76,74.19a7,7,0,0,0-1.92-2.42,7.76,7.76,0,0,0-2.78-1.4,12.44,12.44,0,0,0-3.33-.45,12.92,12.92,0,0,0-2.77.31,8.33,8.33,0,0,0-2.58,1,5.66,5.66,0,0,0-1.89,1.88,5.32,5.32,0,0,0-.72,2.86,4.19,4.19,0,0,0,.68,2.43,6.43,6.43,0,0,0,1.74,1.67,10.73,10.73,0,0,0,2.28,1.12c.83.3,1.59.54,2.29.72l5.48,1.3a15.12,15.12,0,0,1,3.49,1,11.23,11.23,0,0,1,3.07,1.87A9.15,9.15,0,0,1,382,89a8.87,8.87,0,0,1,.85,4,9.07,9.07,0,0,1-1.24,4.88,10.32,10.32,0,0,1-3.16,3.28,13.47,13.47,0,0,1-4.34,1.81,22.58,22.58,0,0,1-4.77.54,15.06,15.06,0,0,1-9.63-2.93q-3.69-2.94-4.21-9.42h4.11a8.66,8.66,0,0,0,3,6.59,10.69,10.69,0,0,0,6.89,2.21,14.72,14.72,0,0,0,3.1-.34,9.57,9.57,0,0,0,3-1.16,7.13,7.13,0,0,0,2.26-2.08,5.33,5.33,0,0,0,.88-3.1,5.1,5.1,0,0,0-.62-2.62,5.57,5.57,0,0,0-1.67-1.78,10.19,10.19,0,0,0-2.38-1.19,28.2,28.2,0,0,0-2.71-.82l-5.29-1.23a30.71,30.71,0,0,1-3.72-1.26,11.66,11.66,0,0,1-3-1.78,7.44,7.44,0,0,1-2-2.59,8.9,8.9,0,0,1-.71-3.78,8.7,8.7,0,0,1,1.14-4.57,9,9,0,0,1,3-3.07,13.34,13.34,0,0,1,4.08-1.71,18.66,18.66,0,0,1,4.47-.54,15.47,15.47,0,0,1,4.73.68,10.66,10.66,0,0,1,3.85,2.11,10.4,10.4,0,0,1,2.65,3.55,13.52,13.52,0,0,1,1.11,5h-4.12A8.4,8.4,0,0,0,376.76,74.19Z" fill="#3d3d3d"/><path d="M389.62,72.8a10,10,0,0,1,2.84-3.69A11.76,11.76,0,0,1,396.67,67a19.36,19.36,0,0,1,5.35-.69,22.83,22.83,0,0,1,4.44.45,10.42,10.42,0,0,1,4,1.67,9.12,9.12,0,0,1,2.87,3.44,13,13,0,0,1,1.1,5.77V96.33c0,1.73.81,2.59,2.42,2.59a3.11,3.11,0,0,0,1.31-.27v3.61a10.55,10.55,0,0,1-1.27.2,11.1,11.1,0,0,1-1.41.07,5.82,5.82,0,0,1-2.51-.44,3.46,3.46,0,0,1-1.47-1.26,5,5,0,0,1-.69-2,18.71,18.71,0,0,1-.16-2.49h-.13a30.2,30.2,0,0,1-2.25,3,11.28,11.28,0,0,1-2.55,2.22,11.6,11.6,0,0,1-3.2,1.36,17.06,17.06,0,0,1-4.27.48,16.44,16.44,0,0,1-4.41-.58,9.81,9.81,0,0,1-3.59-1.84,8.75,8.75,0,0,1-2.41-3.21,11,11,0,0,1-.88-4.6,9.44,9.44,0,0,1,1.56-5.77,10.05,10.05,0,0,1,4.15-3.17,22.85,22.85,0,0,1,5.81-1.53c2.15-.3,4.34-.58,6.56-.86a19.59,19.59,0,0,0,2.28-.34,3.91,3.91,0,0,0,1.63-.71,3.2,3.2,0,0,0,1-1.4,6.13,6.13,0,0,0,.36-2.32,8.16,8.16,0,0,0-.68-3.58,5.67,5.67,0,0,0-1.9-2.22,7.43,7.43,0,0,0-2.8-1.12,17.94,17.94,0,0,0-3.43-.31,10.12,10.12,0,0,0-6.4,1.94q-2.48,1.95-2.61,6.25h-4.11A14.77,14.77,0,0,1,389.62,72.8Zm20.56,10.5a2.32,2.32,0,0,1-1.5,1.09,13.34,13.34,0,0,1-2,.48c-1.74.32-3.54.6-5.38.85a28.25,28.25,0,0,0-5.06,1.13A9.82,9.82,0,0,0,392.52,89a5.22,5.22,0,0,0-1.46,4,6.47,6.47,0,0,0,.62,2.9,6.94,6.94,0,0,0,1.66,2.18,7.24,7.24,0,0,0,2.42,1.4,8.36,8.36,0,0,0,2.8.47,13.48,13.48,0,0,0,4.5-.74A11,11,0,0,0,406.82,97a10.53,10.53,0,0,0,2.54-3.48,11.05,11.05,0,0,0,.95-4.64V83.3Z" fill="#3d3d3d"/><path d="M426.83,53.83v6.89h-4.12V53.83Zm0,13.51v35.2h-4.12V67.34Z" fill="#3d3d3d"/><path d="M438.51,67.34v8.25h.13A13.47,13.47,0,0,1,443.5,69a12.35,12.35,0,0,1,7.87-2.11v4.3a12,12,0,0,0-5.09.78,11.45,11.45,0,0,0-3.95,2.63,11.8,11.8,0,0,0-2.58,4.06,14.12,14.12,0,0,0-.91,5.15v18.76h-4.11V67.34Z" fill="#3d3d3d"/><path d="M457.15,90.9a13.32,13.32,0,0,0,2,4.47,11.52,11.52,0,0,0,3.46,3.28,9.32,9.32,0,0,0,5,1.29,9.75,9.75,0,0,0,7.05-2.45,13.16,13.16,0,0,0,3.53-6.55h4.11a17.42,17.42,0,0,1-4.8,9.28q-3.5,3.27-9.89,3.27a15,15,0,0,1-6.88-1.47A12.72,12.72,0,0,1,456,98a18.09,18.09,0,0,1-2.71-5.94,28.46,28.46,0,0,1-.88-7.12,27.11,27.11,0,0,1,.88-6.83,19.08,19.08,0,0,1,2.71-6,13.58,13.58,0,0,1,11.62-5.82,13.38,13.38,0,0,1,6.92,1.7,14.16,14.16,0,0,1,4.67,4.47,19,19,0,0,1,2.57,6.34,28.68,28.68,0,0,1,.66,7.27H456.53A19.45,19.45,0,0,0,457.15,90.9Zm20.36-13.13a13.21,13.21,0,0,0-2.12-4,10.71,10.71,0,0,0-3.33-2.8,9.14,9.14,0,0,0-4.44-1,9.4,9.4,0,0,0-4.5,1,10.82,10.82,0,0,0-3.33,2.8,14.19,14.19,0,0,0-2.18,4,19.8,19.8,0,0,0-1.08,4.67h21.8A16.07,16.07,0,0,0,477.51,77.77Z" fill="#3d3d3d"/></svg>