<svg xmlns="http://www.w3.org/2000/svg" viewBox="0 0 531.34 531.29"><path d="M273.57,531.29,266.22,281.4h.27l9.19,249.83Zm-18.86-.11-2.12-.1,12.21-249.7h.28Zm39.75-1.33L267.65,281.3l29.27,248.28Zm-60.66-.35-2.13-.27,31.76-248,.25,0Zm81.78-2.8L268.67,281.15l.19,0,48.9,245.17ZM213,526.15l-2.12-.44L262.17,281l.24,0ZM336,522,270.06,280.82l68.3,240.49Zm-143.65-.85-2.12-.62,70.86-239.75.2.06Zm164.06-5.64L271,280.53l.22-.08,87.24,234.28Zm-184.28-1.05-2.07-.79,90-233.24.18.07Zm203.62-6.85L272.34,280l.1,0,105.38,226.7Zm-223.16-1.41-2.25-1.08L255.37,288Zm242.29-8.26L273.16,279.54l.11-.06,123.62,217.3Zm-261-1.5L132,495.35,257.75,279.27l.25.15Zm279-9.46L274.3,278.85l.15-.1,140.23,207C414.07,486.13,413.46,486.55,412.84,487ZM116,485.22,114.14,484,256.73,278.61l.17.12Zm313.89-10.59L275.4,278.05l156.41,195ZM99,472.63c-.62-.5-1.24-1-1.85-1.51L255.85,277.94ZM445.8,461,285.88,287.31l161.74,172C447,459.92,446.41,460.48,445.8,461ZM83.17,458.79l-1.73-1.64L254.83,277ZM460.89,446,277.23,276.35l.09-.1,185.11,168C461.92,444.84,461.41,445.41,460.89,446ZM68.33,443.6l-1.58-1.77L254,276.21Zm406.41-13.88L277.92,275.56l.33-.42,197.63,153.1ZM54.91,427.48c-.48-.62-1-1.25-1.43-1.88L253.11,275.11ZM487.05,412.7,278.75,274.44l.16-.23,209.31,136.7ZM42.7,410.2c-.42-.63-.82-1.27-1.23-1.9L252.36,274l.07.11ZM498,394.73,279.48,273.27l0-.09L499.09,392.72C498.73,393.39,498.36,394.06,498,394.73ZM31.88,392l-1-1.9L251.71,272.92l.11.21Zm475.53-15.89L294,278.24l214.51,95.52C508.12,374.54,507.77,375.32,507.41,376.09Zm-484.79-3-.93-2.1,229.52-99.11Zm493-16.93-235.09-85,.08-.23,235.73,83.24ZM14.83,353.39l-.78-2.28,236.77-80.25ZM522,335.92,280.83,270l.07-.23,241.64,64.08C522.36,334.53,522.17,335.22,522,335.92ZM8.62,333l-.54-2.09,242.36-61.35.06.23Zm518.13-17.75L281.11,268.82l0-.24,246,44.57C527,313.85,526.89,314.56,526.75,315.27ZM4.08,312.32l-.36-2.12L250.2,268.4l0,.25Zm525.77-17.91L281.3,267.54l0-.26,248.75,25C530,293,529.92,293.7,529.85,294.41ZM1.23,291.47,1,289.19l249-22v.12ZM259.13,280,259,280Zm272.15-6.55-249.89-7.31,250,4.9ZM0,270.36l0-2.12,250-2.44v.28Zm281.33-5.65,249.58-14.63c0,.81.09,1.62.13,2.43ZM250,264.65.48,249.4c.05-.71.09-1.41.14-2.12L250,264.38Zm31.25-1,0-.25,247.65-34.2c.09.71.19,1.42.28,2.13Zm-31.1-.43L2.59,228.51c.1-.76.22-1.53.33-2.3Zm30.89-.84,0-.2,244.14-53.78c.16.71.31,1.42.47,2.14Zm-30.7-.18-244-54.58c.16-.72.32-1.43.49-2.14L250.4,262Zm30.44-.88-.07-.23,239-73.26.63,2.07Zm-30.13-.3L11.83,187.14l.69-2.2L250.7,260.89Zm29.73-.9-.06-.13,232.38-92.2c.28.71.56,1.41.83,2.12Zm-28.85-1.29-224-111.08c.33-.66.66-1.32,1-2L251.63,258.63Zm27.94-.65-.23-.39L494.07,129.87c.34.56.67,1.12,1,1.68Zm-.76-1.22-.2-.28L482.61,112.24c.39.56.78,1.11,1.17,1.68Zm-25.85-.32L49.28,111.52l1.35-1.87L252.94,256.52Zm25-.76-.16-.19,192-160.17,1.37,1.66Zm-24.29-.21L62.26,94.78c.49-.58,1-1.17,1.48-1.75l190,162.52ZM238.86,255,18.92,167.09c.31-.77.63-1.54.94-2.32Zm38.16-.14-.16-.17L455.61,79.89c.51.51,1,1,1.51,1.55Zm-22.54-.12L76.49,79.15,78,77.61,254.64,254.54Zm21.62-.77-.08-.07L440.17,65.31l1.72,1.51Zm-20.62-.17L91.83,64.78l1.73-1.49,162,190.41Zm19.75-.55-.33-.25L423.83,52.17l1.59,1.2ZM256.49,253,108.3,51.62l1.79-1.3L256.64,252.86Zm17.45-.65-.08,0,132.5-212c.65.4,1.3.81,1.94,1.23Zm-16.43,0L125.83,39.77l2-1.25Zm-15-.38L37.73,129.16c.43-.72.86-1.43,1.3-2.14Zm30.37-.19,115-222L390,30.85Zm-14.35,0L144.27,29.33l1.86-.95L258.79,251.56Zm36.6-.32,209.05-102.9c.37.75.74,1.5,1.1,2.25ZM272,251.27l-.23-.1,97-230.42,2,.84Zm-12.27-.12L163.37,20.45l2.11-.87L259.8,251.11Zm11.1-.34-.12,0L348.75,13.28,351,14Zm-9.94-.09L183.23,13.08l2.24-.72Zm8.74-.26-.09,0,58.91-243,2.24.55ZM262,250.4,203.63,7.32c.76-.19,1.52-.36,2.28-.54Zm6.35-.19L307.65,3.31l2.32.38Zm-5.36,0-38.47-247,2.1-.32,36.64,247.3Zm4.22-.14h-.11L286.62.82,288.9,1Zm-2.87,0L245.42.77,247.71.6,264.48,250Zm1.46-.05h-.13V0H268Z" fill="#ffc000"/><g opacity="0.75" style="isolation:isolate"><path d="M269.87,360.72l-.88-20,1.07-.05,1.13,20Zm-11.23-.21-1.37-.12,2-19.91,1,.09Zm23.71-1.19-3.61-19.67,1-.2,3.91,19.61Zm-36.16-.71-1.33-.31,4.7-19.44,1,.24Zm48.36-2.44-6.34-19,1-.34,6.65,18.86ZM234.11,355l-1.25-.48,7.35-18.6,1,.38Zm72.06-3.63-8.92-17.9.92-.47,9.22,17.75Zm-83.5-1.66-1.19-.67,9.94-17.36.9.51ZM317,344.93l-11.37-16.45.86-.61,11.6,16.29C317.75,344.42,317.39,344.68,317,344.93ZM212.1,342.85,211,342l12.25-15.81.83.63Zm114.74-5.77L313.3,322.36c.26-.23.51-.47.76-.71l13.77,14.51C327.51,336.47,327.18,336.78,326.84,337.08Zm-124.26-2.47c-.32-.31-.63-.63-.94-.95l14.31-14,.75.75ZM335.48,328,320,315.24l.64-.8,15.66,12.44C336.06,327.24,335.77,327.59,335.48,328Zm-141.17-2.81-.81-1.09,16.13-11.82c.2.28.41.56.62.83Zm148.46-7.45-17.06-10.44.53-.88,17.24,10.14ZM187.43,314.6c-.22-.39-.43-.79-.64-1.18L204.4,304l.51.93Zm161.15-8.13-18.39-7.88.42-1,18.48,7.64ZM182.1,303.2l-.48-1.26L200.4,295l.36,1Zm170.63-8.63-19.3-5.23.27-1,19.37,5C353,293.72,352.85,294.15,352.73,294.57Zm-174.32-3.42c-.1-.43-.19-.87-.29-1.3l19.56-4.21c.07.35.15.69.23,1Zm176.76-8.92-19.84-2.5.12-1,19.88,2.2C355.28,281.34,355.23,281.79,355.17,282.23Zm-178.71-3.51c0-.45-.07-.9-.11-1.35l20-1.41c0,.35.05.7.08,1.05Zm159.41-8.79c0-.34,0-.68,0-1l20-.59,0,1.37ZM196.22,267.2l-20-1.05c0-.45.05-.9.08-1.34l20,1.34C196.26,266.5,196.24,266.85,196.22,267.2Zm138.84-7c-.06-.35-.11-.71-.17-1.06l19.72-3.32.21,1.31Zm-137.64-2.71-19.63-3.83c.08-.44.17-.88.26-1.32l19.58,4.11C197.56,256.79,197.48,257.14,197.42,257.49Zm135.47-6.86c-.1-.33-.21-.66-.31-1l19.06-6.06c.13.43.27.86.4,1.3ZM200,248l-18.9-6.54c.15-.43.3-.86.46-1.28l18.79,6.84Zm129.45-6.51c-.15-.32-.3-.64-.46-1l18-8.68c.2.4.39.8.57,1.21ZM203.81,239,186,229.9l.63-1.2,17.65,9.41C204.13,238.42,204,238.73,203.81,239ZM324.68,233c-.19-.3-.39-.59-.59-.89L340.72,221l.73,1.11Zm-115.79-2.31-16.34-11.53c.26-.38.53-.75.8-1.11l16.14,11.8Zm109.89-5.52c-.23-.26-.46-.53-.69-.78L333,211c.3.33.6.67.89,1Zm-103.69-2.06-14.58-13.7.94-1,14.35,13.94C215.56,222.57,215.32,222.82,215.09,223.08Zm96.77-4.87-.79-.68L324,202.25l1,.88Zm-89.59-1.78-12.52-15.6,1.05-.83,12.3,15.77Zm81.79-4.11-.9-.58,10.66-16.92,1.12.71Zm-73.75-1.48-10.23-17.18,1.16-.68,10,17.33Zm65.18-3.28-1-.44,8.18-18.25,1.23.56ZM239,206.44,231.31,188l1.25-.52L240,206.05Zm47.3-2.38-1-.3,5.51-19.22c.44.13.88.25,1.31.39Zm-38-.75L243.24,184l1.32-.33,4.75,19.43Zm28.52-1.42-1.05-.16,2.78-19.8,1.33.19Zm-18.9-.37-2.3-19.87,1.35-.15,2,19.91Zm9.14-.46H266v-20h1.35Z" fill="#ffc000"/></g></svg>