<svg xmlns="http://www.w3.org/2000/svg" width="2524.257" height="2336.048" viewBox="0 0 2524.257 2336.048">
  <g id="Group_126" data-name="Group 126" transform="translate(-415.331 493.394)">
    <path id="Path_13" data-name="Path 13" d="M1896.991,201.3c375.81,0,680.464,304.507,680.464,680.136s-304.654,680.135-680.464,680.135H514.912" transform="translate(-97.763 0)" fill="none" stroke="#ffcb06" stroke-miterlimit="10" stroke-width="8"/>
    <path id="Path_14" data-name="Path 14" d="M1882.91,201.886c362.886-1.175,652.887,291.2,653.33,651.41.443,322.123-233.354,588.254-540.155,642.882-26.514,4.721-59.63,8.163-87.192,9.512-10.083.493-22.487.788-32.693.788l-1368.941-10.3" transform="translate(-87.987 -0.327)" fill="none" stroke="#ffcb06" stroke-miterlimit="10" stroke-width="7.3"/>
    <path id="Path_15" data-name="Path 15" d="M1868.829,202.461c349.961-2.35,625.309,277.9,626.2,622.684.887,310.933-226.8,565.876-523.812,616.887-23.594,4.052-59.738,7.391-84.238,8.59-8.963.439-22.5.751-31.568.751l-1360.048-.751" transform="translate(-78.21 -0.644)" fill="none" stroke="#ffcb06" stroke-miterlimit="10" stroke-width="6.6"/>
    <path id="Path_16" data-name="Path 16" d="M1854.748,203.025c337.038-3.526,597.732,264.594,599.063,593.957,1.33,299.743-220.2,543.491-507.469,590.892-20.667,3.41-59.846,6.619-81.283,7.668-7.842.384-22.505.714-30.443.714H489.826" transform="translate(-68.434 -0.95)" fill="none" stroke="#ffcb06" stroke-miterlimit="10" stroke-width="5.9"/>
    <path id="Path_17" data-name="Path 17" d="M1840.667,203.575c324.114-4.7,570.155,251.29,571.928,565.232,1.774,288.552-213.571,521.1-491.125,564.9-17.734,2.8-59.953,5.847-78.328,6.746-6.722.329-22.514.675-29.318.675H477.928" transform="translate(-58.657 -1.243)" fill="none" stroke="#ffcb06" stroke-miterlimit="10" stroke-width="5.2"/>
    <path id="Path_18" data-name="Path 18" d="M1826.586,204.112c311.189-5.876,542.577,237.986,544.795,536.506,2.218,277.362-206.894,498.7-474.782,538.9-14.8,2.221-60.061,5.075-75.373,5.824-5.6.274-22.523.638-28.193.638H464.213" transform="translate(-48.881 -1.523)" fill="none" stroke="#ffcb06" stroke-miterlimit="10" stroke-width="4.5"/>
    <path id="Path_19" data-name="Path 19" d="M1812.506,204.633c298.266-7.051,515,224.681,517.661,507.78,2.66,266.173-200.167,476.3-458.439,512.907-11.851,1.68-60.169,4.3-72.419,4.9-4.481.219-22.532.6-27.068.6H458.376" transform="translate(-39.105 -1.787)" fill="none" stroke="#ffcb06" stroke-miterlimit="10" stroke-width="3.8"/>
    <path id="Path_20" data-name="Path 20" d="M1798.425,205.136c285.341-8.226,487.422,211.377,490.527,479.054,3.1,254.982-193.385,453.884-442.1,486.912-8.9,1.182-60.276,3.53-69.464,3.979-3.361.164-22.541.564-25.943.564H448" transform="translate(-29.329 -2.032)" fill="none" stroke="#ffcb06" stroke-miterlimit="10" stroke-width="3.1"/>
    <path id="Path_21" data-name="Path 21" d="M1784.343,205.617c272.418-9.4,459.845,198.073,463.393,450.328,3.548,243.792-186.54,431.463-425.752,460.918-5.94.731-60.384,2.757-66.509,3.057-2.241.109-22.55.526-24.818.526l-1291.234-.526" transform="translate(-19.552 -2.256)" fill="none" stroke="#ffcb06" stroke-miterlimit="10" stroke-width="2.4"/>
    <path id="Path_22" data-name="Path 22" d="M1770.263,206.074c259.493-10.576,432.267,184.768,436.259,421.6,3.991,232.6-179.626,409.033-409.409,434.923-2.974.335-60.491,1.985-63.554,2.135-1.12.055-22.559.489-23.693.489H435.047" transform="translate(-9.776 -2.455)" fill="none" stroke="#ffcb06" stroke-miterlimit="10" stroke-width="1.7"/>
    <path id="Path_23" data-name="Path 23" d="M1756.182,206.5c246.569-11.751,404.69,171.464,409.125,392.876s-171.546,404.5-393.065,408.928l-60.6,1.213-91.172,1.824" transform="translate(0 -2.625)" fill="none" stroke="#ffcb06" stroke-miterlimit="10" stroke-width="1"/>
  </g>
  <circle id="Ellipse_174" data-name="Ellipse 174" cx="574.001" cy="574.001" r="574.001" transform="translate(778.359 704.43)" fill="none" stroke="#ffbf00" stroke-linecap="round" stroke-linejoin="round" stroke-width="8" stroke-dasharray="0 36"/>
  <circle id="Ellipse_175" data-name="Ellipse 175" cx="1164.024" cy="1164.024" r="1164.024" transform="translate(192.209 4)" fill="none" stroke="#0085c9" stroke-linecap="round" stroke-linejoin="round" stroke-width="8" stroke-dasharray="0 36"/>
</svg>
