<svg xmlns="http://www.w3.org/2000/svg" viewBox="0 0 211.9 28.98"><path d="M0,11.25V6L3.87,2.12V12.21L2.42,13.7ZM3.87,16.6V26.7L0,22.82V17.57l2.42-2.42Z" fill="#ee584a"/><path d="M13.8,17.59v5.24L9.93,26.7V16.62l1.45-1.45ZM25.7,1.39,21.83,5.25H14.54L10.67,1.39Zm0,26h-15l3.86-3.87h7.3Zm-3.38-15,1.93,1.94-1.93,1.93H14.06l-1.94-1.93,1.94-1.94Zm.22-1.26V6l3.87-3.82v10L25,13.67Z" fill="#ee584a"/><path d="M48,16.42,40.62,29l-1.46-5.32,4.92-8.37,3.35-.85Zm-.73-6.6,4.93-8.44L57.5,0,50.15,12.62l-2,.52Z" fill="#ee584a"/><path d="M71.91,11.25V6l3.87-3.88V12.21L74.33,13.7Zm3.87,5.35V26.7l-3.87-3.88V17.57l2.42-2.42Z" fill="#ee584a"/><path d="M81.84,12.15v-10l3.87,3.81v5.25l-2.42,2.46ZM97.61,1.39,93.75,5.26h-7.3L82.58,1.39Zm0,26h-15l3.87-3.87h7.3Zm-3.38-15,1.93,1.94-1.93,1.93H86L84,14.41,86,12.47Zm4.09,4.11V26.67l-3.86-3.88V17.55l2.41-2.42Z" fill="#ee584a"/><path d="M119.86,16.42,112.53,29l-1.46-5.32L116,15.29l3.35-.85Zm-.73-6.6,4.93-8.44L129.41,0l-7.35,12.62-2,.52Z" fill="#ee584a"/><path d="M143.82,11.25V6l3.87-3.88V12.21l-1.45,1.49Zm3.87,5.35V26.7l-3.87-3.88V17.57l2.42-2.42Z" fill="#ee584a"/><path d="M153.75,12.21V2.11l3.87,3.82v5.29L155.2,13.7ZM169.53,1.39l-3.87,3.87h-7.3L154.5,1.39Zm0,26h-15l3.86-3.87h7.3Zm-3.39-15,1.94,1.94-1.94,1.93h-8.25L156,14.41l1.94-1.94Zm.23-1.23V6l3.87-3.82V12.22l-1.46,1.48Zm3.87,5.36V26.67l-3.87-3.88V17.56l2.41-2.41Z" fill="#ee584a"/><path d="M190.36,1.39l-3.87,3.87H179.2l-3.87-3.87Zm-3.16,9.85V6l3.87-3.82V12.22l-1.46,1.48Zm3.87,5.36V26.7l-3.87-3.88V17.57l2.41-2.42Z" fill="#ee584a"/><path d="M195.42,12.21V2.12L199.29,6v5.26l-2.42,2.45Zm12.39.26,1.93,1.94-1.93,1.93h-8.26l-1.94-1.93,1.94-1.94Zm.22-1.22V6l3.87-3.87V12.21l-1.45,1.49Zm3.87,5.35V26.7L208,22.82V17.57l2.42-2.42Z" fill="#ee584a"/></svg>