<svg xmlns="http://www.w3.org/2000/svg" xmlns:xlink="http://www.w3.org/1999/xlink" viewBox="0 0 1748.07 1630.11"><defs><linearGradient id="a" x1="159.2" y1="1372.54" x2="159.82" y2="1371.76" gradientTransform="matrix(97, 0, 0, -97, -14790.05, 134179.32)" gradientUnits="userSpaceOnUse"><stop offset="0" stop-color="#8bc53f"/><stop offset="1" stop-color="#37b34a"/></linearGradient></defs><rect x="825.54" y="506.25" width="97" height="97" fill="#fff" opacity="0.32" style="isolation:isolate"/><rect x="1238.1" y="498.32" width="97" height="97" fill="#fff" opacity="0.32" style="isolation:isolate"/><rect x="1136.83" y="596.69" width="97" height="97" fill="#8ed8f8"/><rect x="1136.83" y="396.77" width="97" height="97" fill="#8ed8f8"/><rect x="1339.75" y="192.09" width="97" height="97" fill="#8ed8f8" opacity="0.5" style="isolation:isolate"/><rect x="1025.33" y="63.57" width="97" height="97" fill="#8ed8f8" opacity="0.5" style="isolation:isolate"/><rect x="725.86" y="606.22" width="97" height="97" fill="#8ed8f8" opacity="0.2" style="isolation:isolate"/><rect x="311.45" y="605.2" width="97" height="97" fill="#6fbae1" opacity="0.2" style="isolation:isolate"/><rect x="415.26" y="605.2" width="97" height="97" fill="#6fbae1" opacity="0.2" style="isolation:isolate"/><rect x="518.23" y="605.2" width="97" height="97" fill="#ccecfc" opacity="0.2" style="isolation:isolate"/><rect x="621.2" y="605.2" width="97" height="97" fill="#ccecfc" opacity="0.2" style="isolation:isolate"/><rect x="415.26" y="502.63" width="97" height="97" fill="#ccecfc" opacity="0.2" style="isolation:isolate"/><rect x="518.23" y="502.63" width="97" height="97" fill="#ccecfc" opacity="0.2" style="isolation:isolate"/><rect x="621.2" y="502.63" width="97" height="97" fill="#ccecfc" opacity="0.2" style="isolation:isolate"/><rect x="518.23" y="399.27" width="97" height="97" fill="#ccecfc"/><rect x="621.2" y="399.27" width="97" height="97" fill="#00aa4f" opacity="0.7" style="isolation:isolate"/><rect x="96.45" y="595" width="97" height="97" fill="#00aa4f" opacity="0.7" style="isolation:isolate"/><rect x="959.8" width="97" height="97" fill="#00aa4f" opacity="0.7" style="isolation:isolate"/><rect x="1498.19" y="117.41" width="97" height="97" fill="#37b34a" opacity="0.4" style="isolation:isolate"/><rect x="1240.14" y="396.67" width="97" height="97" fill="#8bc53f" opacity="0.4" style="isolation:isolate"/><rect x="1399.4" y="461.55" width="36.49" height="36.49" fill="#8bc53f" opacity="0.4" style="isolation:isolate"/><rect x="1057.56" y="616.03" width="36.49" height="36.49" fill="#8bc53f" opacity="0.4" style="isolation:isolate"/><rect x="769.75" y="438.68" width="36.49" height="36.49" fill="#8bc53f" opacity="0.4" style="isolation:isolate"/><rect x="1302.91" y="376.74" width="46.86" height="46.86" fill="#8bc53f"/><rect x="389.18" y="470.92" width="46.86" height="46.86" fill="#8bc53f"/><rect x="1345.87" y="599.76" width="97" height="97" fill="#37b34a" opacity="0.7" style="isolation:isolate"/><rect x="824.4" y="403.02" width="97" height="97" fill="#8bc53f" opacity="0.4" style="isolation:isolate"/><rect x="926.35" y="506.15" width="97" height="97" fill="#37b34a" opacity="0.4" style="isolation:isolate"/><rect x="1135.01" y="291.95" width="97" height="97" fill="#37b34a"/><rect x="797.32" y="72.99" width="97" height="97" fill="#37b34a" opacity="0.4" style="isolation:isolate"/><rect x="1401.41" y="192.64" width="164.57" height="164.57" fill="#37b34a" opacity="0.4" style="isolation:isolate"/><rect x="1071.49" y="19.69" width="164.57" height="164.57" fill="#37b34a" opacity="0.2" style="isolation:isolate"/><rect x="518.23" y="296.7" width="97" height="97" fill="#6fbae1"/><rect x="621.2" y="296.7" width="97" height="97" fill="#6fbae1"/><rect x="921.2" y="292.96" width="97" height="97" fill="#ccecfc" opacity="0.1" style="isolation:isolate"/><rect x="183.35" y="703.04" width="1148.17" height="623.67" fill="#00adee" opacity="0.6" style="isolation:isolate"/><rect x="104.73" y="1327.93" width="97" height="97" fill="#006288"/><rect x="104.73" y="1223.77" width="97" height="97" fill="#222458"/><rect y="1223.77" width="97" height="97" fill="#222458"/><rect x="104.73" y="1120.41" width="97" height="97" fill="#222458"/><rect x="104.73" y="1017.05" width="97" height="97" fill="#6fbae1"/><rect x="208.89" y="1223.77" width="97" height="97" fill="#fff"/><rect x="208.89" y="1120.41" width="97" height="97" fill="#222458"/><rect x="208.89" y="1017.05" width="97" height="97" fill="#6fbae1"/><rect x="208.89" y="914.48" width="97" height="97" fill="#6fbae1"/><rect x="208.89" y="811.12" width="97" height="97" fill="#6fbae1"/><rect x="208.89" y="707.76" width="97" height="97" fill="#6fbae1"/><rect x="312.49" y="914.48" width="97" height="97" fill="#00c1f3"/><rect x="312.49" y="811.12" width="97" height="97" fill="#8ed8f8"/><rect x="312.49" y="707.76" width="97" height="97" fill="#8ed8f8"/><rect x="415.39" y="914.48" width="97" height="97" fill="#00c1f3"/><rect x="415.39" y="811.12" width="97" height="97" fill="#00c1f3"/><rect x="415.39" y="707.76" width="97" height="97" fill="#8ed8f8"/><rect x="518.3" y="914.48" width="97" height="97" fill="#222458"/><rect x="518.3" y="811.12" width="97" height="97" fill="#222458"/><rect x="518.3" y="707.76" width="97" height="97" fill="#ccecfc"/><rect x="621.21" y="914.48" width="97" height="97" fill="#95d1ec"/><rect x="621.21" y="811.12" width="97" height="97" fill="#222458"/><rect x="621.21" y="707.76" width="97" height="97" fill="#222458"/><rect x="724.11" y="914.48" width="97" height="97" fill="#00c1f3"/><rect x="724.11" y="811.12" width="97" height="97" fill="#8ed8f8"/><rect x="724.11" y="707.76" width="97" height="97" fill="#222458"/><rect x="827.02" y="914.48" width="97" height="97" fill="#00c1f3"/><rect x="827.02" y="811.12" width="97" height="97" fill="#8ed8f8"/><rect x="827.02" y="707.76" width="97" height="97" fill="#ccecfc"/><rect x="929.92" y="914.48" width="97" height="97" fill="#95d1ec"/><rect x="929.92" y="811.12" width="97" height="97" fill="#8ed8f8" opacity="0.6" style="isolation:isolate"/><rect x="929.92" y="707.76" width="97" height="97" fill="#8ed8f8"/><rect x="1033.63" y="914.48" width="97" height="97" fill="#00c1f3"/><rect x="312.49" y="1016.25" width="97" height="97" fill="#6fbae1"/><rect x="415.39" y="1016.25" width="97" height="97" fill="#6fbae1"/><rect x="518.3" y="1016.25" width="97" height="97" fill="#6fbae1"/><rect x="621.21" y="1016.25" width="97" height="97" fill="url(#a)"/><rect x="724.11" y="1016.25" width="97" height="97" fill="#6fbae1"/><rect x="827.02" y="1016.25" width="97" height="97" fill="#6fbae1"/><rect x="312.49" y="1120.41" width="97" height="97" fill="#8ed8f8"/><rect x="415.39" y="1120.41" width="97" height="97" fill="#6fbae1"/><rect x="518.3" y="1120.41" width="97" height="97" fill="#8ed8f8"/><rect x="621.21" y="1120.41" width="97" height="97" fill="#6fbae1"/><rect x="312.49" y="1223.77" width="97" height="97" fill="#8ed8f8"/><rect x="415.39" y="1223.77" width="97" height="97" fill="#8ed8f8"/><rect x="518.3" y="1223.77" width="97" height="97" fill="#8ed8f8"/><rect x="621.21" y="1223.77" width="97" height="97" fill="#ccecfc"/><rect x="724.11" y="1120.41" width="97" height="97" fill="#ccecfc"/><rect x="827.02" y="1120.41" width="97" height="97" fill="#ccecfc"/><rect x="1033.63" y="811.12" width="97" height="97" fill="#8ed8f8"/><rect x="1033.63" y="707.76" width="97" height="97" fill="#8ed8f8" opacity="0.6" style="isolation:isolate"/><rect x="1136.54" y="914.48" width="97" height="97" fill="#95d1ec" opacity="0.6" style="isolation:isolate"/><rect x="1136.54" y="811.12" width="97" height="97" fill="#00b5f1"/><rect x="1136.54" y="707.76" width="97" height="97" fill="#8ed8f8" opacity="0.6" style="isolation:isolate"/><rect x="1239.44" y="914.48" width="97" height="97" fill="#95d1ec"/><rect x="929.92" y="1017.06" width="97" height="97" fill="#95d1ec"/><rect x="1033.63" y="1017.06" width="97" height="97" fill="#00c1f3"/><rect x="1136.54" y="1017.06" width="97" height="97" fill="#95d1ec"/><rect x="1239.44" y="1017.06" width="97" height="97" fill="#95d1ec"/><rect x="929.92" y="1120.99" width="97" height="97" fill="#95d1ec"/><rect x="1033.63" y="1120.99" width="97" height="97" fill="#00c1f3"/><rect x="1136.54" y="1120.99" width="97" height="97" fill="#95d1ec"/><rect x="1239.44" y="1120.99" width="97" height="97" fill="#95d1ec"/><rect x="724.11" y="1223.54" width="97" height="97" fill="#ccecfc"/><rect x="827.02" y="1223.54" width="97" height="97" fill="#ccecfc"/><rect x="929.92" y="1224.12" width="97" height="97" fill="#95d1ec"/><rect x="1033.63" y="1224.12" width="97" height="97" fill="#00c1f3"/><rect x="1136.54" y="1224.12" width="97" height="97" fill="#95d1ec"/><rect x="1136.54" y="1328.84" width="97" height="97" fill="#95d1ec" opacity="0.4" style="isolation:isolate"/><rect x="929.24" y="1328.84" width="97" height="97" fill="#006288" opacity="0.4" style="isolation:isolate"/><rect x="723.88" y="1328.84" width="97" height="97" fill="#95d1ec" opacity="0.4" style="isolation:isolate"/><rect x="518.95" y="1328.84" width="97" height="97" fill="#006288" opacity="0.4" style="isolation:isolate"/><rect x="1031.34" y="1430.34" width="97" height="97" fill="#6fbae1" opacity="0.4" style="isolation:isolate"/><rect x="1031.34" y="1533.11" width="97" height="97" fill="#95d1ec" opacity="0.4" style="isolation:isolate"/><rect x="1239.44" y="1224.12" width="97" height="97" fill="#95d1ec"/><rect x="1239.44" y="811.12" width="97" height="97" fill="#8ed8f8"/><rect x="1239.44" y="707.76" width="97" height="97" fill="#8ed8f8" opacity="0.6" style="isolation:isolate"/><rect x="1343.15" y="811.12" width="97" height="97" fill="#00b5f1"/><rect x="1343.15" y="707.76" width="97" height="97" fill="#8ed8f8" opacity="0.6" style="isolation:isolate"/><rect x="1446.73" y="811.12" width="97" height="97" fill="#8ed8f8" opacity="0.6" style="isolation:isolate"/><rect x="1446.73" y="707.76" width="97" height="97" fill="#8ed8f8" opacity="0.6" style="isolation:isolate"/><rect x="1651.07" y="709.35" width="97" height="97" fill="#6fbae1"/><rect x="1445.35" y="916.63" width="97" height="97" fill="#00aa4f" opacity="0.7" style="isolation:isolate"/><g style="isolation:isolate"><g style="isolation:isolate"><path d="M628.68,1024.85h4l8.25,21.42h-4l-2-5.67h-8.55l-2,5.67h-3.87Zm-1.32,12.9h6.54l-3.21-9.21h-.09Z" fill="#fff"/><path d="M653,1036a3.28,3.28,0,0,0-3.54-2.91c-1.77,0-4.26.93-4.26,5.64,0,2.58,1.14,5.31,4.11,5.31,2,0,3.36-1.32,3.69-3.54h3.42c-.63,4-3.12,6.24-7.11,6.24-4.86,0-7.53-3.45-7.53-8s2.55-8.34,7.65-8.34c3.6,0,6.66,1.8,7,5.61Z" fill="#fff"/><path d="M658.83,1036.49h8.73v3.24h-8.73Z" fill="#fff"/><path d="M684.54,1046.27H670.2a9.42,9.42,0,0,1,4.62-8c2.73-2,6.27-3.63,6.33-6.9,0-1.5-.6-3.72-3.54-3.72-2.7,0-3.51,2.31-3.6,5.25h-3.42c0-4.65,2.55-8.1,7.23-8.1,5.13,0,6.75,3.75,6.75,6.45,0,3.33-2.28,5.4-4.68,7.08s-5,3-5.58,4.83h10.23Z" fill="#fff"/><path d="M701.22,1046.27H686.88a9.42,9.42,0,0,1,4.62-8c2.73-2,6.27-3.63,6.33-6.9,0-1.5-.6-3.72-3.54-3.72-2.7,0-3.51,2.31-3.6,5.25h-3.42c0-4.65,2.55-8.1,7.23-8.1,5.13,0,6.75,3.75,6.75,6.45,0,3.33-2.28,5.4-4.68,7.08s-5,3-5.58,4.83h10.23Z" fill="#fff"/><path d="M706.08,1025.27h10.86v3.06h-8.31l-1.08,5.34.06.06a5.39,5.39,0,0,1,3.87-1.59c4.17,0,6.57,3,6.57,7,0,3.36-2.1,7.53-7.26,7.53-4,0-7.2-2.19-7.35-6.39h3.42a3.61,3.61,0,0,0,3.87,3.54c2.91,0,3.9-2.07,3.9-4.62,0-2.31-1.23-4.38-4-4.38-1.44,0-2.85.45-3.39,1.92h-3.42Z" fill="#fff"/></g></g><g style="isolation:isolate"><g style="isolation:isolate"><path d="M837.89,1129.57h10.23c4.68,0,7.08,2.16,7.08,5.79,0,4.11-2.85,5.16-3.54,5.4v.06c1.29.18,3.18,1.14,3.18,4.53,0,2.49.36,4.77,1.17,5.64h-4a6,6,0,0,1-.57-3.15c0-3.93-.81-5.67-4.26-5.67h-5.52V1151h-3.75Zm3.75,9.75h6.15c2.37,0,3.66-1.17,3.66-3.42,0-2.73-1.77-3.27-3.72-3.27h-6.09Z" fill="#00a4dc"/><path d="M871.52,1147.54c0,.84.18,1.17.81,1.17a4.73,4.73,0,0,0,.84-.06V1151a8.59,8.59,0,0,1-2.16.39c-1.38,0-2.37-.48-2.64-1.89a8,8,0,0,1-5.37,1.89c-2.79,0-5.31-1.5-5.31-4.53,0-3.87,3.09-4.5,6-4.83,2.46-.45,4.65-.18,4.65-2.19,0-1.77-1.83-2.1-3.21-2.1-1.92,0-3.27.78-3.42,2.46h-3.42c.24-4,3.63-5.16,7-5.16,3,0,6.21,1.23,6.21,4.5Zm-3.42-4.32c-1.05.69-2.7.66-4.2.93s-2.79.78-2.79,2.58c0,1.53,1.95,2,3.15,2,1.5,0,3.84-.78,3.84-2.94Z" fill="#00a4dc"/><path d="M874.88,1141.21h8.73v3.24h-8.73Z" fill="#00a4dc"/><path d="M900.59,1151H886.25a9.42,9.42,0,0,1,4.62-8c2.73-2,6.27-3.63,6.33-6.9,0-1.5-.6-3.72-3.54-3.72-2.7,0-3.51,2.31-3.6,5.25h-3.42c0-4.65,2.55-8.1,7.23-8.1,5.13,0,6.75,3.75,6.75,6.45,0,3.33-2.28,5.4-4.68,7.08s-5,3-5.58,4.83h10.23Z" fill="#00a4dc"/><path d="M917.27,1151H902.93a9.42,9.42,0,0,1,4.62-8c2.73-2,6.27-3.63,6.33-6.9,0-1.5-.6-3.72-3.54-3.72-2.7,0-3.51,2.31-3.6,5.25h-3.42c0-4.65,2.55-8.1,7.23-8.1,5.13,0,6.75,3.75,6.75,6.45,0,3.33-2.28,5.4-4.68,7.08s-5,3-5.58,4.83h10.23Z" fill="#00a4dc"/></g></g><g style="isolation:isolate"><g style="isolation:isolate"><path d="M1149.11,1129.57h10.23c4.68,0,7.08,2.16,7.08,5.79,0,4.11-2.85,5.16-3.54,5.4v.06c1.29.18,3.18,1.14,3.18,4.53,0,2.49.36,4.77,1.17,5.64h-4a6,6,0,0,1-.57-3.15c0-3.93-.81-5.67-4.26-5.67h-5.52V1151h-3.75Zm3.75,9.75H1159c2.37,0,3.66-1.17,3.66-3.42,0-2.73-1.77-3.27-3.72-3.27h-6.09Z" fill="#00a4dc"/><path d="M1182.74,1147.54c0,.84.18,1.17.81,1.17a4.73,4.73,0,0,0,.84-.06V1151a8.59,8.59,0,0,1-2.16.39c-1.38,0-2.37-.48-2.64-1.89a8,8,0,0,1-5.37,1.89c-2.79,0-5.31-1.5-5.31-4.53,0-3.87,3.09-4.5,6-4.83,2.46-.45,4.65-.18,4.65-2.19,0-1.77-1.83-2.1-3.21-2.1-1.92,0-3.27.78-3.42,2.46h-3.42c.24-4,3.63-5.16,7-5.16,3,0,6.21,1.23,6.21,4.5Zm-3.42-4.32c-1,.69-2.7.66-4.2.93s-2.79.78-2.79,2.58c0,1.53,2,2,3.15,2,1.5,0,3.84-.78,3.84-2.94Z" fill="#00a4dc"/><path d="M1186.1,1141.21h8.73v3.24h-8.73Z" fill="#00a4dc"/><path d="M1211.81,1151h-14.34a9.42,9.42,0,0,1,4.62-8c2.73-2,6.27-3.63,6.33-6.9,0-1.5-.6-3.72-3.54-3.72-2.7,0-3.51,2.31-3.6,5.25h-3.42c0-4.65,2.55-8.1,7.23-8.1,5.13,0,6.75,3.75,6.75,6.45,0,3.33-2.28,5.4-4.68,7.08s-5,3-5.58,4.83h10.23Z" fill="#00a4dc"/><path d="M1228.49,1151h-14.34a9.42,9.42,0,0,1,4.62-8c2.73-2,6.27-3.63,6.33-6.9,0-1.5-.6-3.72-3.54-3.72-2.7,0-3.51,2.31-3.6,5.25h-3.42c0-4.65,2.55-8.1,7.23-8.1,5.13,0,6.75,3.75,6.75,6.45,0,3.33-2.28,5.4-4.68,7.08s-5,3-5.58,4.83h10.23Z" fill="#00a4dc"/></g></g><g style="isolation:isolate"><g style="isolation:isolate"><path d="M929.35,923.31h17.34v3.23h-6.81v18.18h-3.75V926.54h-6.78Z" fill="#00a4dc"/><path d="M948.7,923.31h3.42v7.94h.06a5.45,5.45,0,0,1,4.65-2.46c3.36,0,5.49,1.8,5.49,5.29v10.64H958.9V935c-.06-2.43-1-3.47-3-3.47a3.78,3.78,0,0,0-3.75,4.08v9.14H948.7Z" fill="#00a4dc"/><path d="M965.59,935h8.73v3.23h-8.73Z" fill="#00a4dc"/><path d="M991.3,944.72H977a9.4,9.4,0,0,1,4.62-7.94c2.73-2,6.27-3.63,6.33-6.9,0-1.5-.6-3.72-3.54-3.72-2.7,0-3.51,2.3-3.6,5.25h-3.42c0-4.66,2.55-8.1,7.23-8.1,5.13,0,6.75,3.75,6.75,6.44,0,3.34-2.28,5.41-4.68,7.09s-5,3-5.58,4.83H991.3Z" fill="#00a4dc"/><path d="M1008,944.72H993.64a9.4,9.4,0,0,1,4.62-7.94c2.73-2,6.27-3.63,6.33-6.9,0-1.5-.6-3.72-3.54-3.72-2.7,0-3.51,2.3-3.6,5.25H994c0-4.66,2.55-8.1,7.23-8.1,5.13,0,6.75,3.75,6.75,6.44,0,3.34-2.28,5.41-4.68,7.09s-5,3-5.58,4.83H1008Z" fill="#00a4dc"/><path d="M1014,939.42a2.93,2.93,0,0,0,3.06,2.87c3.72,0,4.14-4.44,4.35-7.2l-.06-.05a5,5,0,0,1-4.53,2.51c-4,0-6.63-2.79-6.63-7.07,0-4.08,2.64-7.17,7.23-7.17,5.94,0,7.41,4.86,7.41,11,0,5-2,10.85-7.92,10.85a6.09,6.09,0,0,1-6.33-5.72Zm-.39-9c0,2.27,1.17,4.41,3.66,4.41s3.81-2.11,3.81-4.41-1.26-4.29-3.81-4.29S1013.59,928.17,1013.59,930.45Z" fill="#00a4dc"/></g></g><g style="isolation:isolate"><g style="isolation:isolate"><path d="M1033.82,923.31h17.34v3.23h-6.81v18.18h-3.75V926.54h-6.78Z" fill="#ccecfc"/><path d="M1053.17,923.31h3.42v7.94h.06a5.45,5.45,0,0,1,4.65-2.46c3.36,0,5.49,1.8,5.49,5.29v10.64h-3.42V935c-.06-2.43-1-3.47-3-3.47a3.78,3.78,0,0,0-3.75,4.08v9.14h-3.42Z" fill="#ccecfc"/><path d="M1070.06,935h8.73v3.23h-8.73Z" fill="#ccecfc"/><path d="M1095.77,944.72h-14.34a9.4,9.4,0,0,1,4.62-7.94c2.73-2,6.27-3.63,6.33-6.9,0-1.5-.6-3.72-3.54-3.72-2.7,0-3.51,2.3-3.6,5.25h-3.42c0-4.66,2.55-8.1,7.23-8.1,5.13,0,6.75,3.75,6.75,6.44,0,3.34-2.28,5.41-4.68,7.09s-5,3-5.58,4.83h10.23Z" fill="#ccecfc"/><path d="M1103.78,932.42c2.28.09,4.65-.71,4.65-3.29a3,3,0,0,0-3.27-3c-2.37,0-3.54,2.13-3.48,4.29h-3.42c.18-4.08,2.73-7.14,7-7.14,3.27,0,6.63,1.89,6.63,5.61a4.43,4.43,0,0,1-3,4.5v.05c2.37.49,3.81,2.56,3.81,5.25,0,4-3.42,6.42-7.44,6.42-4.86,0-7.29-2.93-7.38-7.31h3.42c-.09,2.55,1.29,4.46,4,4.46,2.28,0,4-1.35,4-3.75,0-3.26-2.79-3.68-5.49-3.57Z" fill="#ccecfc"/><path d="M1129.22,934.22c0,4.78-1.23,10.92-7.26,10.92s-7.26-6.14-7.26-10.92,1.23-10.91,7.26-10.91S1129.22,929.46,1129.22,934.22Zm-3.42,0c0-4.37-.84-8.06-3.84-8.06s-3.84,3.69-3.84,8.06.84,8.07,3.84,8.07S1125.8,938.6,1125.8,934.22Z" fill="#ccecfc"/></g></g><g style="isolation:isolate"><g style="isolation:isolate"><path d="M1136.88,715.45h3.75v12.48c0,2.88.18,6.21,5,6.21s5-3.33,5-6.21V715.45h3.75v13.71c0,5.49-3.5,8.22-8.78,8.22s-8.79-2.73-8.79-8.22Z" fill="#ccecfc"/><path d="M1158,727.09h8.73v3.24H1158Z" fill="#ccecfc"/><path d="M1183.67,736.87h-14.34a9.42,9.42,0,0,1,4.62-8c2.73-2,6.27-3.63,6.33-6.9,0-1.5-.6-3.72-3.54-3.72-2.7,0-3.5,2.31-3.59,5.25h-3.42c0-4.65,2.55-8.1,7.22-8.1,5.13,0,6.75,3.75,6.75,6.45,0,3.33-2.28,5.4-4.68,7.08s-5,3-5.57,4.83h10.22Z" fill="#ccecfc"/><path d="M1191.69,724.57c2.27.09,4.64-.72,4.64-3.3a3,3,0,0,0-3.26-3c-2.37,0-3.54,2.13-3.49,4.29h-3.42c.19-4.08,2.74-7.14,7-7.14,3.27,0,6.63,1.89,6.63,5.61a4.43,4.43,0,0,1-3,4.5v.06c2.37.48,3.81,2.55,3.81,5.25,0,4-3.42,6.42-7.44,6.42-4.86,0-7.29-2.94-7.37-7.32h3.42c-.09,2.55,1.29,4.47,4,4.47,2.28,0,4-1.35,4-3.75,0-3.27-2.79-3.69-5.48-3.57Z" fill="#ccecfc"/><path d="M1208.36,724.57c2.29.09,4.66-.72,4.66-3.3a3,3,0,0,0-3.28-3c-2.37,0-3.54,2.13-3.47,4.29h-3.42c.18-4.08,2.72-7.14,7-7.14,3.26,0,6.62,1.89,6.62,5.61a4.43,4.43,0,0,1-3,4.5v.06c2.37.48,3.82,2.55,3.82,5.25,0,4-3.42,6.42-7.45,6.42-4.85,0-7.28-2.94-7.37-7.32h3.41c-.09,2.55,1.29,4.47,4,4.47,2.28,0,4-1.35,4-3.75,0-3.27-2.79-3.69-5.5-3.57Z" fill="#ccecfc"/></g></g><g style="isolation:isolate"><g style="isolation:isolate"><path d="M1241.53,715.45h3.75v12.48c0,2.88.18,6.21,5,6.21s5-3.33,5-6.21V715.45h3.75v13.71c0,5.49-3.51,8.22-8.79,8.22s-8.79-2.73-8.79-8.22Z" fill="#ccecfc"/><path d="M1262.62,727.09h8.73v3.24h-8.73Z" fill="#ccecfc"/><path d="M1288.33,736.87H1274a9.42,9.42,0,0,1,4.62-8c2.73-2,6.27-3.63,6.33-6.9,0-1.5-.6-3.72-3.54-3.72-2.7,0-3.51,2.31-3.6,5.25h-3.42c0-4.65,2.55-8.1,7.23-8.1,5.13,0,6.75,3.75,6.75,6.45,0,3.33-2.28,5.4-4.68,7.08s-5,3-5.58,4.83h10.23Z" fill="#ccecfc"/><path d="M1296.34,724.57c2.28.09,4.65-.72,4.65-3.3a3,3,0,0,0-3.27-3c-2.37,0-3.54,2.13-3.48,4.29h-3.42c.18-4.08,2.73-7.14,7-7.14,3.27,0,6.63,1.89,6.63,5.61a4.43,4.43,0,0,1-3,4.5v.06c2.37.48,3.81,2.55,3.81,5.25,0,4-3.42,6.42-7.44,6.42-4.86,0-7.29-2.94-7.38-7.32h3.42c-.09,2.55,1.29,4.47,4,4.47,2.28,0,4-1.35,4-3.75,0-3.27-2.79-3.69-5.49-3.57Z" fill="#ccecfc"/><path d="M1321.84,731.89h-2.7v5h-3.24v-5h-9V728.5l9-12.63h3.24v13.32h2.7Zm-12.3-2.7h6.36V720h-.06Z" fill="#ccecfc"/></g></g><g style="isolation:isolate"><g style="isolation:isolate"><path d="M622.88,715.45h3.75v12.48c0,2.88.18,6.21,5,6.21s5-3.33,5-6.21V715.45h3.75v13.71c0,5.49-3.51,8.22-8.79,8.22s-8.79-2.73-8.79-8.22Z" fill="#ccecfc"/><path d="M644,727.09h8.73v3.24H644Z" fill="#ccecfc"/><path d="M669.68,736.87H655.34a9.42,9.42,0,0,1,4.62-8c2.73-2,6.27-3.63,6.33-6.9,0-1.5-.6-3.72-3.54-3.72-2.7,0-3.51,2.31-3.6,5.25h-3.42c0-4.65,2.55-8.1,7.23-8.1,5.13,0,6.75,3.75,6.75,6.45,0,3.33-2.28,5.4-4.68,7.08s-5,3-5.58,4.83h10.23Z" fill="#ccecfc"/><path d="M686.36,736.87H672a9.42,9.42,0,0,1,4.62-8c2.73-2,6.27-3.63,6.33-6.9,0-1.5-.6-3.72-3.54-3.72-2.7,0-3.51,2.31-3.6,5.25h-3.42c0-4.65,2.55-8.1,7.23-8.1,5.13,0,6.75,3.75,6.75,6.45,0,3.33-2.28,5.4-4.68,7.08s-5,3-5.58,4.83h10.23Z" fill="#ccecfc"/><path d="M688.46,730.69a5,5,0,0,1,3.84-5.13v-.06a4.41,4.41,0,0,1-3-4.32c0-3.57,2.37-5.73,6.54-5.73s6.54,2.16,6.54,5.73a4.41,4.41,0,0,1-3,4.32v.06a5,5,0,0,1,3.84,5.13c0,4.11-3.15,6.6-7.41,6.6S688.46,734.8,688.46,730.69Zm11.4,0c0-2.31-1.71-3.69-4-3.69s-4,1.38-4,3.69a4,4,0,0,0,8,0Zm-7.29-9.33a3.31,3.31,0,0,0,6.6,0,3.3,3.3,0,0,0-6.6,0Z" fill="#ccecfc"/></g></g><g style="isolation:isolate"><g style="isolation:isolate"><path d="M726.41,1231.12H741.2v3.24h-11V1240h9.69V1243h-9.69v9.51h-3.75Z" fill="#00a4dc"/><path d="M743.72,1237h3.21v3H747a5,5,0,0,1,4.53-3.42,8.14,8.14,0,0,1,1.29.09v3.3a12.2,12.2,0,0,0-1.47-.15c-2.34,0-4.2,1.89-4.2,5.31v7.38h-3.42Z" fill="#00a4dc"/><path d="M752.3,1242.76H761V1246H752.3Z" fill="#00a4dc"/><path d="M778,1252.54H763.67a9.42,9.42,0,0,1,4.62-8c2.73-2,6.27-3.63,6.33-6.9,0-1.5-.6-3.72-3.54-3.72-2.7,0-3.51,2.31-3.6,5.25h-3.42c0-4.65,2.55-8.1,7.23-8.1,5.13,0,6.75,3.75,6.75,6.45,0,3.33-2.28,5.4-4.68,7.08s-5,3-5.58,4.83H778Z" fill="#00a4dc"/><path d="M794.69,1252.54H780.35a9.42,9.42,0,0,1,4.62-8c2.73-2,6.27-3.63,6.33-6.9,0-1.5-.6-3.72-3.54-3.72-2.7,0-3.51,2.31-3.6,5.25h-3.42c0-4.65,2.55-8.1,7.23-8.1,5.13,0,6.75,3.75,6.75,6.45,0,3.33-2.28,5.4-4.68,7.08s-5,3-5.58,4.83h10.23Z" fill="#00a4dc"/><path d="M811.52,1247.56h-2.7v5h-3.24v-5h-9v-3.39l9-12.63h3.24v13.32h2.7Zm-12.3-2.7h6.36v-9.24h-.06Z" fill="#00a4dc"/></g></g><g style="isolation:isolate"><g style="isolation:isolate"><path d="M829.07,1231.12h14.79v3.24h-11V1240h9.69V1243h-9.69v9.51h-3.75Z" fill="#00a4dc"/><path d="M846.38,1237h3.21v3h.06a5,5,0,0,1,4.53-3.42,8.14,8.14,0,0,1,1.29.09v3.3a12.2,12.2,0,0,0-1.47-.15c-2.34,0-4.2,1.89-4.2,5.31v7.38h-3.42Z" fill="#00a4dc"/><path d="M855,1242.76h8.73V1246H855Z" fill="#00a4dc"/><path d="M880.67,1252.54H866.33a9.42,9.42,0,0,1,4.62-8c2.73-2,6.27-3.63,6.33-6.9,0-1.5-.6-3.72-3.54-3.72-2.7,0-3.51,2.31-3.6,5.25h-3.42c0-4.65,2.55-8.1,7.23-8.1,5.13,0,6.75,3.75,6.75,6.45,0,3.33-2.28,5.4-4.68,7.08s-5,3-5.58,4.83h10.23Z" fill="#00a4dc"/><path d="M897.35,1252.54H883a9.42,9.42,0,0,1,4.62-8c2.73-2,6.27-3.63,6.33-6.9,0-1.5-.6-3.72-3.54-3.72-2.7,0-3.51,2.31-3.6,5.25H883.4c0-4.65,2.55-8.1,7.23-8.1,5.13,0,6.75,3.75,6.75,6.45,0,3.33-2.28,5.4-4.68,7.08s-5,3-5.58,4.83h10.23Z" fill="#00a4dc"/><path d="M902.21,1231.54h10.86v3.06h-8.31l-1.08,5.34.06.06a5.39,5.39,0,0,1,3.87-1.59c4.17,0,6.57,3,6.57,7,0,3.36-2.1,7.53-7.26,7.53-4,0-7.2-2.19-7.35-6.39H903a3.61,3.61,0,0,0,3.87,3.54c2.91,0,3.9-2.07,3.9-4.62,0-2.31-1.23-4.38-4-4.38-1.44,0-2.85.45-3.39,1.92H900Z" fill="#00a4dc"/></g></g><g style="isolation:isolate"><g style="isolation:isolate"><path d="M931,1231.12h14.79v3.24h-11V1240h9.69V1243H934.7v9.51H931Z" fill="#006288"/><path d="M948.26,1237h3.21v3h.06a5,5,0,0,1,4.53-3.42,8.14,8.14,0,0,1,1.29.09v3.3a12.2,12.2,0,0,0-1.47-.15c-2.34,0-4.2,1.89-4.2,5.31v7.38h-3.42Z" fill="#006288"/><path d="M956.84,1242.76h8.73V1246h-8.73Z" fill="#006288"/><path d="M982.55,1252.54H968.21a9.42,9.42,0,0,1,4.62-8c2.73-2,6.27-3.63,6.33-6.9,0-1.5-.6-3.72-3.54-3.72-2.7,0-3.51,2.31-3.6,5.25H968.6c0-4.65,2.55-8.1,7.23-8.1,5.13,0,6.75,3.75,6.75,6.45,0,3.33-2.28,5.4-4.68,7.08s-5,3-5.58,4.83h10.23Z" fill="#006288"/><path d="M999.23,1252.54H984.89a9.42,9.42,0,0,1,4.62-8c2.73-2,6.27-3.63,6.33-6.9,0-1.5-.6-3.72-3.54-3.72-2.7,0-3.51,2.31-3.6,5.25h-3.42c0-4.65,2.55-8.1,7.23-8.1,5.13,0,6.75,3.75,6.75,6.45,0,3.33-2.28,5.4-4.68,7.08s-5,3-5.58,4.83h10.23Z" fill="#006288"/><path d="M1012.25,1236.85a2.94,2.94,0,0,0-3.06-2.88c-3.72,0-4.14,4.44-4.35,7.2l.06.06a5.06,5.06,0,0,1,4.53-2.49c4.17,0,6.63,3,6.63,7a6.81,6.81,0,0,1-7,7.17c-6.18,0-7.65-4.86-7.65-11,0-5,2-10.86,7.92-10.86a6.1,6.1,0,0,1,6.33,5.73Zm.39,8.88c0-2.25-1.23-4.29-3.69-4.29s-3.78,2-3.78,4.29,1.29,4.38,3.78,4.38S1012.64,1248,1012.64,1245.73Z" fill="#006288"/></g></g><g style="isolation:isolate"><g style="isolation:isolate"><path d="M1035.83,1231.12h14.79v3.24h-11V1240h9.69V1243h-9.69v9.51h-3.75Z" fill="#fff"/><path d="M1053.14,1237h3.21v3h.06a5,5,0,0,1,4.53-3.42,8.14,8.14,0,0,1,1.29.09v3.3a12.2,12.2,0,0,0-1.47-.15c-2.34,0-4.2,1.89-4.2,5.31v7.38h-3.42Z" fill="#fff"/><path d="M1061.72,1242.76h8.73V1246h-8.73Z" fill="#fff"/><path d="M1087.43,1252.54h-14.34a9.42,9.42,0,0,1,4.62-8c2.73-2,6.27-3.63,6.33-6.9,0-1.5-.6-3.72-3.54-3.72-2.7,0-3.51,2.31-3.6,5.25h-3.42c0-4.65,2.55-8.1,7.23-8.1,5.13,0,6.75,3.75,6.75,6.45,0,3.33-2.28,5.4-4.68,7.08s-5,3-5.58,4.83h10.23Z" fill="#fff"/><path d="M1104.11,1252.54h-14.34a9.42,9.42,0,0,1,4.62-8c2.73-2,6.27-3.63,6.33-6.9,0-1.5-.6-3.72-3.54-3.72-2.7,0-3.51,2.31-3.6,5.25h-3.42c0-4.65,2.55-8.1,7.23-8.1,5.13,0,6.75,3.75,6.75,6.45,0,3.33-2.28,5.4-4.68,7.08s-5,3-5.58,4.83h10.23Z" fill="#fff"/><path d="M1106.33,1231.54h14.37v2.85a29.32,29.32,0,0,0-7.83,18.15h-3.75c.45-6.63,3.78-13.08,8.1-17.94h-10.89Z" fill="#fff"/></g></g><g style="isolation:isolate"><g style="isolation:isolate"><path d="M1145.49,1231.12h14.79v3.24h-11V1240h9.69V1243h-9.69v9.51h-3.75Z" fill="#fff"/><path d="M1162.8,1237H1166v3h.06a5,5,0,0,1,4.53-3.42,8.14,8.14,0,0,1,1.29.09v3.3a12.2,12.2,0,0,0-1.47-.15c-2.34,0-4.2,1.89-4.2,5.31v7.38h-3.42Z" fill="#fff"/><path d="M1171.38,1242.76h8.73V1246h-8.73Z" fill="#fff"/><path d="M1197.09,1252.54h-14.34a9.42,9.42,0,0,1,4.62-8c2.73-2,6.27-3.63,6.33-6.9,0-1.5-.6-3.72-3.54-3.72-2.7,0-3.51,2.31-3.6,5.25h-3.42c0-4.65,2.55-8.1,7.23-8.1,5.13,0,6.75,3.75,6.75,6.45,0,3.33-2.28,5.4-4.68,7.08s-5,3-5.58,4.83h10.23Z" fill="#fff"/><path d="M1213.77,1252.54h-14.34a9.42,9.42,0,0,1,4.62-8c2.73-2,6.27-3.63,6.33-6.9,0-1.5-.6-3.72-3.54-3.72-2.7,0-3.51,2.31-3.6,5.25h-3.42c0-4.65,2.55-8.1,7.23-8.1,5.13,0,6.75,3.75,6.75,6.45,0,3.33-2.28,5.4-4.68,7.08s-5,3-5.58,4.83h10.23Z" fill="#fff"/><path d="M1215.87,1246.36a5,5,0,0,1,3.84-5.13v-.06a4.41,4.41,0,0,1-3-4.32c0-3.57,2.37-5.73,6.54-5.73s6.54,2.16,6.54,5.73a4.41,4.41,0,0,1-3,4.32v.06a5,5,0,0,1,3.84,5.13c0,4.11-3.15,6.6-7.41,6.6S1215.87,1250.47,1215.87,1246.36Zm11.4,0c0-2.31-1.71-3.69-4-3.69s-4,1.38-4,3.69a4,4,0,0,0,8,0ZM1220,1237a3.31,3.31,0,0,0,6.6,0,3.3,3.3,0,0,0-6.6,0Z" fill="#fff"/></g></g><g style="isolation:isolate"><g style="isolation:isolate"><path d="M1044.86,824.77h9.45c6.12,0,7.28,4,7.28,6.63s-1.16,6.6-7.28,6.57h-5.7v8.22h-3.75Zm3.75,10.14h5.49c1.68,0,3.75-.84,3.75-3.54s-1.71-3.54-3.69-3.54h-5.55Z" fill="#00a4dc"/><path d="M1077.38,842.74c0,.84.17,1.17.81,1.17a4.79,4.79,0,0,0,.84-.06v2.37a8.66,8.66,0,0,1-2.17.39c-1.37,0-2.36-.48-2.63-1.89a8,8,0,0,1-5.37,1.89c-2.79,0-5.31-1.5-5.31-4.53,0-3.87,3.09-4.5,6-4.83,2.46-.45,4.65-.18,4.65-2.19,0-1.77-1.83-2.1-3.21-2.1-1.92,0-3.27.78-3.42,2.46h-3.42c.24-4,3.63-5.16,7.05-5.16,3,0,6.21,1.23,6.21,4.5Zm-3.42-4.32c-1.06.69-2.7.66-4.2.93s-2.79.78-2.79,2.58c0,1.53,2,2,3.15,2,1.5,0,3.84-.78,3.84-2.94Z" fill="#00a4dc"/><path d="M1080.74,836.41h8.73v3.24h-8.73Z" fill="#00a4dc"/><path d="M1106.44,846.19h-14.33a9.41,9.41,0,0,1,4.61-8c2.73-2,6.27-3.63,6.33-6.9,0-1.5-.6-3.72-3.54-3.72-2.69,0-3.5,2.31-3.59,5.25h-3.42c0-4.65,2.55-8.1,7.22-8.1,5.13,0,6.75,3.75,6.75,6.45,0,3.33-2.28,5.4-4.68,7.08s-5,3-5.57,4.83h10.22Z" fill="#00a4dc"/><path d="M1114.46,833.89c2.28.09,4.65-.72,4.65-3.3a3,3,0,0,0-3.27-3c-2.37,0-3.54,2.13-3.48,4.29h-3.42c.18-4.08,2.73-7.14,7-7.14,3.26,0,6.62,1.89,6.62,5.61a4.43,4.43,0,0,1-3,4.5v.06c2.38.48,3.81,2.55,3.81,5.25,0,4-3.41,6.42-7.43,6.42-4.86,0-7.29-2.94-7.38-7.32H1112c-.09,2.55,1.29,4.47,4,4.47,2.27,0,4-1.35,4-3.75,0-3.27-2.8-3.69-5.49-3.57Z" fill="#00a4dc"/></g></g></svg>