<svg xmlns="http://www.w3.org/2000/svg" viewBox="0 0 15581.54 2600.18"><line x1="2" y1="2.93" x2="2" y2="2598.5" fill="none" stroke="#44c7f4" stroke-miterlimit="10" stroke-width="4"/><line x1="521.23" y1="2.93" x2="521.23" y2="2598.5" fill="none" stroke="#44c7f4" stroke-miterlimit="10" stroke-width="4"/><line x1="1040.47" y1="2.93" x2="1040.47" y2="2598.5" fill="none" stroke="#44c7f4" stroke-miterlimit="10" stroke-width="4"/><line x1="1559.71" y1="2.93" x2="1559.71" y2="2598.5" fill="none" stroke="#44c7f4" stroke-miterlimit="10" stroke-width="4"/><line x1="2078.94" y1="2.93" x2="2078.94" y2="2598.5" fill="none" stroke="#44c7f4" stroke-miterlimit="10" stroke-width="4"/><line x1="2598.18" y1="2.93" x2="2598.18" y2="2598.5" fill="none" stroke="#44c7f4" stroke-miterlimit="10" stroke-width="4"/><line x1="3117.59" y1="2.93" x2="3117.59" y2="2598.5" fill="none" stroke="#44c7f4" stroke-miterlimit="10" stroke-width="4"/><line x1="3636.83" y1="2.93" x2="3636.83" y2="2598.5" fill="none" stroke="#44c7f4" stroke-miterlimit="10" stroke-width="4"/><line x1="4156.06" y1="2.93" x2="4156.06" y2="2598.5" fill="none" stroke="#44c7f4" stroke-miterlimit="10" stroke-width="4"/><line x1="4675.3" y1="2.93" x2="4675.3" y2="2598.5" fill="none" stroke="#44c7f4" stroke-miterlimit="10" stroke-width="4"/><line x1="5194.54" y1="2.93" x2="5194.54" y2="2598.5" fill="none" stroke="#44c7f4" stroke-miterlimit="10" stroke-width="4"/><line x1="5713.59" y1="2.93" x2="5713.59" y2="2598.5" fill="none" stroke="#44c7f4" stroke-miterlimit="10" stroke-width="4"/><line x1="6232.83" y1="2.93" x2="6232.83" y2="2598.5" fill="none" stroke="#44c7f4" stroke-miterlimit="10" stroke-width="4"/><line x1="6752.06" y1="2.93" x2="6752.06" y2="2598.5" fill="none" stroke="#44c7f4" stroke-miterlimit="10" stroke-width="4"/><line x1="7271.3" y1="2.93" x2="7271.3" y2="2598.5" fill="none" stroke="#44c7f4" stroke-miterlimit="10" stroke-width="4"/><line x1="7790.54" y1="2.93" x2="7790.54" y2="2598.5" fill="none" stroke="#44c7f4" stroke-miterlimit="10" stroke-width="4"/><line x1="7790.07" y1="2" x2="2.5" y2="2" fill="none" stroke="#44c7f4" stroke-miterlimit="10" stroke-width="4"/><line x1="7790.07" y1="521.24" x2="2.5" y2="521.24" fill="none" stroke="#44c7f4" stroke-miterlimit="10" stroke-width="4"/><line x1="7790.07" y1="1040.47" x2="2.5" y2="1040.47" fill="none" stroke="#44c7f4" stroke-miterlimit="10" stroke-width="4"/><line x1="7790.07" y1="1559.71" x2="2.5" y2="1559.71" fill="none" stroke="#44c7f4" stroke-miterlimit="10" stroke-width="4"/><line x1="7790.07" y1="2078.94" x2="2.5" y2="2078.94" fill="none" stroke="#44c7f4" stroke-miterlimit="10" stroke-width="4"/><line x1="7790.07" y1="2598.18" x2="2.5" y2="2598.18" fill="none" stroke="#44c7f4" stroke-miterlimit="10" stroke-width="4"/><line x1="7791" y1="2.93" x2="7791" y2="2598.5" fill="none" stroke="#44c7f4" stroke-miterlimit="10" stroke-width="4"/><line x1="8310.23" y1="2.93" x2="8310.23" y2="2598.5" fill="none" stroke="#44c7f4" stroke-miterlimit="10" stroke-width="4"/><line x1="8829.47" y1="2.93" x2="8829.47" y2="2598.5" fill="none" stroke="#44c7f4" stroke-miterlimit="10" stroke-width="4"/><line x1="9348.71" y1="2.93" x2="9348.71" y2="2598.5" fill="none" stroke="#44c7f4" stroke-miterlimit="10" stroke-width="4"/><line x1="9867.94" y1="2.93" x2="9867.94" y2="2598.5" fill="none" stroke="#44c7f4" stroke-miterlimit="10" stroke-width="4"/><line x1="10387.18" y1="2.93" x2="10387.18" y2="2598.5" fill="none" stroke="#44c7f4" stroke-miterlimit="10" stroke-width="4"/><line x1="10906.59" y1="2.93" x2="10906.59" y2="2598.5" fill="none" stroke="#44c7f4" stroke-miterlimit="10" stroke-width="4"/><line x1="11425.83" y1="2.93" x2="11425.83" y2="2598.5" fill="none" stroke="#44c7f4" stroke-miterlimit="10" stroke-width="4"/><line x1="11945.06" y1="2.93" x2="11945.06" y2="2598.5" fill="none" stroke="#44c7f4" stroke-miterlimit="10" stroke-width="4"/><line x1="12464.3" y1="2.93" x2="12464.3" y2="2598.5" fill="none" stroke="#44c7f4" stroke-miterlimit="10" stroke-width="4"/><line x1="12983.54" y1="2.93" x2="12983.54" y2="2598.5" fill="none" stroke="#44c7f4" stroke-miterlimit="10" stroke-width="4"/><line x1="13502.59" y1="2.93" x2="13502.59" y2="2598.5" fill="none" stroke="#44c7f4" stroke-miterlimit="10" stroke-width="4"/><line x1="14021.83" y1="2.93" x2="14021.83" y2="2598.5" fill="none" stroke="#44c7f4" stroke-miterlimit="10" stroke-width="4"/><line x1="14541.06" y1="2.93" x2="14541.06" y2="2598.5" fill="none" stroke="#44c7f4" stroke-miterlimit="10" stroke-width="4"/><line x1="15060.3" y1="2.93" x2="15060.3" y2="2598.5" fill="none" stroke="#44c7f4" stroke-miterlimit="10" stroke-width="4"/><line x1="15579.54" y1="2.93" x2="15579.54" y2="2598.5" fill="none" stroke="#44c7f4" stroke-miterlimit="10" stroke-width="4"/><line x1="15579.07" y1="2" x2="7791.5" y2="2" fill="none" stroke="#44c7f4" stroke-miterlimit="10" stroke-width="4"/><line x1="15579.07" y1="521.24" x2="7791.5" y2="521.24" fill="none" stroke="#44c7f4" stroke-miterlimit="10" stroke-width="4"/><line x1="15579.07" y1="1040.47" x2="7791.5" y2="1040.47" fill="none" stroke="#44c7f4" stroke-miterlimit="10" stroke-width="4"/><line x1="15579.07" y1="1559.71" x2="7791.5" y2="1559.71" fill="none" stroke="#44c7f4" stroke-miterlimit="10" stroke-width="4"/><line x1="15579.07" y1="2078.94" x2="7791.5" y2="2078.94" fill="none" stroke="#44c7f4" stroke-miterlimit="10" stroke-width="4"/><line x1="15579.07" y1="2598.18" x2="7791.5" y2="2598.18" fill="none" stroke="#44c7f4" stroke-miterlimit="10" stroke-width="4"/></svg>