<svg xmlns="http://www.w3.org/2000/svg" viewBox="0 0 587.44 178.48"><rect x="1.5" y="1.5" width="116.92" height="175.48" fill="none" stroke="#232358" stroke-miterlimit="10" stroke-width="3"/><rect x="118.28" y="1.5" width="116.92" height="175.48" fill="none" stroke="#232358" stroke-miterlimit="10" stroke-width="3"/><rect x="235.19" y="1.5" width="116.92" height="175.48" fill="none" stroke="#232358" stroke-miterlimit="10" stroke-width="3"/><rect x="352.11" y="1.5" width="116.92" height="175.48" fill="none" stroke="#232358" stroke-miterlimit="10" stroke-width="3"/><rect x="469.02" y="1.5" width="116.92" height="175.48" fill="none" stroke="#232358" stroke-miterlimit="10" stroke-width="3"/><circle cx="59.96" cy="53.45" r="16.78" fill="#231f20"/><rect x="35.31" y="101.72" width="17.18" height="17.18" fill="#231f20"/><rect x="67.43" y="101.72" width="17.18" height="17.18" fill="#231f20"/><rect x="51.35" y="134.22" width="17.23" height="17.23" fill="#231f20"/><circle cx="176.73" cy="53.45" r="26.42" fill="#b2b4b7"/><rect x="184.9" y="134.22" width="16.48" height="17.23" fill="#b2b4b7"/><rect x="152.08" y="134.22" width="16.47" height="17.23" fill="#b2b4b7"/><circle cx="176.73" cy="53.45" r="8.39" fill="#231f20"/><rect x="152.08" y="101.72" width="17.18" height="17.18" fill="#231f20"/><rect x="184.21" y="101.72" width="17.18" height="17.18" fill="#231f20"/><rect x="168.12" y="134.23" width="17.23" height="17.23" fill="#231f20"/><rect x="267.88" y="85.48" width="17.18" height="17.18" fill="#b2b4b7"/><rect x="300.01" y="36.67" width="17.18" height="17.18" fill="#b2b4b7"/><rect x="267.88" y="134.28" width="17.18" height="17.18" fill="#231f20"/><rect x="300.01" y="134.28" width="17.18" height="17.18" fill="#231f20"/><rect x="300.01" y="85.48" width="17.18" height="17.18" fill="#231f20"/><rect x="267.88" y="36.67" width="17.18" height="17.18" fill="#231f20"/><rect x="383.68" y="101.72" width="17.18" height="17.18" fill="#b2b4b7"/><rect x="415.81" y="101.72" width="17.18" height="17.18" fill="#b2b4b7"/><circle cx="408.33" cy="53.45" r="16.78" fill="#231f20"/><rect x="399.72" y="134.22" width="17.23" height="17.23" fill="#231f20"/><rect x="534.96" y="85.48" width="17.18" height="17.18" fill="#b2b4b7"/><rect x="502.83" y="134.72" width="17.18" height="17.18" fill="#231f20"/><rect x="534.96" y="134.28" width="17.18" height="17.18" fill="#231f20"/><rect x="502.83" y="85.91" width="17.18" height="17.18" fill="#231f20"/><rect x="502.83" y="37.1" width="17.18" height="17.18" fill="#231f20"/><rect x="534.96" y="37.1" width="17.18" height="17.18" fill="#231f20"/></svg>