<svg xmlns="http://www.w3.org/2000/svg" viewBox="0 0 1806.58 1682.64"><rect x="132.01" y="1560.37" width="122.27" height="122.27" fill="#006288"/><rect x="132.01" y="1429.08" width="122.27" height="122.27" fill="#222458"/><rect y="1429.08" width="122.27" height="122.27" fill="#222458"/><rect x="132.01" y="1298.8" width="122.27" height="122.27" fill="#222458"/><rect x="132.01" y="1168.51" width="122.27" height="122.27" fill="#ccecfc"/><rect x="263.3" y="1429.08" width="122.27" height="122.27" fill="#fff"/><rect x="263.3" y="1298.8" width="122.27" height="122.27" fill="#6fbae1"/><rect x="263.3" y="1168.51" width="122.27" height="122.27" fill="#ccecfc"/><rect x="392.58" y="1167.51" width="122.27" height="122.27" fill="#ccecfc"/><rect x="521.87" y="1167.51" width="122.27" height="122.27" fill="#ccecfc"/><rect x="651.15" y="1167.51" width="122.27" height="122.27" fill="#ccecfc"/><rect x="780.44" y="1167.51" width="122.27" height="122.27" fill="#ccecfc"/><rect x="909.72" y="1167.51" width="122.27" height="122.27" fill="#ccecfc"/><rect x="1168.33" y="1167.51" width="122.27" height="122.27" fill="#ccecfc"/><rect x="392.58" y="1298.8" width="122.27" height="122.27" fill="#6fbae1"/><rect x="651.15" y="1298.8" width="122.27" height="122.27" fill="#6fbae1"/><rect x="392.58" y="1429.08" width="122.27" height="122.27" fill="#8ed8f8"/><rect x="521.87" y="1429.08" width="122.27" height="122.27" fill="#8ed8f8"/><rect x="651.15" y="1429.08" width="122.27" height="122.27" fill="#8ed8f8"/><rect x="780.44" y="1429.08" width="122.27" height="122.27" fill="#fff"/><rect x="909.72" y="1298.8" width="122.27" height="122.27" fill="#6fbae1"/><g style="isolation:isolate"><g style="isolation:isolate"><path d="M155.38,1212.18h5v24.24H174.9v4.32H155.38Z" fill="#808184"/><path d="M177.82,1212.18h4.56v4.32h-4.56Zm0,7.88h4.56v20.68h-4.56Z" fill="#808184"/><path d="M186.9,1227.7h11.64V1232H186.9Z" fill="#808184"/><path d="M232.5,1234.1h-3.6v6.64h-4.32v-6.64h-12v-4.52l12-16.84h4.32v17.76h3.6Zm-16.4-3.6h8.48v-12.32h-.08Z" fill="#808184"/></g></g><g style="isolation:isolate"><g style="isolation:isolate"><path d="M284.38,1212.18h5v24.24h14.51v4.32H284.38Z" fill="#808184"/><path d="M306.82,1212.18h4.56v4.32h-4.56Zm0,7.88h4.56v20.68h-4.56Z" fill="#808184"/><path d="M315.9,1227.7h11.64V1232H315.9Z" fill="#808184"/><path d="M345.54,1212.74H360v4.08H348.94l-1.44,7.12.08.08a7.19,7.19,0,0,1,5.16-2.12c5.56,0,8.75,4,8.75,9.36,0,4.48-2.79,10-9.67,10-5.4,0-9.6-2.92-9.8-8.52h4.56a4.81,4.81,0,0,0,5.16,4.72c3.88,0,5.2-2.76,5.2-6.16,0-3.08-1.64-5.84-5.32-5.84-1.92,0-3.8.6-4.52,2.56h-4.56Z" fill="#808184"/></g></g><g style="isolation:isolate"><g style="isolation:isolate"><path d="M414.87,1212.18h5v24.24h14.52v4.32H414.87Z" fill="#808184"/><path d="M437.31,1212.18h4.56v4.32h-4.56Zm0,7.88h4.56v20.68h-4.56Z" fill="#808184"/><path d="M446.39,1227.7H458V1232H446.39Z" fill="#808184"/><path d="M486.91,1219.82a3.92,3.92,0,0,0-4.08-3.84c-5,0-5.52,5.92-5.8,9.6l.08.08a6.74,6.74,0,0,1,6-3.32c5.56,0,8.84,4,8.84,9.4s-3.72,9.56-9.32,9.56c-8.24,0-10.2-6.48-10.2-14.64,0-6.68,2.64-14.48,10.56-14.48a8.13,8.13,0,0,1,8.44,7.64Zm.52,11.84c0-3-1.64-5.72-4.92-5.72s-5,2.64-5,5.72,1.72,5.84,5,5.84S487.43,1234.66,487.43,1231.66Z" fill="#808184"/></g></g><g style="isolation:isolate"><g style="isolation:isolate"><path d="M278.26,1339.51h5v11.36h13v-11.36h5v28.56h-5v-12.88h-13v12.88h-5Z" fill="#58595b"/><path d="M310.18,1358.91c0,3.24,1.76,6.12,5.56,6.12a4.79,4.79,0,0,0,5-3.44h4.31c-1,4.52-4.83,7-9.35,7-6.48,0-10.12-4.52-10.12-10.88,0-5.88,3.84-10.92,10-10.92,6.52,0,10.51,5.88,9.75,12.08Zm10.64-3c-.16-2.88-2.12-5.48-5.2-5.48a5.4,5.4,0,0,0-5.44,5.48Z" fill="#58595b"/><path d="M328.42,1355h11.64v4.32H328.42Z" fill="#58595b"/><path d="M374,1361.43h-3.6v6.64H366.1v-6.64h-12v-4.52l12-16.84h4.31v17.76H374Zm-16.39-3.6h8.48v-12.32H366Z" fill="#58595b"/></g></g><g style="isolation:isolate"><g style="isolation:isolate"><path d="M409.42,1339.51h5v11.36h13v-11.36h5v28.56h-5v-12.88h-13v12.88h-5Z" fill="#58595b"/><path d="M441.34,1358.91c0,3.24,1.76,6.12,5.56,6.12a4.79,4.79,0,0,0,5-3.44h4.31c-1,4.52-4.83,7-9.35,7-6.48,0-10.12-4.52-10.12-10.88,0-5.88,3.84-10.92,10-10.92,6.52,0,10.51,5.88,9.75,12.08Zm10.64-3c-.16-2.88-2.12-5.48-5.2-5.48a5.4,5.4,0,0,0-5.44,5.48Z" fill="#58595b"/><path d="M459.58,1355h11.64v4.32H459.58Z" fill="#58595b"/><path d="M489.22,1340.07h14.47v4.08H492.62l-1.44,7.12.08.08a7.19,7.19,0,0,1,5.16-2.12c5.55,0,8.75,4,8.75,9.36,0,4.48-2.8,10-9.67,10-5.4,0-9.6-2.92-9.8-8.52h4.56a4.81,4.81,0,0,0,5.16,4.72c3.88,0,5.2-2.76,5.2-6.16,0-3.08-1.64-5.84-5.32-5.84-1.92,0-3.8.6-4.52,2.56h-4.56Z" fill="#58595b"/></g></g><g style="isolation:isolate"><g style="isolation:isolate"><path d="M923.42,1339.51h5v11.36h13v-11.36h5v28.56h-5v-12.88h-13v12.88h-5Z" fill="#58595b"/><path d="M955.34,1358.91c0,3.24,1.76,6.12,5.56,6.12a4.79,4.79,0,0,0,5-3.44h4.32c-1,4.52-4.84,7-9.36,7-6.48,0-10.12-4.52-10.12-10.88,0-5.88,3.84-10.92,10-10.92,6.52,0,10.52,5.88,9.75,12.08Zm10.64-3c-.16-2.88-2.12-5.48-5.2-5.48a5.4,5.4,0,0,0-5.44,5.48Z" fill="#58595b"/><path d="M973.58,1355h11.64v4.32H973.58Z" fill="#58595b"/><path d="M1004.74,1361a3.92,3.92,0,0,0,4.08,3.84c5,0,5.52-5.92,5.8-9.6l-.08-.08a6.72,6.72,0,0,1-6,3.36c-5.28,0-8.84-3.72-8.84-9.44,0-5.44,3.52-9.56,9.64-9.56,7.92,0,9.87,6.48,9.87,14.64,0,6.68-2.64,14.48-10.55,14.48a8.13,8.13,0,0,1-8.44-7.64Zm-.52-12c0,3,1.56,5.88,4.88,5.88s5.08-2.8,5.08-5.88-1.68-5.72-5.08-5.72S1004.22,1346,1004.22,1349Z" fill="#58595b"/></g></g><g style="isolation:isolate"><g style="isolation:isolate"><path d="M545.36,1212.18h5v24.24h14.52v4.32H545.36Z" fill="#808184"/><path d="M567.8,1212.18h4.56v4.32H567.8Zm0,7.88h4.56v20.68H567.8Z" fill="#808184"/><path d="M576.88,1227.7h11.64V1232H576.88Z" fill="#808184"/><path d="M603,1212.74h19.16v3.8c-5.84,6.6-9.72,14.08-10.44,24.2h-5c.6-8.84,5-17.44,10.8-23.92H603Z" fill="#808184"/></g></g><g style="isolation:isolate"><g style="isolation:isolate"><path d="M675.86,1212.18h5v24.24h14.51v4.32H675.86Z" fill="#808184"/><path d="M698.3,1212.18h4.56v4.32H698.3Zm0,7.88h4.56v20.68H698.3Z" fill="#808184"/><path d="M707.38,1227.7H719V1232H707.38Z" fill="#808184"/><path d="M733.34,1232.5a6.67,6.67,0,0,1,5.12-6.84v-.08a5.87,5.87,0,0,1-4-5.76c0-4.76,3.16-7.64,8.72-7.64s8.71,2.88,8.71,7.64a5.88,5.88,0,0,1-3.95,5.76v.08a6.67,6.67,0,0,1,5.11,6.84c0,5.48-4.19,8.8-9.87,8.8S733.34,1238,733.34,1232.5Zm15.2,0c0-3.08-2.28-4.92-5.32-4.92s-5.32,1.84-5.32,4.92a5.32,5.32,0,0,0,10.64,0Zm-9.72-12.44c0,2.64,1.88,4.12,4.4,4.12s4.4-1.48,4.4-4.12a4.4,4.4,0,0,0-8.8,0Z" fill="#808184"/></g></g><g style="isolation:isolate"><g style="isolation:isolate"><path d="M806.35,1212.18h5v24.24h14.52v4.32H806.35Z" fill="#808184"/><path d="M828.79,1212.18h4.56v4.32h-4.56Zm0,7.88h4.56v20.68h-4.56Z" fill="#808184"/><path d="M837.87,1227.7h11.64V1232H837.87Z" fill="#808184"/><path d="M869,1233.66a3.92,3.92,0,0,0,4.08,3.84c5,0,5.52-5.92,5.8-9.6l-.08-.08a6.72,6.72,0,0,1-6,3.36c-5.28,0-8.84-3.72-8.84-9.44,0-5.44,3.52-9.56,9.64-9.56,7.92,0,9.88,6.48,9.88,14.64,0,6.68-2.64,14.48-10.56,14.48a8.13,8.13,0,0,1-8.44-7.64Zm-.52-12c0,3,1.56,5.88,4.88,5.88s5.08-2.8,5.08-5.88-1.68-5.72-5.08-5.72S868.51,1218.66,868.51,1221.7Z" fill="#808184"/></g></g><g style="isolation:isolate"><g style="isolation:isolate"><path d="M923.85,1212.18h5v24.24h14.52v4.32H923.85Z" fill="#808184"/><path d="M946.28,1212.18h4.56v4.32h-4.56Zm0,7.88h4.56v20.68h-4.56Z" fill="#808184"/><path d="M955.36,1227.7H967V1232H955.36Z" fill="#808184"/><path d="M982.2,1217.38c3.84,0,7.48-1.28,8.16-4.64h3.72v28h-5V1221H982.2Z" fill="#808184"/><path d="M1023.12,1226.74c0,6.36-1.64,14.56-9.68,14.56s-9.68-8.2-9.68-14.56,1.64-14.56,9.68-14.56S1023.12,1220.38,1023.12,1226.74Zm-4.56,0c0-5.84-1.12-10.76-5.12-10.76s-5.12,4.92-5.12,10.76,1.12,10.76,5.12,10.76S1018.56,1232.58,1018.56,1226.74Z" fill="#808184"/></g></g><g style="isolation:isolate"><g style="isolation:isolate"><path d="M1182.17,1212.18h5v24.24h14.52v4.32h-19.52Z" fill="#808184"/><path d="M1204.61,1212.18h4.56v4.32h-4.56Zm0,7.88h4.56v20.68h-4.56Z" fill="#808184"/><path d="M1213.69,1227.7h11.64V1232h-11.64Z" fill="#808184"/><path d="M1240.53,1217.38c3.84,0,7.48-1.28,8.16-4.64h3.72v28h-5V1221h-6.88Z" fill="#808184"/><path d="M1281.33,1240.74h-19.12c0-4.6,2.4-8.08,6.16-10.6s8.36-4.84,8.44-9.2c0-2-.8-5-4.72-5-3.6,0-4.68,3.08-4.8,7h-4.56c0-6.2,3.4-10.8,9.64-10.8,6.84,0,9,5,9,8.6,0,4.44-3,7.2-6.24,9.44s-6.64,4-7.44,6.44h13.64Z" fill="#808184"/></g></g><rect x="1297.46" y="1035.27" width="122.27" height="122.27" fill="#fff"/><rect x="132.91" y="1035.27" width="122.27" height="122.27" fill="#fff" opacity="0.7" style="isolation:isolate"/><rect x="262.19" y="1035.27" width="122.27" height="122.27" fill="#6fbae1"/><rect x="391.48" y="1035.27" width="122.27" height="122.27" fill="#6fbae1"/><rect x="521.76" y="1035.27" width="122.27" height="122.27" fill="#6fbae1"/><rect x="780.33" y="1035.27" width="122.27" height="122.27" fill="#222458"/><rect x="910.62" y="1035.27" width="122.27" height="122.27" fill="#fff"/><rect x="1168.18" y="905.99" width="122.27" height="122.27" fill="#fff"/><rect x="1297.46" y="905.99" width="122.27" height="122.27" fill="#fff"/><rect x="1555.03" y="905.99" width="122.27" height="122.27" fill="#ccecfc"/><rect x="132.91" y="905.99" width="122.27" height="122.27" fill="#fff"/><rect x="651.05" y="905.99" width="122.27" height="122.27" fill="#fff"/><rect x="780.33" y="905.99" width="122.27" height="122.27" fill="#222458"/><rect x="910.62" y="905.99" width="122.27" height="122.27" fill="#222458"/><rect x="391.48" y="776.7" width="122.27" height="122.27" fill="#ccecfc"/><rect x="651.05" y="776.7" width="122.27" height="122.27" fill="#ccecfc"/><rect x="910.62" y="776.7" width="122.27" height="122.27" fill="#ccecfc"/><rect x="1039.9" y="776.7" width="122.27" height="122.27" fill="#222458"/><rect x="1168.18" y="647.42" width="122.27" height="122.27" fill="#222458"/><rect x="1425.74" y="647.42" width="122.27" height="122.27" fill="#8ed8f8"/><rect x="1555.03" y="647.42" width="122.27" height="122.27" fill="#ccecfc"/><rect x="262.19" y="647.42" width="122.27" height="122.27" fill="#fff"/><rect x="780.33" y="647.42" width="122.27" height="122.27" fill="#ccecfc"/><rect x="910.62" y="647.42" width="122.27" height="122.27" fill="#ccecfc"/><rect x="1297.46" y="518.13" width="122.27" height="122.27" fill="#222458"/><rect x="1425.74" y="518.13" width="122.27" height="122.27" fill="#8ed8f8"/><rect x="780.33" y="518.13" width="122.27" height="122.27" fill="#8ed8f8"/><rect x="1425.74" y="388.85" width="122.27" height="122.27" fill="#222458"/><rect x="1684.31" y="1035.27" width="122.27" height="122.27" fill="#ccecfc" opacity="0.7" style="isolation:isolate"/><rect x="1684.31" y="518.13" width="122.27" height="122.27" fill="#ccecfc"/><rect x="1684.31" y="388.85" width="122.27" height="122.27" fill="#ccecfc"/><rect x="651.05" y="388.85" width="122.27" height="122.27" fill="#8ed8f8"/><rect x="910.62" y="388.85" width="122.27" height="122.27" fill="#fff"/><rect x="1168.18" y="259.57" width="122.27" height="122.27" fill="#ccecfc"/><rect x="1297.46" y="259.57" width="122.27" height="122.27" fill="#ccecfc" opacity="0.7" style="isolation:isolate"/><rect x="1555.03" y="259.57" width="122.27" height="122.27" fill="#222458"/><rect x="910.62" y="259.57" width="122.27" height="122.27" fill="#fff" opacity="0.7" style="isolation:isolate"/><rect x="1039.9" y="259.57" width="122.27" height="122.27" fill="#ccecfc"/><rect x="1297.46" y="130.28" width="122.27" height="122.27" fill="#ccecfc"/><rect x="1425.74" y="130.28" width="122.27" height="122.27" fill="#ccecfc"/><rect x="1039.9" y="130.28" width="122.27" height="122.27" fill="#fff"/><rect x="1297.46" width="122.27" height="122.27" fill="#fff" opacity="0.7" style="isolation:isolate"/></svg>