<svg xmlns="http://www.w3.org/2000/svg" viewBox="0 0 397.61 129.02"><polygon points="104.07 17.82 85.66 17.82 85.66 6.96 135.98 6.96 135.98 17.82 117.57 17.82 117.57 65.74 104.07 65.74 104.07 17.82" fill="#fff"/><path d="M153.93,33.55h14.8c6.1,0,9.29-2.47,9.29-8.41,0-5.67-3.19-8.14-9.29-8.14h-14.8ZM140.42,7h33.12c11,0,18,7.33,18,16.22,0,6.92-2.84,12.1-9.72,14.74v.17c6.62,1.73,8.52,7.73,8.95,13.75.26,3.7.08,10.7,2.58,13.91H179.82c-1.54-3.71-1.46-9.39-2.15-14.08-.94-6.17-3.44-8.89-10.23-8.89H153.93v23H140.42Z" fill="#fff"/><rect x="198.16" y="6.95" width="13.51" height="58.79" fill="#fff"/><path d="M272.2,43.51c0,15.89-9.81,23.63-26.24,23.63-16.6,0-26.15-7.57-26.15-23.63V7h13.51V43.51c0,6.43,1.71,12.76,12.64,12.76,9.64,0,12.73-4,12.73-12.76V7H272.2Z" fill="#fff"/><polygon points="280.05 6.95 299.07 6.95 313.43 47.38 313.6 47.38 327.19 6.95 346.2 6.95 346.2 65.74 333.56 65.74 333.56 24.08 333.39 24.08 318.33 65.74 307.93 65.74 292.88 24.49 292.7 24.49 292.7 65.74 280.05 65.74 280.05 6.95" fill="#fff"/><polygon points="354.43 6.95 354.43 65.75 367.93 65.75 367.93 41.45 393.65 41.45 393.65 31.41 367.93 31.41 367.93 17.82 397.61 17.82 397.61 6.95 354.43 6.95" fill="#fff"/><path d="M34,62.79c-2.24-4.17.29-18,1.24-22.69a2.88,2.88,0,0,1-.61-.17c-3.26,3.51-15.19,18.6-11.16,27.19,3.92,8.38,20.69,4.49,27.08,2.66a2.68,2.68,0,0,1-.18-.63c-6,.17-13.42-.86-16.37-6.36" fill="#fff"/><path d="M58.27,51.44C53.53,51.29,42.8,42.2,39.22,39a4.73,4.73,0,0,1-.46.44c1.41,4.57,8.54,22.44,18,23.24C66,63.51,71,47.06,72.6,40.62a2.88,2.88,0,0,1-.63-.15c-2.85,5.26-7.46,11.17-13.7,11" fill="#fff"/><path d="M60.55,24.8c-2.5,4-15.75,8.74-20.29,10.27a3.39,3.39,0,0,1,.15.61c4.67,1.06,23.73,3.84,29.17-3.95C74.88,24.15,63.12,11.6,58.34,7a3.34,3.34,0,0,1-.45.47c3.13,5.1,6,12,2.66,17.34" fill="#fff"/><path d="M38.59,9.51c2.24,4.16-.3,18-1.24,22.68a2.31,2.31,0,0,1,.6.17c3.27-3.51,15.2-18.6,11.17-27.19C45.19-3.2,28.42.68,22,2.51a3.28,3.28,0,0,1,.19.63C28.2,3,35.63,4,38.59,9.51" fill="#fff"/><path d="M14.34,20.85C19.07,21,29.8,30.1,33.39,33.27a2.66,2.66,0,0,1,.45-.44c-1.41-4.58-8.53-22.44-18-23.25C6.62,8.78,1.6,25.23,0,31.67a2.63,2.63,0,0,1,.63.15c2.85-5.26,7.46-11.17,13.71-11" fill="#fff"/><path d="M12.05,47.49c2.5-4,15.76-8.74,20.29-10.27a3.61,3.61,0,0,1-.15-.61C27.52,35.55,8.46,32.77,3,40.55c-5.3,7.59,6.45,20.14,11.23,24.75a3.36,3.36,0,0,1,.45-.47c-3.13-5.1-6-12-2.66-17.34" fill="#fff"/><path d="M126.2,106.66a10.93,10.93,0,0,0-12-3.08,8.53,8.53,0,0,0-2.24,1.34L113,98.45h14.17v-7h-20l-3.54,20.73h7.1l.15-.22a6.61,6.61,0,0,1,2-2,5.44,5.44,0,0,1,2.77-.62,5.2,5.2,0,0,1,2.27.47,4.86,4.86,0,0,1,1.69,1.3,5.73,5.73,0,0,1,1.07,2,7.9,7.9,0,0,1,.37,2.45,7.62,7.62,0,0,1-.39,2.42,6.73,6.73,0,0,1-1.08,2,5.68,5.68,0,0,1-1.71,1.4,4.64,4.64,0,0,1-2.22.53,4.78,4.78,0,0,1-3.51-1.32,5.54,5.54,0,0,1-1.61-3.59l0-.45h-7.89v.51a11.89,11.89,0,0,0,1.15,5.14,11,11,0,0,0,2.94,3.71,12.18,12.18,0,0,0,4.19,2.2,16.86,16.86,0,0,0,4.89.71h.27a12.72,12.72,0,0,0,9-3.72,13.69,13.69,0,0,0,2.86-4.26,13.32,13.32,0,0,0,1.07-5.33,16.26,16.26,0,0,0-.73-4.87A12,12,0,0,0,126.2,106.66Z" fill="#fff"/><path d="M157,100.8a16.39,16.39,0,0,0-2.82-5.87,10.5,10.5,0,0,0-4.2-3.2,13.7,13.7,0,0,0-10,0,10.25,10.25,0,0,0-4.18,3.21,16.41,16.41,0,0,0-2.8,5.86,33.62,33.62,0,0,0-1,8.88,34.82,34.82,0,0,0,1,9.08,16.56,16.56,0,0,0,2.8,5.92,10.25,10.25,0,0,0,4.18,3.21,13.26,13.26,0,0,0,5,1,13.5,13.5,0,0,0,5.05-1,10.44,10.44,0,0,0,4.2-3.21,16.41,16.41,0,0,0,2.82-5.92,34.39,34.39,0,0,0,1-9.08A33.16,33.16,0,0,0,157,100.8Zm-6.91,8.88c0,1,0,2.23-.09,3.67a20.68,20.68,0,0,1-.6,4.08,8.53,8.53,0,0,1-1.56,3.26,3.49,3.49,0,0,1-2.91,1.24,3.35,3.35,0,0,1-2.82-1.24,8.66,8.66,0,0,1-1.55-3.26,20.07,20.07,0,0,1-.59-4.08c-.07-1.42-.1-2.65-.1-3.67,0-.61,0-1.35,0-2.21s.07-1.72.16-2.63a20.34,20.34,0,0,1,.48-2.66,9.11,9.11,0,0,1,.9-2.3,4.86,4.86,0,0,1,1.41-1.57,3.59,3.59,0,0,1,2.08-.57,3.69,3.69,0,0,1,2.11.57,4.82,4.82,0,0,1,1.46,1.58,7.87,7.87,0,0,1,.9,2.28,26.34,26.34,0,0,1,.48,2.68c.11.89.17,1.77.19,2.62S150.07,109.07,150.07,109.68Z" fill="#fff"/><path d="M166.4,95.11a4,4,0,0,1,1.14-1.47,4.64,4.64,0,0,1,1.69-.85,7.62,7.62,0,0,1,2.15-.28,9,9,0,0,1,1.78.18,4.22,4.22,0,0,1,1.6.67,3.67,3.67,0,0,1,1.15,1.38,5.19,5.19,0,0,1,.44,2.32v7.49c0,.7.33,1,1,1a1.17,1.17,0,0,0,.53-.11v1.45l-.51.09-.57,0a2.4,2.4,0,0,1-1-.18,1.24,1.24,0,0,1-.58-.5,1.91,1.91,0,0,1-.28-.78,7.57,7.57,0,0,1-.06-1h-.06a11.36,11.36,0,0,1-.9,1.22,5,5,0,0,1-1,.89,4.61,4.61,0,0,1-1.28.54,6.66,6.66,0,0,1-1.72.2,6.31,6.31,0,0,1-1.77-.24,3.79,3.79,0,0,1-1.44-.74,3.48,3.48,0,0,1-1-1.28,4.56,4.56,0,0,1-.35-1.85A3.77,3.77,0,0,1,166,101a3.92,3.92,0,0,1,1.66-1.27,9.34,9.34,0,0,1,2.33-.62l2.63-.34a8.63,8.63,0,0,0,.92-.14,1.55,1.55,0,0,0,.65-.28,1.35,1.35,0,0,0,.41-.57,2.4,2.4,0,0,0,.14-.93,3.29,3.29,0,0,0-.27-1.43,2.21,2.21,0,0,0-.76-.89,2.92,2.92,0,0,0-1.13-.45,6.57,6.57,0,0,0-1.37-.13,4.06,4.06,0,0,0-2.57.78,3.12,3.12,0,0,0-1,2.51h-1.65A6.13,6.13,0,0,1,166.4,95.11Zm8.25,4.22a.91.91,0,0,1-.6.43,5.38,5.38,0,0,1-.79.2c-.69.12-1.41.24-2.16.34a11.35,11.35,0,0,0-2,.45,3.89,3.89,0,0,0-1.51.86,2.13,2.13,0,0,0-.59,1.6,2.51,2.51,0,0,0,.25,1.16,2.9,2.9,0,0,0,.67.88,2.84,2.84,0,0,0,1,.56A3.3,3.3,0,0,0,170,106a5.5,5.5,0,0,0,1.81-.3,4.38,4.38,0,0,0,1.5-.87,4.22,4.22,0,0,0,1-1.4,4.3,4.3,0,0,0,.38-1.86V99.33Z" fill="#fff"/><path d="M181.28,92.92v2.44h.05A4.07,4.07,0,0,1,183,93.29a4.8,4.8,0,0,1,2.65-.78,6.32,6.32,0,0,1,2.37.39A3.67,3.67,0,0,1,189.55,94a4.12,4.12,0,0,1,.81,1.71A9.82,9.82,0,0,1,190.6,98V107H189V98.23a8.87,8.87,0,0,0-.16-1.68,3.56,3.56,0,0,0-.55-1.35,2.62,2.62,0,0,0-1.06-.91,3.75,3.75,0,0,0-1.66-.33,4.11,4.11,0,0,0-1.77.37,3.87,3.87,0,0,0-1.31,1,4.51,4.51,0,0,0-.84,1.53,6.24,6.24,0,0,0-.32,1.93V107h-1.65V92.92Z" fill="#fff"/><path d="M195.34,92.92v2.44h0a4.07,4.07,0,0,1,1.67-2.07,4.8,4.8,0,0,1,2.65-.78,6.32,6.32,0,0,1,2.37.39A3.73,3.73,0,0,1,203.61,94a4.12,4.12,0,0,1,.81,1.71,9.82,9.82,0,0,1,.24,2.27V107H203V98.23a8.87,8.87,0,0,0-.16-1.68,3.56,3.56,0,0,0-.55-1.35,2.69,2.69,0,0,0-1.06-.91,3.75,3.75,0,0,0-1.66-.33,4.11,4.11,0,0,0-1.77.37,3.87,3.87,0,0,0-1.31,1,4.51,4.51,0,0,0-.84,1.53,6.24,6.24,0,0,0-.32,1.93V107h-1.65V92.92Z" fill="#fff"/><path d="M209.45,87.51v2.76H207.8V87.51Zm0,5.41V107H207.8V92.92Z" fill="#fff"/><path d="M212.93,92.92l4.24,12.4h.05l4.19-12.4h1.7L218.06,107h-1.75L211.1,92.92Z" fill="#fff"/><path d="M226,102.38a5.46,5.46,0,0,0,.79,1.79,4.58,4.58,0,0,0,1.39,1.31,3.73,3.73,0,0,0,2,.52,3.92,3.92,0,0,0,2.82-1,5.17,5.17,0,0,0,1.42-2.63h1.65a6.9,6.9,0,0,1-1.93,3.72,5.54,5.54,0,0,1-4,1.32,6.12,6.12,0,0,1-2.77-.59,5.11,5.11,0,0,1-1.89-1.62,7.12,7.12,0,0,1-1.09-2.38,11,11,0,0,1-.35-2.86,10.43,10.43,0,0,1,.35-2.73,7.62,7.62,0,0,1,1.09-2.4,5.49,5.49,0,0,1,1.89-1.69,5.64,5.64,0,0,1,2.77-.65,5.3,5.3,0,0,1,2.77.69A5.52,5.52,0,0,1,234.8,95a7.68,7.68,0,0,1,1,2.54,11.9,11.9,0,0,1,.26,2.92H225.71A7.81,7.81,0,0,0,226,102.38Zm8.16-5.27a5.11,5.11,0,0,0-.85-1.6,4.1,4.1,0,0,0-1.33-1.12,4,4,0,0,0-3.59,0A4.25,4.25,0,0,0,227,95.51a5.77,5.77,0,0,0-.87,1.61,8.26,8.26,0,0,0-.43,1.88h8.74A6.57,6.57,0,0,0,234.12,97.11Z" fill="#fff"/><path d="M239.84,92.92v3.31h.06a5.44,5.44,0,0,1,1.95-2.65,5,5,0,0,1,3.15-.85v1.73a4.58,4.58,0,0,0-3.62,1.36,4.84,4.84,0,0,0-1,1.63,5.77,5.77,0,0,0-.36,2.07V107h-1.65V92.92Z" fill="#fff"/><path d="M254.35,95.67a2.83,2.83,0,0,0-.77-1,3.37,3.37,0,0,0-1.12-.56,5,5,0,0,0-2.45,0,3.32,3.32,0,0,0-1,.41,2.27,2.27,0,0,0-.76.75,2.16,2.16,0,0,0-.29,1.15,1.68,1.68,0,0,0,.28,1,2.45,2.45,0,0,0,.69.67,4.62,4.62,0,0,0,.92.45,9.48,9.48,0,0,0,.92.29l2.19.52a5.63,5.63,0,0,1,1.41.4,4.51,4.51,0,0,1,1.23.75,3.6,3.6,0,0,1,.87,1.15,3.51,3.51,0,0,1,.34,1.61,3.68,3.68,0,0,1-.49,2,4.3,4.3,0,0,1-1.27,1.31,5.36,5.36,0,0,1-1.75.73,9,9,0,0,1-1.91.22,6,6,0,0,1-3.86-1.18,5.07,5.07,0,0,1-1.69-3.78h1.65a3.46,3.46,0,0,0,1.22,2.64,4.23,4.23,0,0,0,2.76.89,6.11,6.11,0,0,0,1.25-.13,3.94,3.94,0,0,0,1.19-.47,3.11,3.11,0,0,0,.9-.83,2.12,2.12,0,0,0,.35-1.25,2,2,0,0,0-.25-1,2.13,2.13,0,0,0-.66-.71,3.92,3.92,0,0,0-1-.48,10.51,10.51,0,0,0-1.09-.33l-2.12-.49a13,13,0,0,1-1.49-.51,4.81,4.81,0,0,1-1.19-.71,2.93,2.93,0,0,1-.8-1,3.61,3.61,0,0,1-.29-1.52,3.55,3.55,0,0,1,.46-1.83,3.69,3.69,0,0,1,1.19-1.23,5.58,5.58,0,0,1,1.64-.69,7.9,7.9,0,0,1,1.79-.22,6.1,6.1,0,0,1,1.9.28,4.19,4.19,0,0,1,1.55.85,4.23,4.23,0,0,1,1.06,1.42,5.22,5.22,0,0,1,.44,2h-1.65A3.51,3.51,0,0,0,254.35,95.67Z" fill="#fff"/><path d="M259.51,95.11a4.08,4.08,0,0,1,1.13-1.47,4.72,4.72,0,0,1,1.69-.85,7.67,7.67,0,0,1,2.15-.28,9,9,0,0,1,1.78.18,4.22,4.22,0,0,1,1.6.67A3.67,3.67,0,0,1,269,94.74a5.18,5.18,0,0,1,.45,2.32v7.49c0,.7.32,1,1,1a1.14,1.14,0,0,0,.53-.11v1.45l-.51.09-.57,0a2.35,2.35,0,0,1-1-.18,1.26,1.26,0,0,1-.59-.5,2.07,2.07,0,0,1-.28-.78,7.57,7.57,0,0,1-.06-1h-.06a10.16,10.16,0,0,1-.9,1.22,4.53,4.53,0,0,1-1,.89,4.61,4.61,0,0,1-1.28.54,6.61,6.61,0,0,1-1.72.2,6.31,6.31,0,0,1-1.77-.24,3.87,3.87,0,0,1-1.44-.74,3.35,3.35,0,0,1-1-1.28,4.39,4.39,0,0,1-.36-1.85,3.77,3.77,0,0,1,.63-2.31,3.92,3.92,0,0,1,1.66-1.27,9.34,9.34,0,0,1,2.33-.62l2.63-.34a8.63,8.63,0,0,0,.92-.14,1.65,1.65,0,0,0,.66-.28,1.34,1.34,0,0,0,.4-.57,2.38,2.38,0,0,0,.15-.93,3.28,3.28,0,0,0-.28-1.43,2.21,2.21,0,0,0-.76-.89,2.93,2.93,0,0,0-1.12-.45,6.74,6.74,0,0,0-1.38-.13,4,4,0,0,0-2.56.78,3.09,3.09,0,0,0-1,2.51H259A5.91,5.91,0,0,1,259.51,95.11Zm8.24,4.22a.91.91,0,0,1-.6.43,5.62,5.62,0,0,1-.78.2c-.7.12-1.42.24-2.16.34a11.27,11.27,0,0,0-2,.45,4,4,0,0,0-1.51.86,2.13,2.13,0,0,0-.59,1.6,2.64,2.64,0,0,0,.25,1.16,2.9,2.9,0,0,0,.67.88,2.84,2.84,0,0,0,1,.56,3.3,3.3,0,0,0,1.12.19,5.5,5.5,0,0,0,1.81-.3,4.43,4.43,0,0,0,1.51-.87,4.52,4.52,0,0,0,1-1.4,4.45,4.45,0,0,0,.38-1.86V99.33Z" fill="#fff"/><path d="M274.27,92.92v3.31h.06a5.32,5.32,0,0,1,1.95-2.65,5,5,0,0,1,3.15-.85v1.73a4.66,4.66,0,0,0-2,.31,4.56,4.56,0,0,0-2.62,2.68,5.77,5.77,0,0,0-.37,2.07V107h-1.65V92.92Z" fill="#fff"/><path d="M281.24,92.92l4.45,12,4.16-12h1.65l-5.86,16.26c-.25.6-.47,1.1-.68,1.49a3.53,3.53,0,0,1-.7.93,2.22,2.22,0,0,1-.89.49,4.66,4.66,0,0,1-1.29.15l-.78,0a1.71,1.71,0,0,1-.48-.09v-1.45l.56.09a3.43,3.43,0,0,0,.56,0,2.18,2.18,0,0,0,.91-.16,1.93,1.93,0,0,0,.61-.45,2.63,2.63,0,0,0,.45-.7l.39-.91.58-1.58-5.4-14.07Z" fill="#fff"/><path d="M166.38,116.71a4,4,0,0,1,1.14-1.48,4.57,4.57,0,0,1,1.69-.85,7.93,7.93,0,0,1,2.14-.27,9.67,9.67,0,0,1,1.78.17,4.32,4.32,0,0,1,1.6.67,3.54,3.54,0,0,1,1.15,1.39,5.11,5.11,0,0,1,.45,2.31v7.5c0,.69.32,1,1,1a1.27,1.27,0,0,0,.52-.11v1.45l-.51.08a4.39,4.39,0,0,1-.56,0,2.37,2.37,0,0,1-1-.18,1.4,1.4,0,0,1-.59-.51,2.07,2.07,0,0,1-.28-.78,7.57,7.57,0,0,1-.06-1h-.05a11.39,11.39,0,0,1-.91,1.22,4.3,4.3,0,0,1-1,.89,4.5,4.5,0,0,1-1.28.55,7.11,7.11,0,0,1-1.72.19,6.68,6.68,0,0,1-1.76-.23,4.1,4.1,0,0,1-1.44-.74,3.49,3.49,0,0,1-1-1.29,4.36,4.36,0,0,1-.35-1.85,3.77,3.77,0,0,1,.62-2.31,4,4,0,0,1,1.67-1.27,9.23,9.23,0,0,1,2.33-.62l2.63-.34a8.62,8.62,0,0,0,.91-.13,1.74,1.74,0,0,0,.66-.29,1.37,1.37,0,0,0,.4-.56,2.44,2.44,0,0,0,.15-.93,3.16,3.16,0,0,0-.28-1.44,2.2,2.2,0,0,0-.76-.89,2.87,2.87,0,0,0-1.12-.45,7.54,7.54,0,0,0-1.38-.12,4,4,0,0,0-2.56.78,3.1,3.1,0,0,0-1.05,2.5h-1.65A5.85,5.85,0,0,1,166.38,116.71Zm8.25,4.21a1,1,0,0,1-.61.44,6.68,6.68,0,0,1-.78.19c-.7.13-1.42.24-2.16.34a11.47,11.47,0,0,0-2,.45,4,4,0,0,0-1.51.86,2.13,2.13,0,0,0-.59,1.6,2.6,2.6,0,0,0,.92,2,2.68,2.68,0,0,0,1,.56,3.36,3.36,0,0,0,1.13.2,5.2,5.2,0,0,0,1.8-.31,4.43,4.43,0,0,0,1.51-.87,4.12,4.12,0,0,0,1-1.4,4.38,4.38,0,0,0,.38-1.86v-2.24Z" fill="#fff"/><path d="M181.25,114.52V117h.05a4.07,4.07,0,0,1,1.68-2.06,4.75,4.75,0,0,1,2.64-.78,6.33,6.33,0,0,1,2.37.38,3.6,3.6,0,0,1,1.53,1.08,4.07,4.07,0,0,1,.82,1.71,10.43,10.43,0,0,1,.23,2.27v9.09h-1.65v-8.82a8.12,8.12,0,0,0-.16-1.68,3.4,3.4,0,0,0-.55-1.35,2.62,2.62,0,0,0-1.06-.91,3.87,3.87,0,0,0-1.66-.32,4,4,0,0,0-1.77.37,3.69,3.69,0,0,0-1.3,1,4.71,4.71,0,0,0-.84,1.53,6.61,6.61,0,0,0-.33,1.93v8.24H179.6V114.52Z" fill="#fff"/><path d="M195.31,114.52V117h.05a4.07,4.07,0,0,1,1.68-2.06,4.75,4.75,0,0,1,2.64-.78,6.33,6.33,0,0,1,2.37.38,3.6,3.6,0,0,1,1.53,1.08,3.94,3.94,0,0,1,.81,1.71,9.82,9.82,0,0,1,.24,2.27v9.09H203v-8.82a8.12,8.12,0,0,0-.16-1.68,3.4,3.4,0,0,0-.55-1.35,2.62,2.62,0,0,0-1.06-.91,3.87,3.87,0,0,0-1.66-.32,4,4,0,0,0-1.77.37,3.81,3.81,0,0,0-1.31,1,4.89,4.89,0,0,0-.83,1.53,6.61,6.61,0,0,0-.33,1.93v8.24h-1.65V114.52Z" fill="#fff"/><path d="M209.42,109.1v2.76h-1.65V109.1Zm0,5.42v14.12h-1.65V114.52Z" fill="#fff"/><path d="M212.9,114.52l4.24,12.39h.06l4.19-12.39h1.7L218,128.64h-1.76l-5.21-14.12Z" fill="#fff"/><path d="M225.93,124a5.19,5.19,0,0,0,.8,1.79,4.62,4.62,0,0,0,1.39,1.32,3.78,3.78,0,0,0,2,.52,3.89,3.89,0,0,0,2.83-1,5.23,5.23,0,0,0,1.41-2.63H236a7,7,0,0,1-1.92,3.72,5.58,5.58,0,0,1-4,1.32,6.1,6.1,0,0,1-2.76-.59,5.13,5.13,0,0,1-1.9-1.61,7.31,7.31,0,0,1-1.09-2.38,11.61,11.61,0,0,1-.35-2.86,11,11,0,0,1,.35-2.74,7.56,7.56,0,0,1,1.09-2.39,5.46,5.46,0,0,1,1.9-1.7,5.63,5.63,0,0,1,2.76-.64,5.33,5.33,0,0,1,2.78.68,5.72,5.72,0,0,1,1.87,1.79,7.63,7.63,0,0,1,1,2.55,11.35,11.35,0,0,1,.26,2.91H225.68A7.81,7.81,0,0,0,225.93,124Zm8.17-5.27a5.45,5.45,0,0,0-.85-1.6,4.38,4.38,0,0,0-1.34-1.12,3.71,3.71,0,0,0-1.78-.42,3.81,3.81,0,0,0-1.81.42A4.35,4.35,0,0,0,227,117.1a5.74,5.74,0,0,0-.88,1.62,8.05,8.05,0,0,0-.43,1.87h8.74A6.24,6.24,0,0,0,234.1,118.7Z" fill="#fff"/><path d="M239.82,114.52v3.31h.05a5.42,5.42,0,0,1,1.95-2.66,5,5,0,0,1,3.16-.85v1.73a4.86,4.86,0,0,0-2,.31,4.53,4.53,0,0,0-1.58,1.06,4.63,4.63,0,0,0-1,1.62,5.56,5.56,0,0,0-.37,2.07v7.53H238.3V114.52Z" fill="#fff"/><path d="M254.32,117.27a2.78,2.78,0,0,0-.77-1,3.23,3.23,0,0,0-1.11-.56,5.29,5.29,0,0,0-2.45,0,3.22,3.22,0,0,0-1,.41,2.18,2.18,0,0,0-.76.75,2.09,2.09,0,0,0-.29,1.15,1.68,1.68,0,0,0,.27,1,2.48,2.48,0,0,0,.7.67,3.68,3.68,0,0,0,.91.45,9.48,9.48,0,0,0,.92.29l2.2.52a6,6,0,0,1,1.4.4,4.51,4.51,0,0,1,1.23.75,3.63,3.63,0,0,1,.88,1.15,4,4,0,0,1-.16,3.57,4.08,4.08,0,0,1-1.27,1.31,5.3,5.3,0,0,1-1.74.73,8.42,8.42,0,0,1-1.91.22,6,6,0,0,1-3.86-1.18,5.07,5.07,0,0,1-1.69-3.77h1.65a3.48,3.48,0,0,0,1.21,2.64,4.34,4.34,0,0,0,2.77.89,6,6,0,0,0,1.24-.14,3.84,3.84,0,0,0,1.19-.47,2.66,2.66,0,0,0,.9-.83,2.1,2.1,0,0,0,.36-1.25,2,2,0,0,0-.25-1,2.27,2.27,0,0,0-.67-.71,4.45,4.45,0,0,0-.95-.48,10.51,10.51,0,0,0-1.09-.33l-2.12-.49a12.34,12.34,0,0,1-1.49-.51,4.88,4.88,0,0,1-1.2-.71,2.91,2.91,0,0,1-.79-1,4,4,0,0,1,.17-3.35,3.59,3.59,0,0,1,1.19-1.23,5.52,5.52,0,0,1,1.63-.69,8,8,0,0,1,1.8-.21,6.46,6.46,0,0,1,1.9.27,4.15,4.15,0,0,1,1.54.85,4.07,4.07,0,0,1,1.06,1.42,5.45,5.45,0,0,1,.45,2h-1.65A3.42,3.42,0,0,0,254.32,117.27Z" fill="#fff"/><path d="M259.48,116.71a4,4,0,0,1,1.14-1.48,4.57,4.57,0,0,1,1.69-.85,8,8,0,0,1,2.15-.27,9.84,9.84,0,0,1,1.78.17,4.34,4.34,0,0,1,1.59.67,3.54,3.54,0,0,1,1.15,1.39,5.11,5.11,0,0,1,.45,2.31v7.5c0,.69.32,1,1,1a1.24,1.24,0,0,0,.52-.11v1.45l-.51.08a4.28,4.28,0,0,1-.56,0,2.37,2.37,0,0,1-1-.18,1.4,1.4,0,0,1-.59-.51,1.9,1.9,0,0,1-.27-.78,6.11,6.11,0,0,1-.07-1h-.05a12.9,12.9,0,0,1-.9,1.22,4.55,4.55,0,0,1-1,.89,4.5,4.5,0,0,1-1.28.55,7.08,7.08,0,0,1-1.71.19,6.7,6.7,0,0,1-1.77-.23,4.1,4.1,0,0,1-1.44-.74,3.6,3.6,0,0,1-1-1.29,4.52,4.52,0,0,1-.35-1.85,3.77,3.77,0,0,1,.63-2.31,3.93,3.93,0,0,1,1.66-1.27,9.23,9.23,0,0,1,2.33-.62l2.63-.34a9.25,9.25,0,0,0,.92-.13,1.69,1.69,0,0,0,.65-.29,1.39,1.39,0,0,0,.41-.56,2.68,2.68,0,0,0,.14-.93,3.3,3.3,0,0,0-.27-1.44,2.36,2.36,0,0,0-.76-.89,3,3,0,0,0-1.13-.45,7.51,7.51,0,0,0-1.37-.12,4,4,0,0,0-2.57.78,3.13,3.13,0,0,0-1.05,2.5H259A6.06,6.06,0,0,1,259.48,116.71Zm8.25,4.21a1,1,0,0,1-.6.44,6.79,6.79,0,0,1-.79.19c-.7.13-1.42.24-2.16.34a11.47,11.47,0,0,0-2,.45,3.92,3.92,0,0,0-1.5.86,2.09,2.09,0,0,0-.59,1.6,2.63,2.63,0,0,0,.91,2,2.77,2.77,0,0,0,1,.56,3.36,3.36,0,0,0,1.13.2,5.16,5.16,0,0,0,1.8-.31,4.43,4.43,0,0,0,1.51-.87,4.12,4.12,0,0,0,1-1.4,4.38,4.38,0,0,0,.38-1.86v-2.24Z" fill="#fff"/><path d="M274.41,109.1v2.76h-1.66V109.1Zm0,5.42v14.12h-1.66V114.52Z" fill="#fff"/><path d="M279.09,114.52v3.31h.05a5.42,5.42,0,0,1,1.95-2.66,5,5,0,0,1,3.16-.85v1.73a4.81,4.81,0,0,0-2,.31,4.67,4.67,0,0,0-1.59,1.06,4.77,4.77,0,0,0-1,1.62,5.56,5.56,0,0,0-.37,2.07v7.53h-1.65V114.52Z" fill="#fff"/><path d="M286.57,124a5.19,5.19,0,0,0,.8,1.79,4.58,4.58,0,0,0,1.38,1.32,3.81,3.81,0,0,0,2,.52,3.9,3.9,0,0,0,2.83-1A5.23,5.23,0,0,0,295,124h1.65a7,7,0,0,1-1.92,3.72,5.58,5.58,0,0,1-4,1.32,6,6,0,0,1-2.76-.59,5.13,5.13,0,0,1-1.9-1.61,7.31,7.31,0,0,1-1.09-2.38,11.61,11.61,0,0,1-.35-2.86,11,11,0,0,1,.35-2.74,7.56,7.56,0,0,1,1.09-2.39,5.46,5.46,0,0,1,1.9-1.7,5.58,5.58,0,0,1,2.76-.64,5.27,5.27,0,0,1,2.77.68,5.65,5.65,0,0,1,1.88,1.79,7.63,7.63,0,0,1,1,2.55,11.35,11.35,0,0,1,.26,2.91H286.32A7.81,7.81,0,0,0,286.57,124Zm8.17-5.27a5.24,5.24,0,0,0-.86-1.6,4.23,4.23,0,0,0-1.33-1.12,3.71,3.71,0,0,0-1.78-.42A3.81,3.81,0,0,0,289,116a4.23,4.23,0,0,0-1.33,1.12,5.74,5.74,0,0,0-.88,1.62,8.05,8.05,0,0,0-.43,1.87h8.74A6.57,6.57,0,0,0,294.74,118.7Z" fill="#fff"/></svg>