<svg fill="currentColor" xmlns="http://www.w3.org/2000/svg" viewBox="0 0 991.26 180.23"><polygon points="213.56 44.43 259.45 44.43 259.45 163.89 293.11 163.89 293.11 44.43 339 44.43 339 17.34 213.56 17.34 213.56 44.43" /><path d="M453.24,94.94v-.42c17.15-6.58,24.24-19.5,24.24-36.75,0-22.16-17.37-40.43-44.83-40.43H350.08V163.9h33.68V106.63h33.67c16.94,0,23.16,6.78,25.52,22.17,1.71,11.69,1.5,25.85,5.35,35.1H482c-6.22-8-5.79-25.46-6.43-34.69C474.48,114.22,469.75,99.24,453.24,94.94Zm-32.6-11.3H383.76V42.37h36.88c15.22,0,23.16,6.17,23.16,20.31C443.8,77.47,435.86,83.64,420.64,83.64Z" /><rect x="494.03" y="17.34" width="33.68" height="146.56" /><path d="M644.92,108.48c0,22-7.72,31.8-31.73,31.8-27.25,0-31.53-15.79-31.53-31.8V17.34H548v91.14c0,40,23.81,58.9,65.2,58.9,40.95,0,65.41-19.29,65.41-58.9V17.34H644.92Z" /><polygon points="781.83 118.13 781.4 118.13 745.58 17.34 698.18 17.34 698.18 163.9 729.7 163.9 729.7 61.05 730.14 61.05 767.67 163.9 793.62 163.9 831.14 60.03 831.58 60.03 831.58 163.9 863.1 163.9 863.1 17.34 815.7 17.34 781.83 118.13" /><polygon points="991.26 44.43 991.26 17.33 883.6 17.33 883.6 163.91 917.27 163.91 917.27 103.34 981.39 103.34 981.39 78.3 917.27 78.3 917.27 44.43 991.26 44.43" /><path d="M84.81,156.53h0c-5.58-10.4.73-44.87,3.09-56.55a8.91,8.91,0,0,1-1.51-.42c-8.14,8.74-37.88,46.37-27.83,67.78,9.79,20.88,51.59,11.19,67.51,6.62a9.32,9.32,0,0,1-.46-1.56C110.69,172.81,92.17,170.24,84.81,156.53Z" /><path d="M145.26,128.23h0c-11.8-.38-38.55-23.05-47.49-30.95a7.92,7.92,0,0,1-1.14,1.1c3.52,11.39,21.28,55.94,44.88,58,23,2,35.49-39,39.49-55.07a8.53,8.53,0,0,1-1.57-.37C172.32,114,160.83,128.73,145.26,128.23Z" /><path d="M151,61.84h0c-6.23,10-39.28,21.77-50.59,25.57a9,9,0,0,1,.38,1.53c11.65,2.66,59.15,9.58,72.7-9.83,13.22-18.9-16.08-50.2-28-61.68a8.25,8.25,0,0,1-1.11,1.18C152.14,31.3,159.18,48.61,151,61.84Z" /><path d="M96.2,23.7h0c5.58,10.38-.74,44.86-3.09,56.54a7.23,7.23,0,0,1,1.51.43c8.14-8.75,37.88-46.37,27.83-67.78C112.65-8,70.86,1.69,54.94,6.25a9.72,9.72,0,0,1,.46,1.57C70.32,7.42,88.83,10,96.2,23.7Z" /><path d="M35.74,52h0c11.8.37,38.54,23.05,47.49,31a6.91,6.91,0,0,1,1.13-1.1c-3.51-11.4-21.27-55.94-44.87-58-23-2-35.5,39-39.5,55.07a7.16,7.16,0,0,1,1.58.39C8.69,66.21,20.17,51.49,35.74,52Z" /><path d="M30.05,118.39c6.23-10,39.28-21.79,50.59-25.59a8.93,8.93,0,0,1-.39-1.52C68.6,88.62,21.1,81.7,7.55,101.1c-13.21,18.91,16.09,50.2,28,61.68a9.52,9.52,0,0,1,1.12-1.17C28.88,148.92,21.83,131.62,30.05,118.39Z" /></svg>