<svg xmlns="http://www.w3.org/2000/svg" viewBox="0 0 175 42"><rect width="175" height="42" rx="12" fill="#fff" opacity="0.35"/><polygon points="52.8 14.34 46.12 14.34 46.12 10.4 64.37 10.4 64.37 14.34 57.69 14.34 57.69 31.71 52.8 31.71 52.8 14.34" fill="#fff"/><path d="M70.88,20h5.36c2.21,0,3.37-.89,3.37-3.05S78.45,14,76.24,14H70.88ZM66,10.4H78c4,0,6.52,2.66,6.52,5.88A5.19,5.19,0,0,1,81,21.62v.07c2.4.62,3.09,2.8,3.25,5,.09,1.34,0,3.88.93,5h-4.9c-.56-1.35-.53-3.41-.78-5.11-.34-2.24-1.24-3.22-3.71-3.22H70.88v8.33H66Z" fill="#fff"/><rect x="86.91" y="10.4" width="4.9" height="21.32" fill="#fff"/><path d="M113.76,23.66c0,5.76-3.56,8.56-9.51,8.56s-9.49-2.74-9.49-8.56V10.4h4.9V23.66c0,2.32.62,4.62,4.59,4.62,3.49,0,4.61-1.43,4.61-4.62V10.4h4.9Z" fill="#fff"/><polygon points="116.61 10.4 123.5 10.4 128.71 25.06 128.77 25.06 133.7 10.4 140.59 10.4 140.59 31.72 136.01 31.72 136.01 16.61 135.95 16.61 130.49 31.72 126.72 31.72 121.26 16.76 121.19 16.76 121.19 31.72 116.61 31.72 116.61 10.4" fill="#fff"/><polygon points="143.58 10.4 143.58 31.72 148.47 31.72 148.47 22.91 157.8 22.91 157.8 19.27 148.47 19.27 148.47 14.34 159.24 14.34 159.24 10.4 143.58 10.4" fill="#fff"/><path d="M27.39,30.64c-.81-1.51.11-6.52.45-8.22l-.22-.06c-1.18,1.27-5.51,6.74-4,9.86s7.5,1.62,9.82,1a.88.88,0,0,1-.07-.23c-2.17.06-4.86-.31-5.94-2.31" fill="#fff"/><path d="M36.19,26.53c-1.72-.06-5.61-3.35-6.91-4.5a1.29,1.29,0,0,1-.17.16c.52,1.66,3.1,8.13,6.53,8.43s5.16-5.68,5.75-8a.86.86,0,0,1-.23-.06c-1,1.91-2.71,4.05-5,4" fill="#fff"/><path d="M37,16.87c-.91,1.46-5.72,3.17-7.36,3.72a2.25,2.25,0,0,1,.05.22c1.7.39,8.61,1.4,10.58-1.43s-2.34-7.3-4.08-9a.87.87,0,0,1-.16.17c1.14,1.85,2.16,4.37,1,6.29" fill="#fff"/><path d="M29.05,11.32c.81,1.51-.11,6.53-.45,8.23a.79.79,0,0,1,.22.06c1.18-1.27,5.51-6.74,4-9.86s-7.5-1.63-9.82-1a1.87,1.87,0,0,1,.07.22c2.17,0,4.86.32,5.93,2.31" fill="#fff"/><path d="M20.26,15.44c1.72.05,5.6,3.35,6.91,4.5a.81.81,0,0,1,.16-.16c-.51-1.66-3.09-8.14-6.53-8.43s-5.16,5.67-5.74,8a1,1,0,0,1,.23.06c1-1.91,2.7-4.05,5-4" fill="#fff"/><path d="M19.43,25.1c.91-1.46,5.71-3.17,7.36-3.73a.9.9,0,0,1-.06-.22c-1.69-.38-8.6-1.39-10.57,1.43s2.34,7.3,4.07,9l.16-.17c-1.13-1.84-2.16-4.36-1-6.28" fill="#fff"/></svg>