<?xml version="1.0" encoding="utf-8"?>
<!-- Generator: Adobe Illustrator 25.0.1, SVG Export Plug-In . SVG Version: 6.00 Build 0)  -->
<svg version="1.2" baseProfile="tiny" id="Layer_1" xmlns="http://www.w3.org/2000/svg" xmlns:xlink="http://www.w3.org/1999/xlink"
	 x="0px" y="0px" viewBox="0 0 2705.3 1804.8" overflow="visible" xml:space="preserve">
<path id="Path_13" fill="none" stroke="#FFCB06" stroke-width="8" stroke-miterlimit="10" d="M1380.9,1391.1
	c375.8,0,680.5-303.7,680.5-678.4S1756.7,34.3,1380.9,34.3H-1.2"/>
<path id="Path_14" fill="none" stroke="#FFCB06" stroke-width="7.3" stroke-miterlimit="10" d="M1376.6,1390.9
	c362.9,1.2,652.9-290.4,653.3-649.7c0.4-321.3-233.4-586.7-540.2-641.2c-26.5-4.7-59.6-8.1-87.2-9.5c-10.1-0.5-22.5-0.8-32.7-0.8
	L0.9,100"/>
<path id="Path_15" fill="none" stroke="#FFCB06" stroke-width="6.6" stroke-miterlimit="10" d="M1372.3,1390.6
	c350,2.3,625.3-277.1,626.2-621c0.9-310.1-226.8-564.3-523.8-615.2c-23.6-4-59.7-7.4-84.2-8.6c-9-0.4-22.5-0.7-31.6-0.7L-1.2,145.9"
	/>
<path id="Path_16" fill="none" stroke="#FFCB06" stroke-width="5.9" stroke-miterlimit="10" d="M1368,1390.3
	c337,3.5,597.7-263.8,599.1-592.2c1.3-298.9-220.2-541.9-507.5-589.2c-20.7-3.4-59.8-6.6-81.3-7.6c-7.8-0.4-22.5-0.7-30.4-0.7H3.1"
	/>
<path id="Path_17" fill="none" stroke="#FFCB06" stroke-width="5.2" stroke-miterlimit="10" d="M1363.7,1390.1
	c324.1,4.7,570.2-251.3,571.9-565.2c1.8-288.6-213.6-521.1-491.1-564.9c-17.7-2.8-60-5.8-78.3-6.7c-6.7-0.3-22.5-0.7-29.3-0.7H0.9"
	/>
<path id="Path_18" fill="none" stroke="#FFCB06" stroke-width="4.5" stroke-miterlimit="10" d="M1359.4,1389.8
	c311.2,5.9,542.6-238,544.8-536.5c2.2-277.4-206.9-498.7-474.8-538.9c-14.8-2.2-60.1-5.1-75.4-5.8c-5.6-0.3-22.5-0.6-28.2-0.6H-3"/>
<path id="Path_19" fill="none" stroke="#FFCB06" stroke-width="3.8" stroke-miterlimit="10" d="M1355.1,1389.6
	c298.3,7.1,515-224.7,517.7-507.8c2.7-266.2-200.2-476.3-458.4-512.9c-11.9-1.7-60.2-4.3-72.4-4.9c-4.5-0.2-22.5-0.6-27.1-0.6H0.9"
	/>
<path id="Path_20" fill="none" stroke="#FFCB06" stroke-width="3.1" stroke-miterlimit="10" d="M1350.8,1389.3
	c285.3,8.2,487.4-211.4,490.5-479.1c3.1-255-193.4-453.9-442.1-486.9c-8.9-1.2-60.3-3.5-69.5-4c-3.4-0.2-22.5-0.6-25.9-0.6H0.3"/>
<path id="Path_21" fill="none" stroke="#FFCB06" stroke-width="2.4" stroke-miterlimit="10" d="M1346.5,1389.1
	c272.4,9.4,459.8-198.1,463.4-450.3c3.5-243.8-186.5-431.5-425.8-460.9c-5.9-0.7-60.4-2.8-66.5-3.1c-2.2-0.1-22.6-0.5-24.8-0.5
	L1.5,474.8"/>
<path id="Path_22" fill="none" stroke="#FFCB06" stroke-width="1.7" stroke-miterlimit="10" d="M1342.2,1388.8
	c259.5,10.6,432.3-184.8,436.3-421.6c4-232.6-179.6-409-409.4-434.9c-3-0.3-60.5-2-63.6-2.1c-1.1-0.1-22.6-0.5-23.7-0.5H6.9"/>
</svg>
