<?xml version="1.0" encoding="utf-8"?>
<!-- Generator: Adobe Illustrator 25.0.1, SVG Export Plug-In . SVG Version: 6.00 Build 0)  -->
<svg version="1.2" baseProfile="tiny" id="Layer_1" xmlns="http://www.w3.org/2000/svg" xmlns:xlink="http://www.w3.org/1999/xlink"
	 x="0px" y="0px" viewBox="0 0 2818 1880" overflow="visible" xml:space="preserve">
<path id="Path_13_1_" fill="none" stroke="#FFCB06" stroke-width="8.3386" stroke-miterlimit="10" d="M1438.5,1448.5
	c391.7,0,709.3-316.6,709.3-707.1S1830.2,34.3,1438.5,34.3H-2.1"/>
<path id="Path_14_1_" fill="none" stroke="#FFCB06" stroke-width="7.609" stroke-miterlimit="10" d="M1434,1448.2
	c378.2,1.2,680.5-302.7,681-677.2c0.5-334.9-243.2-611.5-563-668.3c-27.6-4.9-62.2-8.5-90.9-9.9c-10.5-0.5-23.4-0.8-34.1-0.8
	L0.1,102.7"/>
<path id="Path_15_1_" fill="none" stroke="#FFCB06" stroke-width="6.8794" stroke-miterlimit="10" d="M1429.5,1448
	c364.8,2.4,651.8-288.9,652.7-647.2c0.9-323.2-236.4-588.2-546-641.2c-24.6-4.2-62.3-7.7-87.8-8.9c-9.3-0.5-23.5-0.8-32.9-0.8
	L-2.1,150.6"/>
<path id="Path_16_1_" fill="none" stroke="#FFCB06" stroke-width="6.1497" stroke-miterlimit="10" d="M1425,1447.7
	c351.3,3.7,623-275,624.4-617.3c1.4-311.5-229.5-564.8-528.9-614.1c-21.5-3.5-62.4-6.9-84.7-8c-8.2-0.4-23.5-0.7-31.7-0.7H2.3"/>
<path id="Path_17_1_" fill="none" stroke="#FFCB06" stroke-width="5.4201" stroke-miterlimit="10" d="M1420.5,1447.4
	c337.8,4.9,594.3-261.9,596.1-589.2c1.8-300.8-222.6-543.2-511.9-588.8c-18.5-2.9-62.5-6.1-81.6-7c-7-0.3-23.5-0.7-30.6-0.7H0.1"/>
<path id="Path_18_1_" fill="none" stroke="#FFCB06" stroke-width="4.6905" stroke-miterlimit="10" d="M1416,1447.2
	c324.4,6.1,565.5-248.1,567.9-559.2c2.3-289.1-215.7-519.8-494.9-561.7c-15.4-2.3-62.6-5.3-78.6-6.1c-5.8-0.3-23.5-0.7-29.4-0.7H-4"
	/>
<path id="Path_19_1_" fill="none" stroke="#FFCB06" stroke-width="3.9608" stroke-miterlimit="10" d="M1411.6,1446.9
	c310.9,7.3,536.8-234.2,539.6-529.3c2.8-277.4-208.6-496.5-477.8-534.6c-12.4-1.8-62.7-4.5-75.5-5.1c-4.7-0.2-23.5-0.6-28.2-0.6H0.1
	"/>
<path id="Path_20_1_" fill="none" stroke="#FFCB06" stroke-width="3.2312" stroke-miterlimit="10" d="M1407.1,1446.6
	c297.4,8.6,508.1-220.3,511.3-499.3c3.2-265.8-201.6-473.1-460.8-507.5c-9.3-1.2-62.8-3.7-72.4-4.1c-3.5-0.2-23.5-0.6-27-0.6H-0.5"
	/>
<path id="Path_21_1_" fill="none" stroke="#FFCB06" stroke-width="2.5016" stroke-miterlimit="10" d="M1402.6,1446.4
	c283.9,9.8,479.3-206.5,483-469.4c3.7-254.1-194.4-449.7-443.8-480.4c-6.2-0.8-62.9-2.9-69.3-3.2c-2.3-0.1-23.5-0.5-25.9-0.5
	L0.7,493.4"/>
<path id="Path_22_1_" fill="none" stroke="#FFCB06" stroke-width="1.772" stroke-miterlimit="10" d="M1398.1,1446.1
	c270.5,11,450.6-192.6,454.7-439.4c4.2-242.4-187.2-426.3-426.7-453.3c-3.1-0.3-63.1-2.1-66.2-2.2c-1.2-0.1-23.5-0.5-24.7-0.5H6.4"
	/>
</svg>
