<svg xmlns="http://www.w3.org/2000/svg" viewBox="0 0 735.53 651.09"><path id="background" d="M733.83,650.67l-13.6-93.27-16-17.73-16.55-1.77L575.43,471.7l-21.88-44.33-8.27-5.91L561.83,412l28.37,6.5,23-17.14L612.07,363l7.68-7.1-2.36-9.45,3-11.82,6.8-8.87.89-.59,7.68-7.09.59-12.42,13.6-5.91L654,283.15l-5.91-28.37,6.5-22.46V194.5l1.78-18.33L639.26,99.93,589,53.24,561.83,17.78l-66.2-16L402.84,22.51,357.92,59.74l-14.19,41.38L303,126.53l-9.45,42.55L274,194.5,277,218.73l27.78,57.33,30.73,10.05-1.77,28.37,32.51,18.91-13.6,24.24-5.91-6.5-29.55-.59-31.32,46.69-58.52,26L118,459.29l-30.14,10L57.67,491.21,34.62,548.54l-10,53.19L4.47,644.29Z" fill="#131841"/><line id="tie-line" x1="501.25" y1="490.61" x2="502.14" y2="644.88" fill="none" stroke="#ffc000" stroke-linecap="round" stroke-linejoin="round" stroke-width="6"/><path id="chest-2" d="M524.59,436.83l26.3,59.1,22.17-22.16,24.82,173.76L527,488.83" fill="none" stroke="#ffc000" stroke-linecap="round" stroke-linejoin="round" stroke-width="6"/><path id="tie" d="M538.49,471.11,516.32,504.8,472,461.36" fill="none" stroke="#ffc000" stroke-linecap="round" stroke-linejoin="round" stroke-width="6"/><path id="chest-1" d="M481.45,437.42,442.73,524.3,349.64,355.86,463.13,643.1" fill="none" stroke="#ffc000" stroke-linecap="round" stroke-linejoin="round" stroke-width="6"/><path id="neck-line" d="M543.81,423.23l-19.21,13.6L505.68,428l-24.23,9.46-115-102.84" fill="none" stroke="#ffc000" stroke-linecap="round" stroke-linejoin="round" stroke-width="6"/><path id="cheek-line-bottom" d="M566.56,413.19l-52-43.74L469,333.4,457.8,302.07" fill="none" stroke="#ffc000" stroke-linecap="round" stroke-linejoin="round" stroke-width="6"/><path id="mouth-bottom-line" d="M613,363H597.44l-13.3-9.31" fill="none" stroke="#ffc000" stroke-linecap="round" stroke-linejoin="round" stroke-width="4"/><path id="mouth" d="M627.15,325.71H589l-27.78-8.27,29,23.64,27.19,6.8" fill="none" stroke="#ffc000" stroke-linecap="round" stroke-linejoin="round" stroke-width="6"/><line id="hair-line-3" x1="480.86" y1="253.9" x2="457.81" y2="252.72" fill="none" stroke="#ffc000" stroke-linecap="round" stroke-linejoin="round" stroke-width="4"/><line id="hair-line-2" x1="479.09" y1="240.31" x2="456.03" y2="239.12" fill="none" stroke="#ffc000" stroke-linecap="round" stroke-linejoin="round" stroke-width="4"/><line id="hair-line-1" x1="476.43" y1="227.01" x2="453.37" y2="225.82" fill="none" stroke="#ffc000" stroke-linecap="round" stroke-linejoin="round" stroke-width="4"/><path id="eye-2" d="M653.44,213.41l-17.14,6.5,17.14,10.35" fill="none" stroke="#ffc000" stroke-linecap="round" stroke-linejoin="round" stroke-width="6"/><path id="eye-brow-2" d="M637.19,214.3l11.53-6.8,5.61,2.66" fill="none" stroke="#ffc000" stroke-linecap="round" stroke-linejoin="round" stroke-width="4"/><path id="nose-line-bottom" d="M635.12,305.32l-24.82-6.21-7.69-13.59,3-10.64" fill="none" stroke="#ffc000" stroke-linecap="round" stroke-linejoin="round" stroke-width="6"/><path id="nose-line" d="M656.4,191.84,631,193.32,629.21,217l21.28,49.65" fill="none" stroke="#ffc000" stroke-linecap="round" stroke-linejoin="round" stroke-width="6"/><path id="cheek-line" d="M575.72,250.8,553.56,234l-18.18-4.43" fill="none" stroke="#ffc000" stroke-linecap="round" stroke-linejoin="round" stroke-width="4"/><path id="eye-line-bottom" d="M585.77,228.19l-15.07,2.07L547.94,222" fill="none" stroke="#ffc000" stroke-linecap="round" stroke-linejoin="round" stroke-width="4"/><path id="eye-line-1" d="M578.6,223.46c4.27-3.91,4.27-13.75,4.27-13.75" fill="none" stroke="#ffc000" stroke-linecap="round" stroke-linejoin="round" stroke-width="4"/><path id="eye-line" d="M594.93,214.59l-12.28-4.91-2.5-1-39,6.5,37.24,8.28" fill="none" stroke="#ffc000" stroke-linecap="round" stroke-linejoin="round" stroke-width="6"/><path id="eyebrow" d="M593.75,189.77l-33.69-5.32-35.47,12.41" fill="none" stroke="#ffc000" stroke-linecap="round" stroke-linejoin="round" stroke-width="6"/><path id="ear-line" d="M426.78,279.61l-16.85,6.21L392.2,270.74" fill="none" stroke="#ffc000" stroke-linecap="round" stroke-linejoin="round" stroke-width="6"/><path id="ear-botom" d="M412.89,266.61l-6.5,2.66-9.75-19.8-13.3-14.78,1.18-13.3" fill="none" stroke="#ffc000" stroke-linecap="round" stroke-linejoin="round" stroke-width="4"/><path id="ear-top" d="M417.91,255.67l.88-12.41-13.3-10.64,5.32-14.18L388.65,207.8" fill="none" stroke="#ffc000" stroke-linecap="round" stroke-linejoin="round" stroke-width="6"/><path id="hair-line" d="M590.79,55.31l-69.15-19.8L471.4,37.28l-31.92,8.28-5.91,24.23,37.24,29,16,44.92-13.6,39.6,10.64,89.25-37.82.59-8.87-27.19L418.8,197.45l-22.46-7.68-27.78,7.09v42.56l23.64,31.33L394,295.57l-11.23,24.82-17.14,9.46" fill="none" stroke="#ffc000" stroke-linecap="round" stroke-linejoin="round" stroke-width="6"/><path id="outer-stroke" d="M732.53,648.09l-12.3-91.87-16-17.73-16-.89L575.72,472l-23.05-44.33-8.87-4.44,18.62-9.75,30.14,4.44,22.17-16.85L613,363l8.87-6.21-4.43-8.86,2.66-12.42,7.09-9.75h0l8.87-6.2-.89-14.19,15.07-4.43L655.51,284l-7.09-29.25,6.2-22.17-1.77-12.41,3.55-28.37,1.77-14.19-19.5-77.13L590.79,55.31,562.42,19,496.82,3,403.73,21.62,358.51,59.74,343.44,102.3,302.66,128l-8.87,44.33-20.39,23,5.32,23.93L295.56,253l9.76,23.05,30.14,10.64-1.77,27.49,25.71,15.07,7.09,5.32-10.64,17.73-37.23-1.77-33.69,47-52.31,23.93-43.44,15.08L90.76,468.45,58,490.62,35.8,549.13l-11.52,55L9.2,636,3,646.65" fill="none" stroke="#ffc000" stroke-linecap="round" stroke-linejoin="round" stroke-width="6"/></svg>