<?xml version="1.0" encoding="utf-8"?>
<!-- Generator: Adobe Illustrator 25.0.1, SVG Export Plug-In . SVG Version: 6.00 Build 0)  -->
<svg version="1.2" baseProfile="tiny" id="Layer_1" xmlns="http://www.w3.org/2000/svg" xmlns:xlink="http://www.w3.org/1999/xlink"
	 x="0px" y="0px" viewBox="0 0 3298.1 2200.3" overflow="visible" xml:space="preserve">
<path id="Path_13" fill="none" stroke="#FFCB06" stroke-width="8.1235" stroke-miterlimit="10" d="M1682.2,541.5
	c456.3,0,826.2,369.7,826.2,825.8s-369.9,825.8-826.2,825.8H0"/>
<path id="Path_14" fill="none" stroke="#FFCB06" stroke-width="7.4127" stroke-miterlimit="10" d="M1677,541.9
	c440.6-1.4,792.7,353.6,793.2,790.9c0.5,391.1-283.3,714.2-655.8,780.6c-32.2,5.7-72.4,9.9-105.9,11.5c-12.2,0.6-27.3,1-39.7,1
	L0,2113.3"/>
<path id="Path_15" fill="none" stroke="#FFCB06" stroke-width="6.7019" stroke-miterlimit="10" d="M1671.8,542.2
	c424.9-2.9,759.2,337.4,760.3,756c1.1,377.5-275.4,687.1-636,749c-28.6,4.9-72.5,9-102.3,10.4c-10.9,0.5-27.3,0.9-38.3,0.9L0,2057.6
	"/>
<path id="Path_16" fill="none" stroke="#FFCB06" stroke-width="5.9911" stroke-miterlimit="10" d="M1666.6,542.5
	c409.2-4.3,725.7,321.3,727.4,721.2c1.6,363.9-267.4,659.9-616.1,717.4c-25.1,4.1-72.7,8-98.7,9.3c-9.5,0.5-27.3,0.9-37,0.9H0"/>
<path id="Path_17" fill="none" stroke="#FFCB06" stroke-width="5.2803" stroke-miterlimit="10" d="M1661.3,542.8
	c393.5-5.7,692.3,305.1,694.4,686.3c2.2,350.3-259.3,632.7-596.3,685.9c-21.5,3.4-72.8,7.1-95.1,8.2c-8.2,0.4-27.3,0.8-35.6,0.8H0"
	/>
<path id="Path_18" fill="none" stroke="#FFCB06" stroke-width="4.5695" stroke-miterlimit="10" d="M1656.1,543.1
	c377.8-7.1,658.8,289,661.5,651.4c2.7,336.8-251.2,605.5-576.5,654.3c-18,2.7-72.9,6.2-91.5,7.1c-6.8,0.3-27.3,0.8-34.2,0.8H0"/>
<path id="Path_19" fill="none" stroke="#FFCB06" stroke-width="3.8587" stroke-miterlimit="10" d="M1650.9,543.4
	c362.1-8.6,625.3,272.8,628.5,616.5c3.2,323.2-243,578.3-556.6,622.7c-14.4,2-73.1,5.2-87.9,6c-5.4,0.3-27.4,0.7-32.9,0.7H0"/>
<path id="Path_20" fill="none" stroke="#FFCB06" stroke-width="3.1479" stroke-miterlimit="10" d="M1645.7,543.7
	c346.4-10,591.8,256.6,595.6,581.6c3.8,309.6-234.8,551.1-536.8,591.2c-10.8,1.4-73.2,4.3-84.3,4.8c-4.1,0.2-27.4,0.7-31.5,0.7H0"/>
<path id="Path_21" fill="none" stroke="#FFCB06" stroke-width="2.437" stroke-miterlimit="10" d="M1640.4,544
	c330.8-11.4,558.3,240.5,562.6,546.8c4.3,296-226.5,523.9-516.9,559.6c-7.2,0.9-73.3,3.4-80.8,3.7c-2.7,0.1-27.4,0.6-30.1,0.6
	L0,1654.1"/>
<path id="Path_22" fill="none" stroke="#FFCB06" stroke-width="1.7262" stroke-miterlimit="10" d="M1635.2,544.4
	c315.1-12.8,524.8,224.3,529.7,511.9c4.8,282.4-218.1,496.6-497.1,528.1c-3.6,0.4-73.4,2.4-77.2,2.6c-1.4,0.1-27.4,0.6-28.8,0.6H0"
	/>
</svg>
